<?xml version="1.0" encoding="utf-8"?>
<svg xmlns="http://www.w3.org/2000/svg" xmlns:xlink="http://www.w3.org/1999/xlink" width="600" height="400" viewBox="0 0 2400 1600">
<defs>
  <clipPath id="clip010">
    <rect x="0" y="0" width="2400" height="1600"/>
  </clipPath>
</defs>
<path clip-path="url(#clip010)" d="M0 1600 L2400 1600 L2400 0 L0 0  Z" fill="#ffffff" fill-rule="evenodd" fill-opacity="1"/>
<defs>
  <clipPath id="clip011">
    <rect x="249" y="47" width="2104" height="1377"/>
  </clipPath>
</defs>
<path clip-path="url(#clip010)" d="M249.542 1423.18 L2352.76 1423.18 L2352.76 47.2441 L249.542 47.2441  Z" fill="#ffffff" fill-rule="evenodd" fill-opacity="1"/>
<polyline clip-path="url(#clip011)" style="stroke:#000000; stroke-linecap:round; stroke-linejoin:round; stroke-width:2; stroke-opacity:0.1; fill:none" points="309.067,1423.18 309.067,47.2441 "/>
<polyline clip-path="url(#clip011)" style="stroke:#000000; stroke-linecap:round; stroke-linejoin:round; stroke-width:2; stroke-opacity:0.1; fill:none" points="592.519,1423.18 592.519,47.2441 "/>
<polyline clip-path="url(#clip011)" style="stroke:#000000; stroke-linecap:round; stroke-linejoin:round; stroke-width:2; stroke-opacity:0.1; fill:none" points="875.971,1423.18 875.971,47.2441 "/>
<polyline clip-path="url(#clip011)" style="stroke:#000000; stroke-linecap:round; stroke-linejoin:round; stroke-width:2; stroke-opacity:0.1; fill:none" points="1159.42,1423.18 1159.42,47.2441 "/>
<polyline clip-path="url(#clip011)" style="stroke:#000000; stroke-linecap:round; stroke-linejoin:round; stroke-width:2; stroke-opacity:0.1; fill:none" points="1442.87,1423.18 1442.87,47.2441 "/>
<polyline clip-path="url(#clip011)" style="stroke:#000000; stroke-linecap:round; stroke-linejoin:round; stroke-width:2; stroke-opacity:0.1; fill:none" points="1726.33,1423.18 1726.33,47.2441 "/>
<polyline clip-path="url(#clip011)" style="stroke:#000000; stroke-linecap:round; stroke-linejoin:round; stroke-width:2; stroke-opacity:0.1; fill:none" points="2009.78,1423.18 2009.78,47.2441 "/>
<polyline clip-path="url(#clip011)" style="stroke:#000000; stroke-linecap:round; stroke-linejoin:round; stroke-width:2; stroke-opacity:0.1; fill:none" points="2293.23,1423.18 2293.23,47.2441 "/>
<polyline clip-path="url(#clip011)" style="stroke:#000000; stroke-linecap:round; stroke-linejoin:round; stroke-width:2; stroke-opacity:0.1; fill:none" points="249.542,1360.64 2352.76,1360.64 "/>
<polyline clip-path="url(#clip011)" style="stroke:#000000; stroke-linecap:round; stroke-linejoin:round; stroke-width:2; stroke-opacity:0.1; fill:none" points="249.542,1047.92 2352.76,1047.92 "/>
<polyline clip-path="url(#clip011)" style="stroke:#000000; stroke-linecap:round; stroke-linejoin:round; stroke-width:2; stroke-opacity:0.1; fill:none" points="249.542,735.212 2352.76,735.212 "/>
<polyline clip-path="url(#clip011)" style="stroke:#000000; stroke-linecap:round; stroke-linejoin:round; stroke-width:2; stroke-opacity:0.1; fill:none" points="249.542,422.499 2352.76,422.499 "/>
<polyline clip-path="url(#clip011)" style="stroke:#000000; stroke-linecap:round; stroke-linejoin:round; stroke-width:2; stroke-opacity:0.1; fill:none" points="249.542,109.787 2352.76,109.787 "/>
<polyline clip-path="url(#clip010)" style="stroke:#000000; stroke-linecap:round; stroke-linejoin:round; stroke-width:4; stroke-opacity:1; fill:none" points="249.542,1423.18 2352.76,1423.18 "/>
<polyline clip-path="url(#clip010)" style="stroke:#000000; stroke-linecap:round; stroke-linejoin:round; stroke-width:4; stroke-opacity:1; fill:none" points="309.067,1423.18 309.067,1404.28 "/>
<polyline clip-path="url(#clip010)" style="stroke:#000000; stroke-linecap:round; stroke-linejoin:round; stroke-width:4; stroke-opacity:1; fill:none" points="592.519,1423.18 592.519,1404.28 "/>
<polyline clip-path="url(#clip010)" style="stroke:#000000; stroke-linecap:round; stroke-linejoin:round; stroke-width:4; stroke-opacity:1; fill:none" points="875.971,1423.18 875.971,1404.28 "/>
<polyline clip-path="url(#clip010)" style="stroke:#000000; stroke-linecap:round; stroke-linejoin:round; stroke-width:4; stroke-opacity:1; fill:none" points="1159.42,1423.18 1159.42,1404.28 "/>
<polyline clip-path="url(#clip010)" style="stroke:#000000; stroke-linecap:round; stroke-linejoin:round; stroke-width:4; stroke-opacity:1; fill:none" points="1442.87,1423.18 1442.87,1404.28 "/>
<polyline clip-path="url(#clip010)" style="stroke:#000000; stroke-linecap:round; stroke-linejoin:round; stroke-width:4; stroke-opacity:1; fill:none" points="1726.33,1423.18 1726.33,1404.28 "/>
<polyline clip-path="url(#clip010)" style="stroke:#000000; stroke-linecap:round; stroke-linejoin:round; stroke-width:4; stroke-opacity:1; fill:none" points="2009.78,1423.18 2009.78,1404.28 "/>
<polyline clip-path="url(#clip010)" style="stroke:#000000; stroke-linecap:round; stroke-linejoin:round; stroke-width:4; stroke-opacity:1; fill:none" points="2293.23,1423.18 2293.23,1404.28 "/>
<path clip-path="url(#clip010)" d="M255.618 1463.64 Q254.901 1463.22 254.044 1463.03 Q253.211 1462.83 252.192 1462.83 Q248.581 1462.83 246.637 1465.19 Q244.715 1467.52 244.715 1471.92 L244.715 1485.58 L240.433 1485.58 L240.433 1459.65 L244.715 1459.65 L244.715 1463.68 Q246.058 1461.32 248.211 1460.19 Q250.364 1459.03 253.442 1459.03 Q253.882 1459.03 254.414 1459.1 Q254.947 1459.14 255.595 1459.26 L255.618 1463.64 Z" fill="#000000" fill-rule="nonzero" fill-opacity="1" /><path clip-path="url(#clip010)" d="M271.868 1472.55 Q266.706 1472.55 264.715 1473.73 Q262.725 1474.91 262.725 1477.76 Q262.725 1480.02 264.206 1481.37 Q265.711 1482.69 268.28 1482.69 Q271.822 1482.69 273.951 1480.19 Q276.104 1477.66 276.104 1473.5 L276.104 1472.55 L271.868 1472.55 M280.363 1470.79 L280.363 1485.58 L276.104 1485.58 L276.104 1481.64 Q274.646 1484.01 272.47 1485.14 Q270.294 1486.25 267.146 1486.25 Q263.164 1486.25 260.803 1484.03 Q258.465 1481.78 258.465 1478.03 Q258.465 1473.66 261.382 1471.44 Q264.322 1469.21 270.132 1469.21 L276.104 1469.21 L276.104 1468.8 Q276.104 1465.86 274.16 1464.26 Q272.238 1462.64 268.743 1462.64 Q266.521 1462.64 264.414 1463.17 Q262.308 1463.7 260.364 1464.77 L260.364 1460.83 Q262.701 1459.93 264.901 1459.49 Q267.1 1459.03 269.183 1459.03 Q274.808 1459.03 277.586 1461.95 Q280.363 1464.86 280.363 1470.79 Z" fill="#000000" fill-rule="nonzero" fill-opacity="1" /><path clip-path="url(#clip010)" d="M293.349 1452.29 L293.349 1459.65 L302.123 1459.65 L302.123 1462.96 L293.349 1462.96 L293.349 1477.04 Q293.349 1480.21 294.206 1481.11 Q295.086 1482.02 297.748 1482.02 L302.123 1482.02 L302.123 1485.58 L297.748 1485.58 Q292.817 1485.58 290.942 1483.75 Q289.067 1481.9 289.067 1477.04 L289.067 1462.96 L285.942 1462.96 L285.942 1459.65 L289.067 1459.65 L289.067 1452.29 L293.349 1452.29 Z" fill="#000000" fill-rule="nonzero" fill-opacity="1" /><path clip-path="url(#clip010)" d="M329.9 1471.55 L329.9 1473.64 L310.317 1473.64 Q310.595 1478.03 312.956 1480.35 Q315.34 1482.64 319.576 1482.64 Q322.03 1482.64 324.322 1482.04 Q326.636 1481.44 328.905 1480.23 L328.905 1484.26 Q326.613 1485.23 324.206 1485.74 Q321.798 1486.25 319.322 1486.25 Q313.118 1486.25 309.484 1482.64 Q305.873 1479.03 305.873 1472.87 Q305.873 1466.51 309.298 1462.78 Q312.747 1459.03 318.581 1459.03 Q323.812 1459.03 326.845 1462.41 Q329.9 1465.77 329.9 1471.55 M325.641 1470.3 Q325.595 1466.81 323.673 1464.72 Q321.775 1462.64 318.627 1462.64 Q315.062 1462.64 312.91 1464.65 Q310.78 1466.67 310.456 1470.33 L325.641 1470.3 Z" fill="#000000" fill-rule="nonzero" fill-opacity="1" /><path clip-path="url(#clip010)" d="M351.914 1463.64 Q351.196 1463.22 350.34 1463.03 Q349.507 1462.83 348.488 1462.83 Q344.877 1462.83 342.933 1465.19 Q341.011 1467.52 341.011 1471.92 L341.011 1485.58 L336.729 1485.58 L336.729 1459.65 L341.011 1459.65 L341.011 1463.68 Q342.354 1461.32 344.507 1460.19 Q346.659 1459.03 349.738 1459.03 Q350.178 1459.03 350.71 1459.1 Q351.243 1459.14 351.891 1459.26 L351.914 1463.64 Z" fill="#000000" fill-rule="nonzero" fill-opacity="1" /><path clip-path="url(#clip010)" d="M357.794 1481.64 L365.432 1481.64 L365.432 1455.28 L357.122 1456.95 L357.122 1452.69 L365.386 1451.02 L370.062 1451.02 L370.062 1481.64 L377.701 1481.64 L377.701 1485.58 L357.794 1485.58 L357.794 1481.64 Z" fill="#000000" fill-rule="nonzero" fill-opacity="1" /><path clip-path="url(#clip010)" d="M539.255 1463.64 Q538.538 1463.22 537.681 1463.03 Q536.848 1462.83 535.829 1462.83 Q532.218 1462.83 530.274 1465.19 Q528.353 1467.52 528.353 1471.92 L528.353 1485.58 L524.07 1485.58 L524.07 1459.65 L528.353 1459.65 L528.353 1463.68 Q529.695 1461.32 531.848 1460.19 Q534.001 1459.03 537.079 1459.03 Q537.519 1459.03 538.052 1459.1 Q538.584 1459.14 539.232 1459.26 L539.255 1463.64 Z" fill="#000000" fill-rule="nonzero" fill-opacity="1" /><path clip-path="url(#clip010)" d="M555.505 1472.55 Q550.343 1472.55 548.353 1473.73 Q546.362 1474.91 546.362 1477.76 Q546.362 1480.02 547.843 1481.37 Q549.348 1482.69 551.917 1482.69 Q555.459 1482.69 557.589 1480.19 Q559.741 1477.66 559.741 1473.5 L559.741 1472.55 L555.505 1472.55 M564.001 1470.79 L564.001 1485.58 L559.741 1485.58 L559.741 1481.64 Q558.283 1484.01 556.107 1485.14 Q553.931 1486.25 550.783 1486.25 Q546.802 1486.25 544.441 1484.03 Q542.103 1481.78 542.103 1478.03 Q542.103 1473.66 545.019 1471.44 Q547.959 1469.21 553.769 1469.21 L559.741 1469.21 L559.741 1468.8 Q559.741 1465.86 557.797 1464.26 Q555.876 1462.64 552.38 1462.64 Q550.158 1462.64 548.052 1463.17 Q545.945 1463.7 544.001 1464.77 L544.001 1460.83 Q546.339 1459.93 548.538 1459.49 Q550.737 1459.03 552.82 1459.03 Q558.445 1459.03 561.223 1461.95 Q564.001 1464.86 564.001 1470.79 Z" fill="#000000" fill-rule="nonzero" fill-opacity="1" /><path clip-path="url(#clip010)" d="M576.987 1452.29 L576.987 1459.65 L585.76 1459.65 L585.76 1462.96 L576.987 1462.96 L576.987 1477.04 Q576.987 1480.21 577.843 1481.11 Q578.723 1482.02 581.385 1482.02 L585.76 1482.02 L585.76 1485.58 L581.385 1485.58 Q576.454 1485.58 574.579 1483.75 Q572.704 1481.9 572.704 1477.04 L572.704 1462.96 L569.579 1462.96 L569.579 1459.65 L572.704 1459.65 L572.704 1452.29 L576.987 1452.29 Z" fill="#000000" fill-rule="nonzero" fill-opacity="1" /><path clip-path="url(#clip010)" d="M613.537 1471.55 L613.537 1473.64 L593.954 1473.64 Q594.232 1478.03 596.593 1480.35 Q598.977 1482.64 603.213 1482.64 Q605.667 1482.64 607.959 1482.04 Q610.273 1481.44 612.542 1480.23 L612.542 1484.26 Q610.25 1485.23 607.843 1485.74 Q605.436 1486.25 602.959 1486.25 Q596.755 1486.25 593.121 1482.64 Q589.51 1479.03 589.51 1472.87 Q589.51 1466.51 592.936 1462.78 Q596.385 1459.03 602.218 1459.03 Q607.449 1459.03 610.482 1462.41 Q613.537 1465.77 613.537 1471.55 M609.278 1470.3 Q609.232 1466.81 607.311 1464.72 Q605.412 1462.64 602.264 1462.64 Q598.699 1462.64 596.547 1464.65 Q594.417 1466.67 594.093 1470.33 L609.278 1470.3 Z" fill="#000000" fill-rule="nonzero" fill-opacity="1" /><path clip-path="url(#clip010)" d="M635.551 1463.64 Q634.834 1463.22 633.977 1463.03 Q633.144 1462.83 632.125 1462.83 Q628.514 1462.83 626.57 1465.19 Q624.648 1467.52 624.648 1471.92 L624.648 1485.58 L620.366 1485.58 L620.366 1459.65 L624.648 1459.65 L624.648 1463.68 Q625.991 1461.32 628.144 1460.19 Q630.297 1459.03 633.375 1459.03 Q633.815 1459.03 634.347 1459.1 Q634.88 1459.14 635.528 1459.26 L635.551 1463.64 Z" fill="#000000" fill-rule="nonzero" fill-opacity="1" /><path clip-path="url(#clip010)" d="M644.648 1481.64 L660.968 1481.64 L660.968 1485.58 L639.023 1485.58 L639.023 1481.64 Q641.685 1478.89 646.269 1474.26 Q650.875 1469.61 652.056 1468.27 Q654.301 1465.74 655.181 1464.01 Q656.083 1462.25 656.083 1460.56 Q656.083 1457.8 654.139 1456.07 Q652.218 1454.33 649.116 1454.33 Q646.917 1454.33 644.463 1455.09 Q642.033 1455.86 639.255 1457.41 L639.255 1452.69 Q642.079 1451.55 644.533 1450.97 Q646.986 1450.39 649.023 1450.39 Q654.394 1450.39 657.588 1453.08 Q660.782 1455.77 660.782 1460.26 Q660.782 1462.39 659.972 1464.31 Q659.185 1466.2 657.079 1468.8 Q656.5 1469.47 653.398 1472.69 Q650.296 1475.88 644.648 1481.64 Z" fill="#000000" fill-rule="nonzero" fill-opacity="1" /><path clip-path="url(#clip010)" d="M822.233 1463.64 Q821.515 1463.22 820.659 1463.03 Q819.825 1462.83 818.807 1462.83 Q815.196 1462.83 813.251 1465.19 Q811.33 1467.52 811.33 1471.92 L811.33 1485.58 L807.048 1485.58 L807.048 1459.65 L811.33 1459.65 L811.33 1463.68 Q812.673 1461.32 814.825 1460.19 Q816.978 1459.03 820.057 1459.03 Q820.497 1459.03 821.029 1459.1 Q821.562 1459.14 822.21 1459.26 L822.233 1463.64 Z" fill="#000000" fill-rule="nonzero" fill-opacity="1" /><path clip-path="url(#clip010)" d="M838.483 1472.55 Q833.321 1472.55 831.33 1473.73 Q829.339 1474.91 829.339 1477.76 Q829.339 1480.02 830.821 1481.37 Q832.325 1482.69 834.895 1482.69 Q838.436 1482.69 840.566 1480.19 Q842.719 1477.66 842.719 1473.5 L842.719 1472.55 L838.483 1472.55 M846.978 1470.79 L846.978 1485.58 L842.719 1485.58 L842.719 1481.64 Q841.261 1484.01 839.085 1485.14 Q836.909 1486.25 833.761 1486.25 Q829.779 1486.25 827.418 1484.03 Q825.08 1481.78 825.08 1478.03 Q825.08 1473.66 827.997 1471.44 Q830.936 1469.21 836.747 1469.21 L842.719 1469.21 L842.719 1468.8 Q842.719 1465.86 840.774 1464.26 Q838.853 1462.64 835.358 1462.64 Q833.136 1462.64 831.029 1463.17 Q828.923 1463.7 826.978 1464.77 L826.978 1460.83 Q829.316 1459.93 831.515 1459.49 Q833.714 1459.03 835.798 1459.03 Q841.423 1459.03 844.2 1461.95 Q846.978 1464.86 846.978 1470.79 Z" fill="#000000" fill-rule="nonzero" fill-opacity="1" /><path clip-path="url(#clip010)" d="M859.964 1452.29 L859.964 1459.65 L868.737 1459.65 L868.737 1462.96 L859.964 1462.96 L859.964 1477.04 Q859.964 1480.21 860.821 1481.11 Q861.7 1482.02 864.362 1482.02 L868.737 1482.02 L868.737 1485.58 L864.362 1485.58 Q859.432 1485.58 857.557 1483.75 Q855.682 1481.9 855.682 1477.04 L855.682 1462.96 L852.557 1462.96 L852.557 1459.65 L855.682 1459.65 L855.682 1452.29 L859.964 1452.29 Z" fill="#000000" fill-rule="nonzero" fill-opacity="1" /><path clip-path="url(#clip010)" d="M896.515 1471.55 L896.515 1473.64 L876.932 1473.64 Q877.209 1478.03 879.57 1480.35 Q881.955 1482.64 886.191 1482.64 Q888.645 1482.64 890.936 1482.04 Q893.251 1481.44 895.519 1480.23 L895.519 1484.26 Q893.228 1485.23 890.82 1485.74 Q888.413 1486.25 885.936 1486.25 Q879.733 1486.25 876.098 1482.64 Q872.487 1479.03 872.487 1472.87 Q872.487 1466.51 875.913 1462.78 Q879.362 1459.03 885.195 1459.03 Q890.427 1459.03 893.459 1462.41 Q896.515 1465.77 896.515 1471.55 M892.256 1470.3 Q892.209 1466.81 890.288 1464.72 Q888.39 1462.64 885.242 1462.64 Q881.677 1462.64 879.524 1464.65 Q877.395 1466.67 877.07 1470.33 L892.256 1470.3 Z" fill="#000000" fill-rule="nonzero" fill-opacity="1" /><path clip-path="url(#clip010)" d="M918.529 1463.64 Q917.811 1463.22 916.955 1463.03 Q916.121 1462.83 915.103 1462.83 Q911.492 1462.83 909.547 1465.19 Q907.626 1467.52 907.626 1471.92 L907.626 1485.58 L903.344 1485.58 L903.344 1459.65 L907.626 1459.65 L907.626 1463.68 Q908.968 1461.32 911.121 1460.19 Q913.274 1459.03 916.353 1459.03 Q916.793 1459.03 917.325 1459.1 Q917.857 1459.14 918.505 1459.26 L918.529 1463.64 Z" fill="#000000" fill-rule="nonzero" fill-opacity="1" /><path clip-path="url(#clip010)" d="M937.765 1466.95 Q941.121 1467.66 942.996 1469.93 Q944.894 1472.2 944.894 1475.53 Q944.894 1480.65 941.376 1483.45 Q937.857 1486.25 931.376 1486.25 Q929.2 1486.25 926.885 1485.81 Q924.593 1485.39 922.14 1484.54 L922.14 1480.02 Q924.084 1481.16 926.399 1481.74 Q928.714 1482.32 931.237 1482.32 Q935.635 1482.32 937.927 1480.58 Q940.241 1478.84 940.241 1475.53 Q940.241 1472.48 938.089 1470.77 Q935.959 1469.03 932.14 1469.03 L928.112 1469.03 L928.112 1465.19 L932.325 1465.19 Q935.774 1465.19 937.603 1463.82 Q939.431 1462.43 939.431 1459.84 Q939.431 1457.18 937.533 1455.77 Q935.658 1454.33 932.14 1454.33 Q930.218 1454.33 928.019 1454.75 Q925.82 1455.16 923.181 1456.04 L923.181 1451.88 Q925.843 1451.14 928.158 1450.77 Q930.496 1450.39 932.556 1450.39 Q937.88 1450.39 940.982 1452.83 Q944.084 1455.23 944.084 1459.35 Q944.084 1462.22 942.441 1464.21 Q940.797 1466.18 937.765 1466.95 Z" fill="#000000" fill-rule="nonzero" fill-opacity="1" /><path clip-path="url(#clip010)" d="M1105.12 1463.64 Q1104.4 1463.22 1103.54 1463.03 Q1102.71 1462.83 1101.69 1462.83 Q1098.08 1462.83 1096.14 1465.19 Q1094.21 1467.52 1094.21 1471.92 L1094.21 1485.58 L1089.93 1485.58 L1089.93 1459.65 L1094.21 1459.65 L1094.21 1463.68 Q1095.56 1461.32 1097.71 1460.19 Q1099.86 1459.03 1102.94 1459.03 Q1103.38 1459.03 1103.91 1459.1 Q1104.45 1459.14 1105.09 1459.26 L1105.12 1463.64 Z" fill="#000000" fill-rule="nonzero" fill-opacity="1" /><path clip-path="url(#clip010)" d="M1121.37 1472.55 Q1116.21 1472.55 1114.21 1473.73 Q1112.22 1474.91 1112.22 1477.76 Q1112.22 1480.02 1113.71 1481.37 Q1115.21 1482.69 1117.78 1482.69 Q1121.32 1482.69 1123.45 1480.19 Q1125.6 1477.66 1125.6 1473.5 L1125.6 1472.55 L1121.37 1472.55 M1129.86 1470.79 L1129.86 1485.58 L1125.6 1485.58 L1125.6 1481.64 Q1124.15 1484.01 1121.97 1485.14 Q1119.79 1486.25 1116.65 1486.25 Q1112.66 1486.25 1110.3 1484.03 Q1107.96 1481.78 1107.96 1478.03 Q1107.96 1473.66 1110.88 1471.44 Q1113.82 1469.21 1119.63 1469.21 L1125.6 1469.21 L1125.6 1468.8 Q1125.6 1465.86 1123.66 1464.26 Q1121.74 1462.64 1118.24 1462.64 Q1116.02 1462.64 1113.91 1463.17 Q1111.81 1463.7 1109.86 1464.77 L1109.86 1460.83 Q1112.2 1459.93 1114.4 1459.49 Q1116.6 1459.03 1118.68 1459.03 Q1124.31 1459.03 1127.09 1461.95 Q1129.86 1464.86 1129.86 1470.79 Z" fill="#000000" fill-rule="nonzero" fill-opacity="1" /><path clip-path="url(#clip010)" d="M1142.85 1452.29 L1142.85 1459.65 L1151.62 1459.65 L1151.62 1462.96 L1142.85 1462.96 L1142.85 1477.04 Q1142.85 1480.21 1143.71 1481.11 Q1144.59 1482.02 1147.25 1482.02 L1151.62 1482.02 L1151.62 1485.58 L1147.25 1485.58 Q1142.32 1485.58 1140.44 1483.75 Q1138.57 1481.9 1138.57 1477.04 L1138.57 1462.96 L1135.44 1462.96 L1135.44 1459.65 L1138.57 1459.65 L1138.57 1452.29 L1142.85 1452.29 Z" fill="#000000" fill-rule="nonzero" fill-opacity="1" /><path clip-path="url(#clip010)" d="M1179.4 1471.55 L1179.4 1473.64 L1159.82 1473.64 Q1160.09 1478.03 1162.46 1480.35 Q1164.84 1482.64 1169.08 1482.64 Q1171.53 1482.64 1173.82 1482.04 Q1176.14 1481.44 1178.4 1480.23 L1178.4 1484.26 Q1176.11 1485.23 1173.71 1485.74 Q1171.3 1486.25 1168.82 1486.25 Q1162.62 1486.25 1158.98 1482.64 Q1155.37 1479.03 1155.37 1472.87 Q1155.37 1466.51 1158.8 1462.78 Q1162.25 1459.03 1168.08 1459.03 Q1173.31 1459.03 1176.34 1462.41 Q1179.4 1465.77 1179.4 1471.55 M1175.14 1470.3 Q1175.09 1466.81 1173.17 1464.72 Q1171.27 1462.64 1168.13 1462.64 Q1164.56 1462.64 1162.41 1464.65 Q1160.28 1466.67 1159.96 1470.33 L1175.14 1470.3 Z" fill="#000000" fill-rule="nonzero" fill-opacity="1" /><path clip-path="url(#clip010)" d="M1201.41 1463.64 Q1200.7 1463.22 1199.84 1463.03 Q1199.01 1462.83 1197.99 1462.83 Q1194.38 1462.83 1192.43 1465.19 Q1190.51 1467.52 1190.51 1471.92 L1190.51 1485.58 L1186.23 1485.58 L1186.23 1459.65 L1190.51 1459.65 L1190.51 1463.68 Q1191.85 1461.32 1194.01 1460.19 Q1196.16 1459.03 1199.24 1459.03 Q1199.68 1459.03 1200.21 1459.1 Q1200.74 1459.14 1201.39 1459.26 L1201.41 1463.64 Z" fill="#000000" fill-rule="nonzero" fill-opacity="1" /><path clip-path="url(#clip010)" d="M1219.33 1455.09 L1207.52 1473.54 L1219.33 1473.54 L1219.33 1455.09 M1218.1 1451.02 L1223.98 1451.02 L1223.98 1473.54 L1228.91 1473.54 L1228.91 1477.43 L1223.98 1477.43 L1223.98 1485.58 L1219.33 1485.58 L1219.33 1477.43 L1203.73 1477.43 L1203.73 1472.92 L1218.1 1451.02 Z" fill="#000000" fill-rule="nonzero" fill-opacity="1" /><path clip-path="url(#clip010)" d="M1389.31 1463.64 Q1388.59 1463.22 1387.74 1463.03 Q1386.9 1462.83 1385.88 1462.83 Q1382.27 1462.83 1380.33 1465.19 Q1378.41 1467.52 1378.41 1471.92 L1378.41 1485.58 L1374.13 1485.58 L1374.13 1459.65 L1378.41 1459.65 L1378.41 1463.68 Q1379.75 1461.32 1381.9 1460.19 Q1384.06 1459.03 1387.13 1459.03 Q1387.57 1459.03 1388.11 1459.1 Q1388.64 1459.14 1389.29 1459.26 L1389.31 1463.64 Z" fill="#000000" fill-rule="nonzero" fill-opacity="1" /><path clip-path="url(#clip010)" d="M1405.56 1472.55 Q1400.4 1472.55 1398.41 1473.73 Q1396.42 1474.91 1396.42 1477.76 Q1396.42 1480.02 1397.9 1481.37 Q1399.4 1482.69 1401.97 1482.69 Q1405.51 1482.69 1407.64 1480.19 Q1409.8 1477.66 1409.8 1473.5 L1409.8 1472.55 L1405.56 1472.55 M1414.06 1470.79 L1414.06 1485.58 L1409.8 1485.58 L1409.8 1481.64 Q1408.34 1484.01 1406.16 1485.14 Q1403.99 1486.25 1400.84 1486.25 Q1396.86 1486.25 1394.5 1484.03 Q1392.16 1481.78 1392.16 1478.03 Q1392.16 1473.66 1395.07 1471.44 Q1398.01 1469.21 1403.82 1469.21 L1409.8 1469.21 L1409.8 1468.8 Q1409.8 1465.86 1407.85 1464.26 Q1405.93 1462.64 1402.44 1462.64 Q1400.21 1462.64 1398.11 1463.17 Q1396 1463.7 1394.06 1464.77 L1394.06 1460.83 Q1396.39 1459.93 1398.59 1459.49 Q1400.79 1459.03 1402.88 1459.03 Q1408.5 1459.03 1411.28 1461.95 Q1414.06 1464.86 1414.06 1470.79 Z" fill="#000000" fill-rule="nonzero" fill-opacity="1" /><path clip-path="url(#clip010)" d="M1427.04 1452.29 L1427.04 1459.65 L1435.81 1459.65 L1435.81 1462.96 L1427.04 1462.96 L1427.04 1477.04 Q1427.04 1480.21 1427.9 1481.11 Q1428.78 1482.02 1431.44 1482.02 L1435.81 1482.02 L1435.81 1485.58 L1431.44 1485.58 Q1426.51 1485.58 1424.63 1483.75 Q1422.76 1481.9 1422.76 1477.04 L1422.76 1462.96 L1419.63 1462.96 L1419.63 1459.65 L1422.76 1459.65 L1422.76 1452.29 L1427.04 1452.29 Z" fill="#000000" fill-rule="nonzero" fill-opacity="1" /><path clip-path="url(#clip010)" d="M1463.59 1471.55 L1463.59 1473.64 L1444.01 1473.64 Q1444.29 1478.03 1446.65 1480.35 Q1449.03 1482.64 1453.27 1482.64 Q1455.72 1482.64 1458.01 1482.04 Q1460.33 1481.44 1462.6 1480.23 L1462.6 1484.26 Q1460.31 1485.23 1457.9 1485.74 Q1455.49 1486.25 1453.01 1486.25 Q1446.81 1486.25 1443.18 1482.64 Q1439.56 1479.03 1439.56 1472.87 Q1439.56 1466.51 1442.99 1462.78 Q1446.44 1459.03 1452.27 1459.03 Q1457.5 1459.03 1460.54 1462.41 Q1463.59 1465.77 1463.59 1471.55 M1459.33 1470.3 Q1459.29 1466.81 1457.37 1464.72 Q1455.47 1462.64 1452.32 1462.64 Q1448.75 1462.64 1446.6 1464.65 Q1444.47 1466.67 1444.15 1470.33 L1459.33 1470.3 Z" fill="#000000" fill-rule="nonzero" fill-opacity="1" /><path clip-path="url(#clip010)" d="M1485.61 1463.64 Q1484.89 1463.22 1484.03 1463.03 Q1483.2 1462.83 1482.18 1462.83 Q1478.57 1462.83 1476.62 1465.19 Q1474.7 1467.52 1474.7 1471.92 L1474.7 1485.58 L1470.42 1485.58 L1470.42 1459.65 L1474.7 1459.65 L1474.7 1463.68 Q1476.05 1461.32 1478.2 1460.19 Q1480.35 1459.03 1483.43 1459.03 Q1483.87 1459.03 1484.4 1459.1 Q1484.93 1459.14 1485.58 1459.26 L1485.61 1463.64 Z" fill="#000000" fill-rule="nonzero" fill-opacity="1" /><path clip-path="url(#clip010)" d="M1490.72 1451.02 L1509.08 1451.02 L1509.08 1454.96 L1495 1454.96 L1495 1463.43 Q1496.02 1463.08 1497.04 1462.92 Q1498.06 1462.73 1499.08 1462.73 Q1504.87 1462.73 1508.24 1465.9 Q1511.62 1469.08 1511.62 1474.49 Q1511.62 1480.07 1508.15 1483.17 Q1504.68 1486.25 1498.36 1486.25 Q1496.18 1486.25 1493.92 1485.88 Q1491.67 1485.51 1489.26 1484.77 L1489.26 1480.07 Q1491.35 1481.2 1493.57 1481.76 Q1495.79 1482.32 1498.27 1482.32 Q1502.27 1482.32 1504.61 1480.21 Q1506.95 1478.1 1506.95 1474.49 Q1506.95 1470.88 1504.61 1468.77 Q1502.27 1466.67 1498.27 1466.67 Q1496.39 1466.67 1494.52 1467.08 Q1492.67 1467.5 1490.72 1468.38 L1490.72 1451.02 Z" fill="#000000" fill-rule="nonzero" fill-opacity="1" /><path clip-path="url(#clip010)" d="M1672.18 1463.64 Q1671.47 1463.22 1670.61 1463.03 Q1669.78 1462.83 1668.76 1462.83 Q1665.15 1462.83 1663.2 1465.19 Q1661.28 1467.52 1661.28 1471.92 L1661.28 1485.58 L1657 1485.58 L1657 1459.65 L1661.28 1459.65 L1661.28 1463.68 Q1662.62 1461.32 1664.78 1460.19 Q1666.93 1459.03 1670.01 1459.03 Q1670.45 1459.03 1670.98 1459.1 Q1671.51 1459.14 1672.16 1459.26 L1672.18 1463.64 Z" fill="#000000" fill-rule="nonzero" fill-opacity="1" /><path clip-path="url(#clip010)" d="M1688.43 1472.55 Q1683.27 1472.55 1681.28 1473.73 Q1679.29 1474.91 1679.29 1477.76 Q1679.29 1480.02 1680.77 1481.37 Q1682.28 1482.69 1684.85 1482.69 Q1688.39 1482.69 1690.52 1480.19 Q1692.67 1477.66 1692.67 1473.5 L1692.67 1472.55 L1688.43 1472.55 M1696.93 1470.79 L1696.93 1485.58 L1692.67 1485.58 L1692.67 1481.64 Q1691.21 1484.01 1689.04 1485.14 Q1686.86 1486.25 1683.71 1486.25 Q1679.73 1486.25 1677.37 1484.03 Q1675.03 1481.78 1675.03 1478.03 Q1675.03 1473.66 1677.95 1471.44 Q1680.89 1469.21 1686.7 1469.21 L1692.67 1469.21 L1692.67 1468.8 Q1692.67 1465.86 1690.73 1464.26 Q1688.8 1462.64 1685.31 1462.64 Q1683.09 1462.64 1680.98 1463.17 Q1678.87 1463.7 1676.93 1464.77 L1676.93 1460.83 Q1679.27 1459.93 1681.47 1459.49 Q1683.67 1459.03 1685.75 1459.03 Q1691.37 1459.03 1694.15 1461.95 Q1696.93 1464.86 1696.93 1470.79 Z" fill="#000000" fill-rule="nonzero" fill-opacity="1" /><path clip-path="url(#clip010)" d="M1709.92 1452.29 L1709.92 1459.65 L1718.69 1459.65 L1718.69 1462.96 L1709.92 1462.96 L1709.92 1477.04 Q1709.92 1480.21 1710.77 1481.11 Q1711.65 1482.02 1714.31 1482.02 L1718.69 1482.02 L1718.69 1485.58 L1714.31 1485.58 Q1709.38 1485.58 1707.51 1483.75 Q1705.63 1481.9 1705.63 1477.04 L1705.63 1462.96 L1702.51 1462.96 L1702.51 1459.65 L1705.63 1459.65 L1705.63 1452.29 L1709.92 1452.29 Z" fill="#000000" fill-rule="nonzero" fill-opacity="1" /><path clip-path="url(#clip010)" d="M1746.47 1471.55 L1746.47 1473.64 L1726.88 1473.64 Q1727.16 1478.03 1729.52 1480.35 Q1731.91 1482.64 1736.14 1482.64 Q1738.6 1482.64 1740.89 1482.04 Q1743.2 1481.44 1745.47 1480.23 L1745.47 1484.26 Q1743.18 1485.23 1740.77 1485.74 Q1738.36 1486.25 1735.89 1486.25 Q1729.68 1486.25 1726.05 1482.64 Q1722.44 1479.03 1722.44 1472.87 Q1722.44 1466.51 1725.86 1462.78 Q1729.31 1459.03 1735.15 1459.03 Q1740.38 1459.03 1743.41 1462.41 Q1746.47 1465.77 1746.47 1471.55 M1742.21 1470.3 Q1742.16 1466.81 1740.24 1464.72 Q1738.34 1462.64 1735.19 1462.64 Q1731.63 1462.64 1729.48 1464.65 Q1727.35 1466.67 1727.02 1470.33 L1742.21 1470.3 Z" fill="#000000" fill-rule="nonzero" fill-opacity="1" /><path clip-path="url(#clip010)" d="M1768.48 1463.64 Q1767.76 1463.22 1766.91 1463.03 Q1766.07 1462.83 1765.05 1462.83 Q1761.44 1462.83 1759.5 1465.19 Q1757.58 1467.52 1757.58 1471.92 L1757.58 1485.58 L1753.29 1485.58 L1753.29 1459.65 L1757.58 1459.65 L1757.58 1463.68 Q1758.92 1461.32 1761.07 1460.19 Q1763.22 1459.03 1766.3 1459.03 Q1766.74 1459.03 1767.28 1459.1 Q1767.81 1459.14 1768.46 1459.26 L1768.48 1463.64 Z" fill="#000000" fill-rule="nonzero" fill-opacity="1" /><path clip-path="url(#clip010)" d="M1784.13 1466.44 Q1780.98 1466.44 1779.13 1468.59 Q1777.3 1470.74 1777.3 1474.49 Q1777.3 1478.22 1779.13 1480.39 Q1780.98 1482.55 1784.13 1482.55 Q1787.28 1482.55 1789.1 1480.39 Q1790.96 1478.22 1790.96 1474.49 Q1790.96 1470.74 1789.1 1468.59 Q1787.28 1466.44 1784.13 1466.44 M1793.41 1451.78 L1793.41 1456.04 Q1791.65 1455.21 1789.85 1454.77 Q1788.06 1454.33 1786.3 1454.33 Q1781.67 1454.33 1779.22 1457.45 Q1776.79 1460.58 1776.44 1466.9 Q1777.81 1464.89 1779.87 1463.82 Q1781.93 1462.73 1784.41 1462.73 Q1789.61 1462.73 1792.62 1465.9 Q1795.66 1469.05 1795.66 1474.49 Q1795.66 1479.82 1792.51 1483.03 Q1789.36 1486.25 1784.13 1486.25 Q1778.13 1486.25 1774.96 1481.67 Q1771.79 1477.06 1771.79 1468.33 Q1771.79 1460.14 1775.68 1455.28 Q1779.57 1450.39 1786.12 1450.39 Q1787.88 1450.39 1789.66 1450.74 Q1791.47 1451.09 1793.41 1451.78 Z" fill="#000000" fill-rule="nonzero" fill-opacity="1" /><path clip-path="url(#clip010)" d="M1956.17 1463.64 Q1955.45 1463.22 1954.59 1463.03 Q1953.76 1462.83 1952.74 1462.83 Q1949.13 1462.83 1947.19 1465.19 Q1945.27 1467.52 1945.27 1471.92 L1945.27 1485.58 L1940.98 1485.58 L1940.98 1459.65 L1945.27 1459.65 L1945.27 1463.68 Q1946.61 1461.32 1948.76 1460.19 Q1950.91 1459.03 1953.99 1459.03 Q1954.43 1459.03 1954.96 1459.1 Q1955.5 1459.14 1956.15 1459.26 L1956.17 1463.64 Z" fill="#000000" fill-rule="nonzero" fill-opacity="1" /><path clip-path="url(#clip010)" d="M1972.42 1472.55 Q1967.26 1472.55 1965.27 1473.73 Q1963.27 1474.91 1963.27 1477.76 Q1963.27 1480.02 1964.76 1481.37 Q1966.26 1482.69 1968.83 1482.69 Q1972.37 1482.69 1974.5 1480.19 Q1976.65 1477.66 1976.65 1473.5 L1976.65 1472.55 L1972.42 1472.55 M1980.91 1470.79 L1980.91 1485.58 L1976.65 1485.58 L1976.65 1481.64 Q1975.2 1484.01 1973.02 1485.14 Q1970.84 1486.25 1967.7 1486.25 Q1963.71 1486.25 1961.35 1484.03 Q1959.02 1481.78 1959.02 1478.03 Q1959.02 1473.66 1961.93 1471.44 Q1964.87 1469.21 1970.68 1469.21 L1976.65 1469.21 L1976.65 1468.8 Q1976.65 1465.86 1974.71 1464.26 Q1972.79 1462.64 1969.29 1462.64 Q1967.07 1462.64 1964.96 1463.17 Q1962.86 1463.7 1960.91 1464.77 L1960.91 1460.83 Q1963.25 1459.93 1965.45 1459.49 Q1967.65 1459.03 1969.73 1459.03 Q1975.36 1459.03 1978.14 1461.95 Q1980.91 1464.86 1980.91 1470.79 Z" fill="#000000" fill-rule="nonzero" fill-opacity="1" /><path clip-path="url(#clip010)" d="M1993.9 1452.29 L1993.9 1459.65 L2002.67 1459.65 L2002.67 1462.96 L1993.9 1462.96 L1993.9 1477.04 Q1993.9 1480.21 1994.76 1481.11 Q1995.64 1482.02 1998.3 1482.02 L2002.67 1482.02 L2002.67 1485.58 L1998.3 1485.58 Q1993.37 1485.58 1991.49 1483.75 Q1989.62 1481.9 1989.62 1477.04 L1989.62 1462.96 L1986.49 1462.96 L1986.49 1459.65 L1989.62 1459.65 L1989.62 1452.29 L1993.9 1452.29 Z" fill="#000000" fill-rule="nonzero" fill-opacity="1" /><path clip-path="url(#clip010)" d="M2030.45 1471.55 L2030.45 1473.64 L2010.87 1473.64 Q2011.14 1478.03 2013.51 1480.35 Q2015.89 1482.64 2020.13 1482.64 Q2022.58 1482.64 2024.87 1482.04 Q2027.19 1481.44 2029.45 1480.23 L2029.45 1484.26 Q2027.16 1485.23 2024.76 1485.74 Q2022.35 1486.25 2019.87 1486.25 Q2013.67 1486.25 2010.03 1482.64 Q2006.42 1479.03 2006.42 1472.87 Q2006.42 1466.51 2009.85 1462.78 Q2013.3 1459.03 2019.13 1459.03 Q2024.36 1459.03 2027.39 1462.41 Q2030.45 1465.77 2030.45 1471.55 M2026.19 1470.3 Q2026.14 1466.81 2024.22 1464.72 Q2022.33 1462.64 2019.18 1462.64 Q2015.61 1462.64 2013.46 1464.65 Q2011.33 1466.67 2011.01 1470.33 L2026.19 1470.3 Z" fill="#000000" fill-rule="nonzero" fill-opacity="1" /><path clip-path="url(#clip010)" d="M2052.46 1463.64 Q2051.75 1463.22 2050.89 1463.03 Q2050.06 1462.83 2049.04 1462.83 Q2045.43 1462.83 2043.48 1465.19 Q2041.56 1467.52 2041.56 1471.92 L2041.56 1485.58 L2037.28 1485.58 L2037.28 1459.65 L2041.56 1459.65 L2041.56 1463.68 Q2042.9 1461.32 2045.06 1460.19 Q2047.21 1459.03 2050.29 1459.03 Q2050.73 1459.03 2051.26 1459.1 Q2051.79 1459.14 2052.44 1459.26 L2052.46 1463.64 Z" fill="#000000" fill-rule="nonzero" fill-opacity="1" /><path clip-path="url(#clip010)" d="M2056.35 1451.02 L2078.57 1451.02 L2078.57 1453.01 L2066.03 1485.58 L2061.14 1485.58 L2072.95 1454.96 L2056.35 1454.96 L2056.35 1451.02 Z" fill="#000000" fill-rule="nonzero" fill-opacity="1" /><path clip-path="url(#clip010)" d="M2239.22 1463.64 Q2238.5 1463.22 2237.64 1463.03 Q2236.81 1462.83 2235.79 1462.83 Q2232.18 1462.83 2230.23 1465.19 Q2228.31 1467.52 2228.31 1471.92 L2228.31 1485.58 L2224.03 1485.58 L2224.03 1459.65 L2228.31 1459.65 L2228.31 1463.68 Q2229.65 1461.32 2231.81 1460.19 Q2233.96 1459.03 2237.04 1459.03 Q2237.48 1459.03 2238.01 1459.1 Q2238.54 1459.14 2239.19 1459.26 L2239.22 1463.64 Z" fill="#000000" fill-rule="nonzero" fill-opacity="1" /><path clip-path="url(#clip010)" d="M2255.46 1472.55 Q2250.3 1472.55 2248.31 1473.73 Q2246.32 1474.91 2246.32 1477.76 Q2246.32 1480.02 2247.8 1481.37 Q2249.31 1482.69 2251.88 1482.69 Q2255.42 1482.69 2257.55 1480.19 Q2259.7 1477.66 2259.7 1473.5 L2259.7 1472.55 L2255.46 1472.55 M2263.96 1470.79 L2263.96 1485.58 L2259.7 1485.58 L2259.7 1481.64 Q2258.24 1484.01 2256.07 1485.14 Q2253.89 1486.25 2250.74 1486.25 Q2246.76 1486.25 2244.4 1484.03 Q2242.06 1481.78 2242.06 1478.03 Q2242.06 1473.66 2244.98 1471.44 Q2247.92 1469.21 2253.73 1469.21 L2259.7 1469.21 L2259.7 1468.8 Q2259.7 1465.86 2257.76 1464.26 Q2255.84 1462.64 2252.34 1462.64 Q2250.12 1462.64 2248.01 1463.17 Q2245.9 1463.7 2243.96 1464.77 L2243.96 1460.83 Q2246.3 1459.93 2248.5 1459.49 Q2250.7 1459.03 2252.78 1459.03 Q2258.4 1459.03 2261.18 1461.95 Q2263.96 1464.86 2263.96 1470.79 Z" fill="#000000" fill-rule="nonzero" fill-opacity="1" /><path clip-path="url(#clip010)" d="M2276.95 1452.29 L2276.95 1459.65 L2285.72 1459.65 L2285.72 1462.96 L2276.95 1462.96 L2276.95 1477.04 Q2276.95 1480.21 2277.8 1481.11 Q2278.68 1482.02 2281.34 1482.02 L2285.72 1482.02 L2285.72 1485.58 L2281.34 1485.58 Q2276.41 1485.58 2274.54 1483.75 Q2272.66 1481.9 2272.66 1477.04 L2272.66 1462.96 L2269.54 1462.96 L2269.54 1459.65 L2272.66 1459.65 L2272.66 1452.29 L2276.95 1452.29 Z" fill="#000000" fill-rule="nonzero" fill-opacity="1" /><path clip-path="url(#clip010)" d="M2313.5 1471.55 L2313.5 1473.64 L2293.91 1473.64 Q2294.19 1478.03 2296.55 1480.35 Q2298.94 1482.64 2303.17 1482.64 Q2305.63 1482.64 2307.92 1482.04 Q2310.23 1481.44 2312.5 1480.23 L2312.5 1484.26 Q2310.21 1485.23 2307.8 1485.74 Q2305.4 1486.25 2302.92 1486.25 Q2296.71 1486.25 2293.08 1482.64 Q2289.47 1479.03 2289.47 1472.87 Q2289.47 1466.51 2292.9 1462.78 Q2296.34 1459.03 2302.18 1459.03 Q2307.41 1459.03 2310.44 1462.41 Q2313.5 1465.77 2313.5 1471.55 M2309.24 1470.3 Q2309.19 1466.81 2307.27 1464.72 Q2305.37 1462.64 2302.22 1462.64 Q2298.66 1462.64 2296.51 1464.65 Q2294.38 1466.67 2294.05 1470.33 L2309.24 1470.3 Z" fill="#000000" fill-rule="nonzero" fill-opacity="1" /><path clip-path="url(#clip010)" d="M2335.51 1463.64 Q2334.79 1463.22 2333.94 1463.03 Q2333.1 1462.83 2332.08 1462.83 Q2328.47 1462.83 2326.53 1465.19 Q2324.61 1467.52 2324.61 1471.92 L2324.61 1485.58 L2320.33 1485.58 L2320.33 1459.65 L2324.61 1459.65 L2324.61 1463.68 Q2325.95 1461.32 2328.1 1460.19 Q2330.26 1459.03 2333.33 1459.03 Q2333.77 1459.03 2334.31 1459.1 Q2334.84 1459.14 2335.49 1459.26 L2335.51 1463.64 Z" fill="#000000" fill-rule="nonzero" fill-opacity="1" /><path clip-path="url(#clip010)" d="M2350.58 1469.17 Q2347.25 1469.17 2345.33 1470.95 Q2343.43 1472.73 2343.43 1475.86 Q2343.43 1478.98 2345.33 1480.77 Q2347.25 1482.55 2350.58 1482.55 Q2353.91 1482.55 2355.83 1480.77 Q2357.76 1478.96 2357.76 1475.86 Q2357.76 1472.73 2355.83 1470.95 Q2353.94 1469.17 2350.58 1469.17 M2345.9 1467.18 Q2342.9 1466.44 2341.21 1464.38 Q2339.54 1462.32 2339.54 1459.35 Q2339.54 1455.21 2342.48 1452.8 Q2345.44 1450.39 2350.58 1450.39 Q2355.74 1450.39 2358.68 1452.8 Q2361.62 1455.21 2361.62 1459.35 Q2361.62 1462.32 2359.93 1464.38 Q2358.27 1466.44 2355.28 1467.18 Q2358.66 1467.96 2360.53 1470.26 Q2362.43 1472.55 2362.43 1475.86 Q2362.43 1480.88 2359.35 1483.57 Q2356.3 1486.25 2350.58 1486.25 Q2344.86 1486.25 2341.78 1483.57 Q2338.73 1480.88 2338.73 1475.86 Q2338.73 1472.55 2340.63 1470.26 Q2342.52 1467.96 2345.9 1467.18 M2344.19 1459.79 Q2344.19 1462.48 2345.86 1463.98 Q2347.55 1465.49 2350.58 1465.49 Q2353.59 1465.49 2355.28 1463.98 Q2356.99 1462.48 2356.99 1459.79 Q2356.99 1457.11 2355.28 1455.6 Q2353.59 1454.1 2350.58 1454.1 Q2347.55 1454.1 2345.86 1455.6 Q2344.19 1457.11 2344.19 1459.79 Z" fill="#000000" fill-rule="nonzero" fill-opacity="1" /><path clip-path="url(#clip010)" d="M1245.39 1537.87 Q1244.4 1537.3 1243.22 1537.04 Q1242.08 1536.76 1240.67 1536.76 Q1235.71 1536.76 1233.04 1540 Q1230.39 1543.22 1230.39 1549.27 L1230.39 1568.04 L1224.51 1568.04 L1224.51 1532.4 L1230.39 1532.4 L1230.39 1537.93 Q1232.24 1534.69 1235.2 1533.13 Q1238.16 1531.54 1242.39 1531.54 Q1243 1531.54 1243.73 1531.63 Q1244.46 1531.7 1245.35 1531.85 L1245.39 1537.87 Z" fill="#000000" fill-rule="nonzero" fill-opacity="1" /><path clip-path="url(#clip010)" d="M1267.73 1550.12 Q1260.63 1550.12 1257.89 1551.75 Q1255.16 1553.37 1255.16 1557.29 Q1255.16 1560.4 1257.19 1562.25 Q1259.26 1564.07 1262.8 1564.07 Q1267.67 1564.07 1270.59 1560.63 Q1273.55 1557.16 1273.55 1551.43 L1273.55 1550.12 L1267.73 1550.12 M1279.41 1547.71 L1279.41 1568.04 L1273.55 1568.04 L1273.55 1562.63 Q1271.55 1565.88 1268.56 1567.44 Q1265.56 1568.97 1261.24 1568.97 Q1255.76 1568.97 1252.51 1565.91 Q1249.3 1562.82 1249.3 1557.67 Q1249.3 1551.65 1253.31 1548.6 Q1257.35 1545.54 1265.34 1545.54 L1273.55 1545.54 L1273.55 1544.97 Q1273.55 1540.93 1270.88 1538.73 Q1268.24 1536.5 1263.43 1536.5 Q1260.38 1536.5 1257.48 1537.23 Q1254.58 1537.97 1251.91 1539.43 L1251.91 1534.02 Q1255.12 1532.78 1258.15 1532.17 Q1261.17 1531.54 1264.04 1531.54 Q1271.77 1531.54 1275.59 1535.55 Q1279.41 1539.56 1279.41 1547.71 Z" fill="#000000" fill-rule="nonzero" fill-opacity="1" /><path clip-path="url(#clip010)" d="M1297.27 1522.27 L1297.27 1532.4 L1309.33 1532.4 L1309.33 1536.95 L1297.27 1536.95 L1297.27 1556.3 Q1297.27 1560.66 1298.44 1561.9 Q1299.65 1563.14 1303.31 1563.14 L1309.33 1563.14 L1309.33 1568.04 L1303.31 1568.04 Q1296.53 1568.04 1293.96 1565.53 Q1291.38 1562.98 1291.38 1556.3 L1291.38 1536.95 L1287.08 1536.95 L1287.08 1532.4 L1291.38 1532.4 L1291.38 1522.27 L1297.27 1522.27 Z" fill="#000000" fill-rule="nonzero" fill-opacity="1" /><path clip-path="url(#clip010)" d="M1347.52 1548.76 L1347.52 1551.62 L1320.6 1551.62 Q1320.98 1557.67 1324.22 1560.85 Q1327.5 1564 1333.33 1564 Q1336.7 1564 1339.85 1563.17 Q1343.04 1562.35 1346.15 1560.69 L1346.15 1566.23 Q1343 1567.57 1339.69 1568.27 Q1336.38 1568.97 1332.98 1568.97 Q1324.45 1568.97 1319.45 1564 Q1314.49 1559.04 1314.49 1550.57 Q1314.49 1541.82 1319.2 1536.69 Q1323.94 1531.54 1331.96 1531.54 Q1339.15 1531.54 1343.32 1536.18 Q1347.52 1540.8 1347.52 1548.76 M1341.67 1547.04 Q1341.6 1542.23 1338.96 1539.37 Q1336.35 1536.5 1332.02 1536.5 Q1327.12 1536.5 1324.16 1539.27 Q1321.23 1542.04 1320.79 1547.07 L1341.67 1547.04 Z" fill="#000000" fill-rule="nonzero" fill-opacity="1" /><path clip-path="url(#clip010)" d="M1377.79 1537.87 Q1376.81 1537.3 1375.63 1537.04 Q1374.48 1536.76 1373.08 1536.76 Q1368.12 1536.76 1365.44 1540 Q1362.8 1543.22 1362.8 1549.27 L1362.8 1568.04 L1356.91 1568.04 L1356.91 1532.4 L1362.8 1532.4 L1362.8 1537.93 Q1364.65 1534.69 1367.61 1533.13 Q1370.57 1531.54 1374.8 1531.54 Q1375.4 1531.54 1376.14 1531.63 Q1376.87 1531.7 1377.76 1531.85 L1377.79 1537.87 Z" fill="#000000" fill-rule="nonzero" fill-opacity="1" /><polyline clip-path="url(#clip010)" style="stroke:#000000; stroke-linecap:round; stroke-linejoin:round; stroke-width:4; stroke-opacity:1; fill:none" points="249.542,1423.18 249.542,47.2441 "/>
<polyline clip-path="url(#clip010)" style="stroke:#000000; stroke-linecap:round; stroke-linejoin:round; stroke-width:4; stroke-opacity:1; fill:none" points="249.542,1360.64 268.44,1360.64 "/>
<polyline clip-path="url(#clip010)" style="stroke:#000000; stroke-linecap:round; stroke-linejoin:round; stroke-width:4; stroke-opacity:1; fill:none" points="249.542,1047.92 268.44,1047.92 "/>
<polyline clip-path="url(#clip010)" style="stroke:#000000; stroke-linecap:round; stroke-linejoin:round; stroke-width:4; stroke-opacity:1; fill:none" points="249.542,735.212 268.44,735.212 "/>
<polyline clip-path="url(#clip010)" style="stroke:#000000; stroke-linecap:round; stroke-linejoin:round; stroke-width:4; stroke-opacity:1; fill:none" points="249.542,422.499 268.44,422.499 "/>
<polyline clip-path="url(#clip010)" style="stroke:#000000; stroke-linecap:round; stroke-linejoin:round; stroke-width:4; stroke-opacity:1; fill:none" points="249.542,109.787 268.44,109.787 "/>
<path clip-path="url(#clip010)" d="M126.205 1346.44 Q122.593 1346.44 120.765 1350 Q118.959 1353.54 118.959 1360.67 Q118.959 1367.78 120.765 1371.34 Q122.593 1374.88 126.205 1374.88 Q129.839 1374.88 131.644 1371.34 Q133.473 1367.78 133.473 1360.67 Q133.473 1353.54 131.644 1350 Q129.839 1346.44 126.205 1346.44 M126.205 1342.73 Q132.015 1342.73 135.07 1347.34 Q138.149 1351.92 138.149 1360.67 Q138.149 1369.4 135.07 1374.01 Q132.015 1378.59 126.205 1378.59 Q120.394 1378.59 117.316 1374.01 Q114.26 1369.4 114.26 1360.67 Q114.26 1351.92 117.316 1347.34 Q120.394 1342.73 126.205 1342.73 Z" fill="#000000" fill-rule="nonzero" fill-opacity="1" /><path clip-path="url(#clip010)" d="M146.366 1372.04 L151.251 1372.04 L151.251 1377.92 L146.366 1377.92 L146.366 1372.04 Z" fill="#000000" fill-rule="nonzero" fill-opacity="1" /><path clip-path="url(#clip010)" d="M171.436 1346.44 Q167.825 1346.44 165.996 1350 Q164.19 1353.54 164.19 1360.67 Q164.19 1367.78 165.996 1371.34 Q167.825 1374.88 171.436 1374.88 Q175.07 1374.88 176.876 1371.34 Q178.704 1367.78 178.704 1360.67 Q178.704 1353.54 176.876 1350 Q175.07 1346.44 171.436 1346.44 M171.436 1342.73 Q177.246 1342.73 180.301 1347.34 Q183.38 1351.92 183.38 1360.67 Q183.38 1369.4 180.301 1374.01 Q177.246 1378.59 171.436 1378.59 Q165.626 1378.59 162.547 1374.01 Q159.491 1369.4 159.491 1360.67 Q159.491 1351.92 162.547 1347.34 Q165.626 1342.73 171.436 1342.73 Z" fill="#000000" fill-rule="nonzero" fill-opacity="1" /><path clip-path="url(#clip010)" d="M201.598 1346.44 Q197.987 1346.44 196.158 1350 Q194.352 1353.54 194.352 1360.67 Q194.352 1367.78 196.158 1371.34 Q197.987 1374.88 201.598 1374.88 Q205.232 1374.88 207.037 1371.34 Q208.866 1367.78 208.866 1360.67 Q208.866 1353.54 207.037 1350 Q205.232 1346.44 201.598 1346.44 M201.598 1342.73 Q207.408 1342.73 210.463 1347.34 Q213.542 1351.92 213.542 1360.67 Q213.542 1369.4 210.463 1374.01 Q207.408 1378.59 201.598 1378.59 Q195.787 1378.59 192.709 1374.01 Q189.653 1369.4 189.653 1360.67 Q189.653 1351.92 192.709 1347.34 Q195.787 1342.73 201.598 1342.73 Z" fill="#000000" fill-rule="nonzero" fill-opacity="1" /><path clip-path="url(#clip010)" d="M127.2 1033.72 Q123.589 1033.72 121.76 1037.29 Q119.955 1040.83 119.955 1047.96 Q119.955 1055.07 121.76 1058.63 Q123.589 1062.17 127.2 1062.17 Q130.834 1062.17 132.64 1058.63 Q134.468 1055.07 134.468 1047.96 Q134.468 1040.83 132.64 1037.29 Q130.834 1033.72 127.2 1033.72 M127.2 1030.02 Q133.01 1030.02 136.066 1034.63 Q139.144 1039.21 139.144 1047.96 Q139.144 1056.69 136.066 1061.29 Q133.01 1065.88 127.2 1065.88 Q121.39 1065.88 118.311 1061.29 Q115.256 1056.69 115.256 1047.96 Q115.256 1039.21 118.311 1034.63 Q121.39 1030.02 127.2 1030.02 Z" fill="#000000" fill-rule="nonzero" fill-opacity="1" /><path clip-path="url(#clip010)" d="M147.362 1059.33 L152.246 1059.33 L152.246 1065.2 L147.362 1065.2 L147.362 1059.33 Z" fill="#000000" fill-rule="nonzero" fill-opacity="1" /><path clip-path="url(#clip010)" d="M166.459 1061.27 L182.778 1061.27 L182.778 1065.2 L160.834 1065.2 L160.834 1061.27 Q163.496 1058.51 168.079 1053.89 Q172.686 1049.23 173.866 1047.89 Q176.112 1045.37 176.991 1043.63 Q177.894 1041.87 177.894 1040.18 Q177.894 1037.43 175.95 1035.69 Q174.028 1033.95 170.927 1033.95 Q168.727 1033.95 166.274 1034.72 Q163.843 1035.48 161.065 1037.03 L161.065 1032.31 Q163.89 1031.18 166.343 1030.6 Q168.797 1030.02 170.834 1030.02 Q176.204 1030.02 179.399 1032.7 Q182.593 1035.39 182.593 1039.88 Q182.593 1042.01 181.783 1043.93 Q180.996 1045.83 178.889 1048.42 Q178.311 1049.09 175.209 1052.31 Q172.107 1055.51 166.459 1061.27 Z" fill="#000000" fill-rule="nonzero" fill-opacity="1" /><path clip-path="url(#clip010)" d="M192.639 1030.64 L210.996 1030.64 L210.996 1034.58 L196.922 1034.58 L196.922 1043.05 Q197.94 1042.7 198.959 1042.54 Q199.977 1042.36 200.996 1042.36 Q206.783 1042.36 210.162 1045.53 Q213.542 1048.7 213.542 1054.12 Q213.542 1059.7 210.07 1062.8 Q206.598 1065.88 200.278 1065.88 Q198.102 1065.88 195.834 1065.51 Q193.588 1065.14 191.181 1064.39 L191.181 1059.7 Q193.264 1060.83 195.487 1061.39 Q197.709 1061.94 200.186 1061.94 Q204.19 1061.94 206.528 1059.83 Q208.866 1057.73 208.866 1054.12 Q208.866 1050.51 206.528 1048.4 Q204.19 1046.29 200.186 1046.29 Q198.311 1046.29 196.436 1046.71 Q194.584 1047.13 192.639 1048.01 L192.639 1030.64 Z" fill="#000000" fill-rule="nonzero" fill-opacity="1" /><path clip-path="url(#clip010)" d="M126.205 721.011 Q122.593 721.011 120.765 724.575 Q118.959 728.117 118.959 735.247 Q118.959 742.353 120.765 745.918 Q122.593 749.46 126.205 749.46 Q129.839 749.46 131.644 745.918 Q133.473 742.353 133.473 735.247 Q133.473 728.117 131.644 724.575 Q129.839 721.011 126.205 721.011 M126.205 717.307 Q132.015 717.307 135.07 721.913 Q138.149 726.497 138.149 735.247 Q138.149 743.973 135.07 748.58 Q132.015 753.163 126.205 753.163 Q120.394 753.163 117.316 748.58 Q114.26 743.973 114.26 735.247 Q114.26 726.497 117.316 721.913 Q120.394 717.307 126.205 717.307 Z" fill="#000000" fill-rule="nonzero" fill-opacity="1" /><path clip-path="url(#clip010)" d="M146.366 746.612 L151.251 746.612 L151.251 752.492 L146.366 752.492 L146.366 746.612 Z" fill="#000000" fill-rule="nonzero" fill-opacity="1" /><path clip-path="url(#clip010)" d="M161.482 717.932 L179.839 717.932 L179.839 721.867 L165.765 721.867 L165.765 730.339 Q166.783 729.992 167.802 729.83 Q168.82 729.645 169.839 729.645 Q175.626 729.645 179.005 732.816 Q182.385 735.987 182.385 741.404 Q182.385 746.983 178.913 750.085 Q175.44 753.163 169.121 753.163 Q166.945 753.163 164.677 752.793 Q162.431 752.423 160.024 751.682 L160.024 746.983 Q162.107 748.117 164.329 748.673 Q166.552 749.228 169.028 749.228 Q173.033 749.228 175.371 747.122 Q177.709 745.015 177.709 741.404 Q177.709 737.793 175.371 735.687 Q173.033 733.58 169.028 733.58 Q167.153 733.58 165.278 733.997 Q163.427 734.413 161.482 735.293 L161.482 717.932 Z" fill="#000000" fill-rule="nonzero" fill-opacity="1" /><path clip-path="url(#clip010)" d="M201.598 721.011 Q197.987 721.011 196.158 724.575 Q194.352 728.117 194.352 735.247 Q194.352 742.353 196.158 745.918 Q197.987 749.46 201.598 749.46 Q205.232 749.46 207.037 745.918 Q208.866 742.353 208.866 735.247 Q208.866 728.117 207.037 724.575 Q205.232 721.011 201.598 721.011 M201.598 717.307 Q207.408 717.307 210.463 721.913 Q213.542 726.497 213.542 735.247 Q213.542 743.973 210.463 748.58 Q207.408 753.163 201.598 753.163 Q195.787 753.163 192.709 748.58 Q189.653 743.973 189.653 735.247 Q189.653 726.497 192.709 721.913 Q195.787 717.307 201.598 717.307 Z" fill="#000000" fill-rule="nonzero" fill-opacity="1" /><path clip-path="url(#clip010)" d="M127.2 408.298 Q123.589 408.298 121.76 411.863 Q119.955 415.404 119.955 422.534 Q119.955 429.64 121.76 433.205 Q123.589 436.747 127.2 436.747 Q130.834 436.747 132.64 433.205 Q134.468 429.64 134.468 422.534 Q134.468 415.404 132.64 411.863 Q130.834 408.298 127.2 408.298 M127.2 404.594 Q133.01 404.594 136.066 409.201 Q139.144 413.784 139.144 422.534 Q139.144 431.261 136.066 435.867 Q133.01 440.451 127.2 440.451 Q121.39 440.451 118.311 435.867 Q115.256 431.261 115.256 422.534 Q115.256 413.784 118.311 409.201 Q121.39 404.594 127.2 404.594 Z" fill="#000000" fill-rule="nonzero" fill-opacity="1" /><path clip-path="url(#clip010)" d="M147.362 433.9 L152.246 433.9 L152.246 439.779 L147.362 439.779 L147.362 433.9 Z" fill="#000000" fill-rule="nonzero" fill-opacity="1" /><path clip-path="url(#clip010)" d="M161.251 405.219 L183.473 405.219 L183.473 407.21 L170.927 439.779 L166.042 439.779 L177.848 409.154 L161.251 409.154 L161.251 405.219 Z" fill="#000000" fill-rule="nonzero" fill-opacity="1" /><path clip-path="url(#clip010)" d="M192.639 405.219 L210.996 405.219 L210.996 409.154 L196.922 409.154 L196.922 417.627 Q197.94 417.279 198.959 417.117 Q199.977 416.932 200.996 416.932 Q206.783 416.932 210.162 420.103 Q213.542 423.275 213.542 428.691 Q213.542 434.27 210.07 437.372 Q206.598 440.451 200.278 440.451 Q198.102 440.451 195.834 440.08 Q193.588 439.71 191.181 438.969 L191.181 434.27 Q193.264 435.404 195.487 435.96 Q197.709 436.515 200.186 436.515 Q204.19 436.515 206.528 434.409 Q208.866 432.302 208.866 428.691 Q208.866 425.08 206.528 422.974 Q204.19 420.867 200.186 420.867 Q198.311 420.867 196.436 421.284 Q194.584 421.701 192.639 422.58 L192.639 405.219 Z" fill="#000000" fill-rule="nonzero" fill-opacity="1" /><path clip-path="url(#clip010)" d="M117.015 123.131 L124.654 123.131 L124.654 96.7659 L116.343 98.4325 L116.343 94.1733 L124.607 92.5066 L129.283 92.5066 L129.283 123.131 L136.922 123.131 L136.922 127.067 L117.015 127.067 L117.015 123.131 Z" fill="#000000" fill-rule="nonzero" fill-opacity="1" /><path clip-path="url(#clip010)" d="M146.366 121.187 L151.251 121.187 L151.251 127.067 L146.366 127.067 L146.366 121.187 Z" fill="#000000" fill-rule="nonzero" fill-opacity="1" /><path clip-path="url(#clip010)" d="M171.436 95.5853 Q167.825 95.5853 165.996 99.1501 Q164.19 102.692 164.19 109.821 Q164.19 116.928 165.996 120.493 Q167.825 124.034 171.436 124.034 Q175.07 124.034 176.876 120.493 Q178.704 116.928 178.704 109.821 Q178.704 102.692 176.876 99.1501 Q175.07 95.5853 171.436 95.5853 M171.436 91.8816 Q177.246 91.8816 180.301 96.4881 Q183.38 101.071 183.38 109.821 Q183.38 118.548 180.301 123.155 Q177.246 127.738 171.436 127.738 Q165.626 127.738 162.547 123.155 Q159.491 118.548 159.491 109.821 Q159.491 101.071 162.547 96.4881 Q165.626 91.8816 171.436 91.8816 Z" fill="#000000" fill-rule="nonzero" fill-opacity="1" /><path clip-path="url(#clip010)" d="M201.598 95.5853 Q197.987 95.5853 196.158 99.1501 Q194.352 102.692 194.352 109.821 Q194.352 116.928 196.158 120.493 Q197.987 124.034 201.598 124.034 Q205.232 124.034 207.037 120.493 Q208.866 116.928 208.866 109.821 Q208.866 102.692 207.037 99.1501 Q205.232 95.5853 201.598 95.5853 M201.598 91.8816 Q207.408 91.8816 210.463 96.4881 Q213.542 101.071 213.542 109.821 Q213.542 118.548 210.463 123.155 Q207.408 127.738 201.598 127.738 Q195.787 127.738 192.709 123.155 Q189.653 118.548 189.653 109.821 Q189.653 101.071 192.709 96.4881 Q195.787 91.8816 201.598 91.8816 Z" fill="#000000" fill-rule="nonzero" fill-opacity="1" /><path clip-path="url(#clip010)" d="M33.8307 890.201 Q33.2578 891.188 33.0032 892.365 Q32.7167 893.511 32.7167 894.912 Q32.7167 899.877 35.9632 902.55 Q39.1779 905.192 45.2253 905.192 L64.0042 905.192 L64.0042 911.081 L28.3562 911.081 L28.3562 905.192 L33.8944 905.192 Q30.6479 903.346 29.0883 900.386 Q27.4968 897.426 27.4968 893.193 Q27.4968 892.588 27.5923 891.856 Q27.656 891.124 27.8151 890.233 L33.8307 890.201 Z" fill="#000000" fill-rule="nonzero" fill-opacity="1" /><path clip-path="url(#clip010)" d="M44.7161 854.999 L47.5806 854.999 L47.5806 881.926 Q53.6281 881.544 56.8109 878.297 Q59.9619 875.019 59.9619 869.194 Q59.9619 865.82 59.1344 862.669 Q58.3069 859.486 56.6518 856.367 L62.1899 856.367 Q63.5267 859.518 64.227 862.828 Q64.9272 866.139 64.9272 869.544 Q64.9272 878.074 59.9619 883.071 Q54.9967 888.037 46.5303 888.037 Q37.7774 888.037 32.6531 883.326 Q27.4968 878.584 27.4968 870.563 Q27.4968 863.37 32.1438 859.2 Q36.7589 854.999 44.7161 854.999 M42.9973 860.855 Q38.1912 860.919 35.3266 863.561 Q32.4621 866.17 32.4621 870.499 Q32.4621 875.401 35.2312 878.361 Q38.0002 881.289 43.0292 881.735 L42.9973 860.855 Z" fill="#000000" fill-rule="nonzero" fill-opacity="1" /><path clip-path="url(#clip010)" d="M14.479 845.386 L14.479 839.53 L64.0042 839.53 L64.0042 845.386 L14.479 845.386 Z" fill="#000000" fill-rule="nonzero" fill-opacity="1" /><path clip-path="url(#clip010)" d="M28.3562 827.276 L28.3562 821.42 L64.0042 821.42 L64.0042 827.276 L28.3562 827.276 M14.479 827.276 L14.479 821.42 L21.895 821.42 L21.895 827.276 L14.479 827.276 Z" fill="#000000" fill-rule="nonzero" fill-opacity="1" /><path clip-path="url(#clip010)" d="M46.0847 792.965 Q46.0847 800.063 47.7079 802.8 Q49.3312 805.537 53.2461 805.537 Q56.3653 805.537 58.2114 803.5 Q60.0256 801.431 60.0256 797.898 Q60.0256 793.028 56.5881 790.1 Q53.1188 787.14 47.3897 787.14 L46.0847 787.14 L46.0847 792.965 M43.6657 781.284 L64.0042 781.284 L64.0042 787.14 L58.5933 787.14 Q61.8398 789.145 63.3994 792.137 Q64.9272 795.129 64.9272 799.458 Q64.9272 804.932 61.8716 808.179 Q58.7843 811.394 53.6281 811.394 Q47.6125 811.394 44.5569 807.383 Q41.5014 803.341 41.5014 795.352 L41.5014 787.14 L40.9285 787.14 Q36.8862 787.14 34.6901 789.814 Q32.4621 792.456 32.4621 797.262 Q32.4621 800.317 33.1941 803.214 Q33.9262 806.11 35.3903 808.784 L29.9795 808.784 Q28.7381 805.569 28.1334 802.545 Q27.4968 799.522 27.4968 796.657 Q27.4968 788.923 31.5072 785.103 Q35.5176 781.284 43.6657 781.284 Z" fill="#000000" fill-rule="nonzero" fill-opacity="1" /><path clip-path="url(#clip010)" d="M46.212 743.631 Q39.7508 743.631 36.0905 746.304 Q32.3984 748.946 32.3984 753.593 Q32.3984 758.24 36.0905 760.914 Q39.7508 763.555 46.212 763.555 Q52.6732 763.555 56.3653 760.914 Q60.0256 758.24 60.0256 753.593 Q60.0256 748.946 56.3653 746.304 Q52.6732 743.631 46.212 743.631 M33.7671 763.555 Q30.5842 761.709 29.0564 758.908 Q27.4968 756.076 27.4968 752.161 Q27.4968 745.668 32.6531 741.625 Q37.8093 737.551 46.212 737.551 Q54.6147 737.551 59.771 741.625 Q64.9272 745.668 64.9272 752.161 Q64.9272 756.076 63.3994 758.908 Q61.8398 761.709 58.657 763.555 L64.0042 763.555 L64.0042 769.444 L14.479 769.444 L14.479 763.555 L33.7671 763.555 Z" fill="#000000" fill-rule="nonzero" fill-opacity="1" /><path clip-path="url(#clip010)" d="M28.3562 727.844 L28.3562 721.987 L64.0042 721.987 L64.0042 727.844 L28.3562 727.844 M14.479 727.844 L14.479 721.987 L21.895 721.987 L21.895 727.844 L14.479 727.844 Z" fill="#000000" fill-rule="nonzero" fill-opacity="1" /><path clip-path="url(#clip010)" d="M14.479 709.733 L14.479 703.877 L64.0042 703.877 L64.0042 709.733 L14.479 709.733 Z" fill="#000000" fill-rule="nonzero" fill-opacity="1" /><path clip-path="url(#clip010)" d="M28.3562 691.623 L28.3562 685.766 L64.0042 685.766 L64.0042 691.623 L28.3562 691.623 M14.479 691.623 L14.479 685.766 L21.895 685.766 L21.895 691.623 L14.479 691.623 Z" fill="#000000" fill-rule="nonzero" fill-opacity="1" /><path clip-path="url(#clip010)" d="M18.2347 667.72 L28.3562 667.72 L28.3562 655.657 L32.9077 655.657 L32.9077 667.72 L52.2594 667.72 Q56.6199 667.72 57.8613 666.542 Q59.1026 665.332 59.1026 661.672 L59.1026 655.657 L64.0042 655.657 L64.0042 661.672 Q64.0042 668.452 61.4897 671.03 Q58.9434 673.608 52.2594 673.608 L32.9077 673.608 L32.9077 677.905 L28.3562 677.905 L28.3562 673.608 L18.2347 673.608 L18.2347 667.72 Z" fill="#000000" fill-rule="nonzero" fill-opacity="1" /><path clip-path="url(#clip010)" d="M67.3143 633.122 Q73.68 635.605 75.6216 637.96 Q77.5631 640.315 77.5631 644.262 L77.5631 648.941 L72.6615 648.941 L72.6615 645.503 Q72.6615 643.084 71.5157 641.747 Q70.3699 640.411 66.1048 638.787 L63.4312 637.737 L28.3562 652.155 L28.3562 645.949 L56.238 634.809 L28.3562 623.669 L28.3562 617.462 L67.3143 633.122 Z" fill="#000000" fill-rule="nonzero" fill-opacity="1" /><path clip-path="url(#clip010)" d="M46.212 585.156 Q52.6732 585.156 56.3653 582.515 Q60.0256 579.841 60.0256 575.194 Q60.0256 570.547 56.3653 567.873 Q52.6732 565.2 46.212 565.2 Q39.7508 565.2 36.0905 567.873 Q32.3984 570.547 32.3984 575.194 Q32.3984 579.841 36.0905 582.515 Q39.7508 585.156 46.212 585.156 M58.657 565.2 Q61.8398 567.046 63.3994 569.879 Q64.9272 572.68 64.9272 576.626 Q64.9272 583.087 59.771 587.162 Q54.6147 591.204 46.212 591.204 Q37.8093 591.204 32.6531 587.162 Q27.4968 583.087 27.4968 576.626 Q27.4968 572.68 29.0564 569.879 Q30.5842 567.046 33.7671 565.2 L28.3562 565.2 L28.3562 559.343 L77.5631 559.343 L77.5631 565.2 L58.657 565.2 Z" fill="#000000" fill-rule="nonzero" fill-opacity="1" /><line clip-path="url(#clip011)" x1="309.067" y1="172.329" x2="281.067" y2="144.329" style="stroke:#ff0000; stroke-width:3.2; stroke-opacity:1"/>
<line clip-path="url(#clip011)" x1="309.067" y1="172.329" x2="281.067" y2="200.329" style="stroke:#ff0000; stroke-width:3.2; stroke-opacity:1"/>
<line clip-path="url(#clip011)" x1="309.067" y1="172.329" x2="337.067" y2="200.329" style="stroke:#ff0000; stroke-width:3.2; stroke-opacity:1"/>
<line clip-path="url(#clip011)" x1="309.067" y1="172.329" x2="337.067" y2="144.329" style="stroke:#ff0000; stroke-width:3.2; stroke-opacity:1"/>
<line clip-path="url(#clip011)" x1="592.519" y1="209.855" x2="564.519" y2="181.855" style="stroke:#ff0000; stroke-width:3.2; stroke-opacity:1"/>
<line clip-path="url(#clip011)" x1="592.519" y1="209.855" x2="564.519" y2="237.855" style="stroke:#ff0000; stroke-width:3.2; stroke-opacity:1"/>
<line clip-path="url(#clip011)" x1="592.519" y1="209.855" x2="620.519" y2="237.855" style="stroke:#ff0000; stroke-width:3.2; stroke-opacity:1"/>
<line clip-path="url(#clip011)" x1="592.519" y1="209.855" x2="620.519" y2="181.855" style="stroke:#ff0000; stroke-width:3.2; stroke-opacity:1"/>
<line clip-path="url(#clip011)" x1="875.971" y1="259.889" x2="847.971" y2="231.889" style="stroke:#ff0000; stroke-width:3.2; stroke-opacity:1"/>
<line clip-path="url(#clip011)" x1="875.971" y1="259.889" x2="847.971" y2="287.889" style="stroke:#ff0000; stroke-width:3.2; stroke-opacity:1"/>
<line clip-path="url(#clip011)" x1="875.971" y1="259.889" x2="903.971" y2="287.889" style="stroke:#ff0000; stroke-width:3.2; stroke-opacity:1"/>
<line clip-path="url(#clip011)" x1="875.971" y1="259.889" x2="903.971" y2="231.889" style="stroke:#ff0000; stroke-width:3.2; stroke-opacity:1"/>
<line clip-path="url(#clip011)" x1="1159.42" y1="297.414" x2="1131.42" y2="269.414" style="stroke:#ff0000; stroke-width:3.2; stroke-opacity:1"/>
<line clip-path="url(#clip011)" x1="1159.42" y1="297.414" x2="1131.42" y2="325.414" style="stroke:#ff0000; stroke-width:3.2; stroke-opacity:1"/>
<line clip-path="url(#clip011)" x1="1159.42" y1="297.414" x2="1187.42" y2="325.414" style="stroke:#ff0000; stroke-width:3.2; stroke-opacity:1"/>
<line clip-path="url(#clip011)" x1="1159.42" y1="297.414" x2="1187.42" y2="269.414" style="stroke:#ff0000; stroke-width:3.2; stroke-opacity:1"/>
<line clip-path="url(#clip011)" x1="1442.87" y1="359.957" x2="1414.87" y2="331.957" style="stroke:#ff0000; stroke-width:3.2; stroke-opacity:1"/>
<line clip-path="url(#clip011)" x1="1442.87" y1="359.957" x2="1414.87" y2="387.957" style="stroke:#ff0000; stroke-width:3.2; stroke-opacity:1"/>
<line clip-path="url(#clip011)" x1="1442.87" y1="359.957" x2="1470.87" y2="387.957" style="stroke:#ff0000; stroke-width:3.2; stroke-opacity:1"/>
<line clip-path="url(#clip011)" x1="1442.87" y1="359.957" x2="1470.87" y2="331.957" style="stroke:#ff0000; stroke-width:3.2; stroke-opacity:1"/>
<line clip-path="url(#clip011)" x1="1726.33" y1="985.382" x2="1698.33" y2="957.382" style="stroke:#ff0000; stroke-width:3.2; stroke-opacity:1"/>
<line clip-path="url(#clip011)" x1="1726.33" y1="985.382" x2="1698.33" y2="1013.38" style="stroke:#ff0000; stroke-width:3.2; stroke-opacity:1"/>
<line clip-path="url(#clip011)" x1="1726.33" y1="985.382" x2="1754.33" y2="1013.38" style="stroke:#ff0000; stroke-width:3.2; stroke-opacity:1"/>
<line clip-path="url(#clip011)" x1="1726.33" y1="985.382" x2="1754.33" y2="957.382" style="stroke:#ff0000; stroke-width:3.2; stroke-opacity:1"/>
<line clip-path="url(#clip011)" x1="2009.78" y1="1173.01" x2="1981.78" y2="1145.01" style="stroke:#ff0000; stroke-width:3.2; stroke-opacity:1"/>
<line clip-path="url(#clip011)" x1="2009.78" y1="1173.01" x2="1981.78" y2="1201.01" style="stroke:#ff0000; stroke-width:3.2; stroke-opacity:1"/>
<line clip-path="url(#clip011)" x1="2009.78" y1="1173.01" x2="2037.78" y2="1201.01" style="stroke:#ff0000; stroke-width:3.2; stroke-opacity:1"/>
<line clip-path="url(#clip011)" x1="2009.78" y1="1173.01" x2="2037.78" y2="1145.01" style="stroke:#ff0000; stroke-width:3.2; stroke-opacity:1"/>
<line clip-path="url(#clip011)" x1="2293.23" y1="1298.09" x2="2265.23" y2="1270.09" style="stroke:#ff0000; stroke-width:3.2; stroke-opacity:1"/>
<line clip-path="url(#clip011)" x1="2293.23" y1="1298.09" x2="2265.23" y2="1326.09" style="stroke:#ff0000; stroke-width:3.2; stroke-opacity:1"/>
<line clip-path="url(#clip011)" x1="2293.23" y1="1298.09" x2="2321.23" y2="1326.09" style="stroke:#ff0000; stroke-width:3.2; stroke-opacity:1"/>
<line clip-path="url(#clip011)" x1="2293.23" y1="1298.09" x2="2321.23" y2="1270.09" style="stroke:#ff0000; stroke-width:3.2; stroke-opacity:1"/>
<circle clip-path="url(#clip011)" cx="309.067" cy="109.787" r="14.4" fill="#e26f46" fill-rule="evenodd" fill-opacity="1" stroke="#000000" stroke-opacity="1" stroke-width="3.2"/>
<circle clip-path="url(#clip011)" cx="592.519" cy="335.371" r="14.4" fill="#e26f46" fill-rule="evenodd" fill-opacity="1" stroke="#000000" stroke-opacity="1" stroke-width="3.2"/>
<circle clip-path="url(#clip011)" cx="875.971" cy="219.59" r="14.4" fill="#e26f46" fill-rule="evenodd" fill-opacity="1" stroke="#000000" stroke-opacity="1" stroke-width="3.2"/>
<circle clip-path="url(#clip011)" cx="1159.42" cy="269.864" r="14.4" fill="#e26f46" fill-rule="evenodd" fill-opacity="1" stroke="#000000" stroke-opacity="1" stroke-width="3.2"/>
<circle clip-path="url(#clip011)" cx="1442.87" cy="304.371" r="14.4" fill="#e26f46" fill-rule="evenodd" fill-opacity="1" stroke="#000000" stroke-opacity="1" stroke-width="3.2"/>
<circle clip-path="url(#clip011)" cx="1726.33" cy="736.868" r="14.4" fill="#e26f46" fill-rule="evenodd" fill-opacity="1" stroke="#000000" stroke-opacity="1" stroke-width="3.2"/>
<circle clip-path="url(#clip011)" cx="2009.78" cy="1056.74" r="14.4" fill="#e26f46" fill-rule="evenodd" fill-opacity="1" stroke="#000000" stroke-opacity="1" stroke-width="3.2"/>
<circle clip-path="url(#clip011)" cx="2293.23" cy="1360.64" r="14.4" fill="#e26f46" fill-rule="evenodd" fill-opacity="1" stroke="#000000" stroke-opacity="1" stroke-width="3.2"/>
<path clip-path="url(#clip010)" d="M1960.87 832.916 L2282.65 832.916 L2282.65 677.396 L1960.87 677.396  Z" fill="#ffffff" fill-rule="evenodd" fill-opacity="1"/>
<polyline clip-path="url(#clip010)" style="stroke:#000000; stroke-linecap:round; stroke-linejoin:round; stroke-width:4; stroke-opacity:1; fill:none" points="1960.87,832.916 2282.65,832.916 2282.65,677.396 1960.87,677.396 1960.87,832.916 "/>
<line clip-path="url(#clip010)" x1="2054.35" y1="729.236" x2="2030.45" y2="705.343" style="stroke:#ff0000; stroke-width:2.73067; stroke-opacity:1"/>
<line clip-path="url(#clip010)" x1="2054.35" y1="729.236" x2="2030.45" y2="753.13" style="stroke:#ff0000; stroke-width:2.73067; stroke-opacity:1"/>
<line clip-path="url(#clip010)" x1="2054.35" y1="729.236" x2="2078.24" y2="753.13" style="stroke:#ff0000; stroke-width:2.73067; stroke-opacity:1"/>
<line clip-path="url(#clip010)" x1="2054.35" y1="729.236" x2="2078.24" y2="705.343" style="stroke:#ff0000; stroke-width:2.73067; stroke-opacity:1"/>
<path clip-path="url(#clip010)" d="M2155.23 713.23 L2155.23 720.591 L2164 720.591 L2164 723.901 L2155.23 723.901 L2155.23 737.975 Q2155.23 741.146 2156.09 742.049 Q2156.97 742.952 2159.63 742.952 L2164 742.952 L2164 746.516 L2159.63 746.516 Q2154.7 746.516 2152.82 744.688 Q2150.95 742.836 2150.95 737.975 L2150.95 723.901 L2147.82 723.901 L2147.82 720.591 L2150.95 720.591 L2150.95 713.23 L2155.23 713.23 Z" fill="#000000" fill-rule="nonzero" fill-opacity="1" /><path clip-path="url(#clip010)" d="M2184.63 724.572 Q2183.91 724.156 2183.05 723.97 Q2182.22 723.762 2181.2 723.762 Q2177.59 723.762 2175.65 726.123 Q2173.72 728.461 2173.72 732.859 L2173.72 746.516 L2169.44 746.516 L2169.44 720.591 L2173.72 720.591 L2173.72 724.618 Q2175.07 722.257 2177.22 721.123 Q2179.37 719.966 2182.45 719.966 Q2182.89 719.966 2183.42 720.035 Q2183.96 720.081 2184.6 720.197 L2184.63 724.572 Z" fill="#000000" fill-rule="nonzero" fill-opacity="1" /><path clip-path="url(#clip010)" d="M2188.66 736.285 L2188.66 720.591 L2192.91 720.591 L2192.91 736.123 Q2192.91 739.804 2194.35 741.655 Q2195.78 743.484 2198.66 743.484 Q2202.1 743.484 2204.09 741.285 Q2206.11 739.086 2206.11 735.29 L2206.11 720.591 L2210.37 720.591 L2210.37 746.516 L2206.11 746.516 L2206.11 742.535 Q2204.56 744.896 2202.5 746.054 Q2200.46 747.188 2197.75 747.188 Q2193.28 747.188 2190.97 744.41 Q2188.66 741.632 2188.66 736.285 M2199.37 719.966 L2199.37 719.966 Z" fill="#000000" fill-rule="nonzero" fill-opacity="1" /><path clip-path="url(#clip010)" d="M2223.35 713.23 L2223.35 720.591 L2232.13 720.591 L2232.13 723.901 L2223.35 723.901 L2223.35 737.975 Q2223.35 741.146 2224.21 742.049 Q2225.09 742.952 2227.75 742.952 L2232.13 742.952 L2232.13 746.516 L2227.75 746.516 Q2222.82 746.516 2220.95 744.688 Q2219.07 742.836 2219.07 737.975 L2219.07 723.901 L2215.95 723.901 L2215.95 720.591 L2219.07 720.591 L2219.07 713.23 L2223.35 713.23 Z" fill="#000000" fill-rule="nonzero" fill-opacity="1" /><path clip-path="url(#clip010)" d="M2259.28 730.868 L2259.28 746.516 L2255.02 746.516 L2255.02 731.007 Q2255.02 727.327 2253.59 725.498 Q2252.15 723.669 2249.28 723.669 Q2245.83 723.669 2243.84 725.868 Q2241.85 728.068 2241.85 731.864 L2241.85 746.516 L2237.57 746.516 L2237.57 710.498 L2241.85 710.498 L2241.85 724.618 Q2243.38 722.281 2245.44 721.123 Q2247.52 719.966 2250.23 719.966 Q2254.7 719.966 2256.99 722.743 Q2259.28 725.498 2259.28 730.868 Z" fill="#000000" fill-rule="nonzero" fill-opacity="1" /><circle clip-path="url(#clip010)" cx="2054.35" cy="781.076" r="20.48" fill="#e26f46" fill-rule="evenodd" fill-opacity="1" stroke="#000000" stroke-opacity="1" stroke-width="4.55111"/>
<path clip-path="url(#clip010)" d="M2147.82 763.796 L2154.79 763.796 L2163.61 787.315 L2172.47 763.796 L2179.44 763.796 L2179.44 798.356 L2174.88 798.356 L2174.88 768.009 L2165.97 791.713 L2161.27 791.713 L2152.36 768.009 L2152.36 798.356 L2147.82 798.356 L2147.82 763.796 Z" fill="#000000" fill-rule="nonzero" fill-opacity="1" /><path clip-path="url(#clip010)" d="M2188.72 763.796 L2193.4 763.796 L2193.4 794.421 L2210.23 794.421 L2210.23 798.356 L2188.72 798.356 L2188.72 763.796 Z" fill="#000000" fill-rule="nonzero" fill-opacity="1" /><path clip-path="url(#clip010)" d="M2215.14 763.796 L2236.99 763.796 L2236.99 767.732 L2219.81 767.732 L2219.81 777.963 L2236.27 777.963 L2236.27 781.898 L2219.81 781.898 L2219.81 794.421 L2237.4 794.421 L2237.4 798.356 L2215.14 798.356 L2215.14 763.796 Z" fill="#000000" fill-rule="nonzero" fill-opacity="1" /></svg>
