<?xml version="1.0" encoding="utf-8"?>
<svg xmlns="http://www.w3.org/2000/svg" xmlns:xlink="http://www.w3.org/1999/xlink" width="600" height="400" viewBox="0 0 2400 1600">
<defs>
  <clipPath id="clip210">
    <rect x="0" y="0" width="2400" height="1600"/>
  </clipPath>
</defs>
<path clip-path="url(#clip210)" d="M0 1600 L2400 1600 L2400 0 L0 0  Z" fill="#ffffff" fill-rule="evenodd" fill-opacity="1"/>
<defs>
  <clipPath id="clip211">
    <rect x="210" y="47" width="2143" height="1377"/>
  </clipPath>
</defs>
<path clip-path="url(#clip210)" d="M210.376 1423.18 L2352.76 1423.18 L2352.76 47.2441 L210.376 47.2441  Z" fill="#ffffff" fill-rule="evenodd" fill-opacity="1"/>
<polyline clip-path="url(#clip211)" style="stroke:#000000; stroke-linecap:round; stroke-linejoin:round; stroke-width:2; stroke-opacity:0.1; fill:none" points="525.837,1423.18 525.837,47.2441 "/>
<polyline clip-path="url(#clip211)" style="stroke:#000000; stroke-linecap:round; stroke-linejoin:round; stroke-width:2; stroke-opacity:0.1; fill:none" points="1133.52,1423.18 1133.52,47.2441 "/>
<polyline clip-path="url(#clip211)" style="stroke:#000000; stroke-linecap:round; stroke-linejoin:round; stroke-width:2; stroke-opacity:0.1; fill:none" points="1741.2,1423.18 1741.2,47.2441 "/>
<polyline clip-path="url(#clip211)" style="stroke:#000000; stroke-linecap:round; stroke-linejoin:round; stroke-width:2; stroke-opacity:0.1; fill:none" points="2348.88,1423.18 2348.88,47.2441 "/>
<polyline clip-path="url(#clip211)" style="stroke:#000000; stroke-linecap:round; stroke-linejoin:round; stroke-width:2; stroke-opacity:0.1; fill:none" points="210.376,1213.06 2352.76,1213.06 "/>
<polyline clip-path="url(#clip211)" style="stroke:#000000; stroke-linecap:round; stroke-linejoin:round; stroke-width:2; stroke-opacity:0.1; fill:none" points="210.376,827.093 2352.76,827.093 "/>
<polyline clip-path="url(#clip211)" style="stroke:#000000; stroke-linecap:round; stroke-linejoin:round; stroke-width:2; stroke-opacity:0.1; fill:none" points="210.376,441.129 2352.76,441.129 "/>
<polyline clip-path="url(#clip211)" style="stroke:#000000; stroke-linecap:round; stroke-linejoin:round; stroke-width:2; stroke-opacity:0.1; fill:none" points="210.376,55.1657 2352.76,55.1657 "/>
<polyline clip-path="url(#clip210)" style="stroke:#000000; stroke-linecap:round; stroke-linejoin:round; stroke-width:4; stroke-opacity:1; fill:none" points="210.376,1423.18 2352.76,1423.18 "/>
<polyline clip-path="url(#clip210)" style="stroke:#000000; stroke-linecap:round; stroke-linejoin:round; stroke-width:4; stroke-opacity:1; fill:none" points="525.837,1423.18 525.837,1404.28 "/>
<polyline clip-path="url(#clip210)" style="stroke:#000000; stroke-linecap:round; stroke-linejoin:round; stroke-width:4; stroke-opacity:1; fill:none" points="1133.52,1423.18 1133.52,1404.28 "/>
<polyline clip-path="url(#clip210)" style="stroke:#000000; stroke-linecap:round; stroke-linejoin:round; stroke-width:4; stroke-opacity:1; fill:none" points="1741.2,1423.18 1741.2,1404.28 "/>
<polyline clip-path="url(#clip210)" style="stroke:#000000; stroke-linecap:round; stroke-linejoin:round; stroke-width:4; stroke-opacity:1; fill:none" points="2348.88,1423.18 2348.88,1404.28 "/>
<path clip-path="url(#clip210)" d="M495.779 1468.75 L525.455 1468.75 L525.455 1472.69 L495.779 1472.69 L495.779 1468.75 Z" fill="#000000" fill-rule="nonzero" fill-opacity="1" /><path clip-path="url(#clip210)" d="M539.575 1481.64 L555.895 1481.64 L555.895 1485.58 L533.95 1485.58 L533.95 1481.64 Q536.612 1478.89 541.196 1474.26 Q545.802 1469.61 546.983 1468.27 Q549.228 1465.74 550.108 1464.01 Q551.011 1462.25 551.011 1460.56 Q551.011 1457.8 549.066 1456.07 Q547.145 1454.33 544.043 1454.33 Q541.844 1454.33 539.39 1455.09 Q536.96 1455.86 534.182 1457.41 L534.182 1452.69 Q537.006 1451.55 539.46 1450.97 Q541.913 1450.39 543.95 1450.39 Q549.321 1450.39 552.515 1453.08 Q555.71 1455.77 555.71 1460.26 Q555.71 1462.39 554.899 1464.31 Q554.112 1466.2 552.006 1468.8 Q551.427 1469.47 548.325 1472.69 Q545.224 1475.88 539.575 1481.64 Z" fill="#000000" fill-rule="nonzero" fill-opacity="1" /><path clip-path="url(#clip210)" d="M1133.52 1454.1 Q1129.91 1454.1 1128.08 1457.66 Q1126.27 1461.2 1126.27 1468.33 Q1126.27 1475.44 1128.08 1479.01 Q1129.91 1482.55 1133.52 1482.55 Q1137.15 1482.55 1138.96 1479.01 Q1140.79 1475.44 1140.79 1468.33 Q1140.79 1461.2 1138.96 1457.66 Q1137.15 1454.1 1133.52 1454.1 M1133.52 1450.39 Q1139.33 1450.39 1142.38 1455 Q1145.46 1459.58 1145.46 1468.33 Q1145.46 1477.06 1142.38 1481.67 Q1139.33 1486.25 1133.52 1486.25 Q1127.71 1486.25 1124.63 1481.67 Q1121.57 1477.06 1121.57 1468.33 Q1121.57 1459.58 1124.63 1455 Q1127.71 1450.39 1133.52 1450.39 Z" fill="#000000" fill-rule="nonzero" fill-opacity="1" /><path clip-path="url(#clip210)" d="M1735.85 1481.64 L1752.17 1481.64 L1752.17 1485.58 L1730.23 1485.58 L1730.23 1481.64 Q1732.89 1478.89 1737.47 1474.26 Q1742.08 1469.61 1743.26 1468.27 Q1745.5 1465.74 1746.38 1464.01 Q1747.29 1462.25 1747.29 1460.56 Q1747.29 1457.8 1745.34 1456.07 Q1743.42 1454.33 1740.32 1454.33 Q1738.12 1454.33 1735.67 1455.09 Q1733.24 1455.86 1730.46 1457.41 L1730.46 1452.69 Q1733.28 1451.55 1735.74 1450.97 Q1738.19 1450.39 1740.23 1450.39 Q1745.6 1450.39 1748.79 1453.08 Q1751.99 1455.77 1751.99 1460.26 Q1751.99 1462.39 1751.18 1464.31 Q1750.39 1466.2 1748.28 1468.8 Q1747.7 1469.47 1744.6 1472.69 Q1741.5 1475.88 1735.85 1481.64 Z" fill="#000000" fill-rule="nonzero" fill-opacity="1" /><path clip-path="url(#clip210)" d="M2351.89 1455.09 L2340.08 1473.54 L2351.89 1473.54 L2351.89 1455.09 M2350.66 1451.02 L2356.54 1451.02 L2356.54 1473.54 L2361.47 1473.54 L2361.47 1477.43 L2356.54 1477.43 L2356.54 1485.58 L2351.89 1485.58 L2351.89 1477.43 L2336.29 1477.43 L2336.29 1472.92 L2350.66 1451.02 Z" fill="#000000" fill-rule="nonzero" fill-opacity="1" /><path clip-path="url(#clip210)" d="M1049.42 1522.27 L1049.42 1532.4 L1061.49 1532.4 L1061.49 1536.95 L1049.42 1536.95 L1049.42 1556.3 Q1049.42 1560.66 1050.6 1561.9 Q1051.81 1563.14 1055.47 1563.14 L1061.49 1563.14 L1061.49 1568.04 L1055.47 1568.04 Q1048.69 1568.04 1046.11 1565.53 Q1043.54 1562.98 1043.54 1556.3 L1043.54 1536.95 L1039.24 1536.95 L1039.24 1532.4 L1043.54 1532.4 L1043.54 1522.27 L1049.42 1522.27 Z" fill="#000000" fill-rule="nonzero" fill-opacity="1" /><path clip-path="url(#clip210)" d="M1089.85 1537.87 Q1088.86 1537.3 1087.68 1537.04 Q1086.54 1536.76 1085.14 1536.76 Q1080.17 1536.76 1077.5 1540 Q1074.86 1543.22 1074.86 1549.27 L1074.86 1568.04 L1068.97 1568.04 L1068.97 1532.4 L1074.86 1532.4 L1074.86 1537.93 Q1076.7 1534.69 1079.66 1533.13 Q1082.62 1531.54 1086.85 1531.54 Q1087.46 1531.54 1088.19 1531.63 Q1088.92 1531.7 1089.81 1531.85 L1089.85 1537.87 Z" fill="#000000" fill-rule="nonzero" fill-opacity="1" /><path clip-path="url(#clip210)" d="M1095.38 1553.98 L1095.38 1532.4 L1101.24 1532.4 L1101.24 1553.75 Q1101.24 1558.81 1103.21 1561.36 Q1105.19 1563.87 1109.13 1563.87 Q1113.88 1563.87 1116.61 1560.85 Q1119.38 1557.83 1119.38 1552.61 L1119.38 1532.4 L1125.24 1532.4 L1125.24 1568.04 L1119.38 1568.04 L1119.38 1562.57 Q1117.25 1565.82 1114.42 1567.41 Q1111.62 1568.97 1107.89 1568.97 Q1101.75 1568.97 1098.57 1565.15 Q1095.38 1561.33 1095.38 1553.98 M1110.12 1531.54 L1110.12 1531.54 Z" fill="#000000" fill-rule="nonzero" fill-opacity="1" /><path clip-path="url(#clip210)" d="M1167.79 1548.76 L1167.79 1551.62 L1140.87 1551.62 Q1141.25 1557.67 1144.5 1560.85 Q1147.77 1564 1153.6 1564 Q1156.97 1564 1160.12 1563.17 Q1163.31 1562.35 1166.43 1560.69 L1166.43 1566.23 Q1163.27 1567.57 1159.96 1568.27 Q1156.65 1568.97 1153.25 1568.97 Q1144.72 1568.97 1139.72 1564 Q1134.76 1559.04 1134.76 1550.57 Q1134.76 1541.82 1139.47 1536.69 Q1144.21 1531.54 1152.23 1531.54 Q1159.42 1531.54 1163.59 1536.18 Q1167.79 1540.8 1167.79 1548.76 M1161.94 1547.04 Q1161.87 1542.23 1159.23 1539.37 Q1156.62 1536.5 1152.29 1536.5 Q1147.39 1536.5 1144.43 1539.27 Q1141.5 1542.04 1141.06 1547.07 L1161.94 1547.04 Z" fill="#000000" fill-rule="nonzero" fill-opacity="1" /><path clip-path="url(#clip210)" d="M1220.85 1533.45 L1220.85 1538.98 Q1218.37 1537.71 1215.7 1537.07 Q1213.02 1536.44 1210.16 1536.44 Q1205.8 1536.44 1203.6 1537.77 Q1201.44 1539.11 1201.44 1541.79 Q1201.44 1543.82 1203 1545 Q1204.56 1546.15 1209.27 1547.2 L1211.27 1547.64 Q1217.51 1548.98 1220.12 1551.43 Q1222.76 1553.85 1222.76 1558.21 Q1222.76 1563.17 1218.82 1566.07 Q1214.9 1568.97 1208.03 1568.97 Q1205.16 1568.97 1202.04 1568.39 Q1198.95 1567.85 1195.52 1566.74 L1195.52 1560.69 Q1198.76 1562.38 1201.91 1563.24 Q1205.07 1564.07 1208.15 1564.07 Q1212.29 1564.07 1214.52 1562.66 Q1216.75 1561.23 1216.75 1558.65 Q1216.75 1556.27 1215.12 1554.99 Q1213.53 1553.72 1208.09 1552.54 L1206.05 1552.07 Q1200.61 1550.92 1198.19 1548.56 Q1195.77 1546.18 1195.77 1542.04 Q1195.77 1537.01 1199.34 1534.27 Q1202.9 1531.54 1209.46 1531.54 Q1212.7 1531.54 1215.57 1532.01 Q1218.43 1532.49 1220.85 1533.45 Z" fill="#000000" fill-rule="nonzero" fill-opacity="1" /><path clip-path="url(#clip210)" d="M1237.88 1522.27 L1237.88 1532.4 L1249.94 1532.4 L1249.94 1536.95 L1237.88 1536.95 L1237.88 1556.3 Q1237.88 1560.66 1239.06 1561.9 Q1240.27 1563.14 1243.93 1563.14 L1249.94 1563.14 L1249.94 1568.04 L1243.93 1568.04 Q1237.15 1568.04 1234.57 1565.53 Q1231.99 1562.98 1231.99 1556.3 L1231.99 1536.95 L1227.7 1536.95 L1227.7 1532.4 L1231.99 1532.4 L1231.99 1522.27 L1237.88 1522.27 Z" fill="#000000" fill-rule="nonzero" fill-opacity="1" /><path clip-path="url(#clip210)" d="M1278.3 1537.87 Q1277.32 1537.3 1276.14 1537.04 Q1274.99 1536.76 1273.59 1536.76 Q1268.63 1536.76 1265.95 1540 Q1263.31 1543.22 1263.31 1549.27 L1263.31 1568.04 L1257.42 1568.04 L1257.42 1532.4 L1263.31 1532.4 L1263.31 1537.93 Q1265.16 1534.69 1268.12 1533.13 Q1271.08 1531.54 1275.31 1531.54 Q1275.92 1531.54 1276.65 1531.63 Q1277.38 1531.7 1278.27 1531.85 L1278.3 1537.87 Z" fill="#000000" fill-rule="nonzero" fill-opacity="1" /><path clip-path="url(#clip210)" d="M1313.51 1548.76 L1313.51 1551.62 L1286.58 1551.62 Q1286.96 1557.67 1290.21 1560.85 Q1293.49 1564 1299.31 1564 Q1302.68 1564 1305.83 1563.17 Q1309.02 1562.35 1312.14 1560.69 L1312.14 1566.23 Q1308.99 1567.57 1305.68 1568.27 Q1302.37 1568.97 1298.96 1568.97 Q1290.43 1568.97 1285.43 1564 Q1280.47 1559.04 1280.47 1550.57 Q1280.47 1541.82 1285.18 1536.69 Q1289.92 1531.54 1297.94 1531.54 Q1305.13 1531.54 1309.3 1536.18 Q1313.51 1540.8 1313.51 1548.76 M1307.65 1547.04 Q1307.59 1542.23 1304.94 1539.37 Q1302.33 1536.5 1298.01 1536.5 Q1293.1 1536.5 1290.14 1539.27 Q1287.22 1542.04 1286.77 1547.07 L1307.65 1547.04 Z" fill="#000000" fill-rule="nonzero" fill-opacity="1" /><path clip-path="url(#clip210)" d="M1352.75 1546.53 L1352.75 1568.04 L1346.89 1568.04 L1346.89 1546.72 Q1346.89 1541.66 1344.92 1539.14 Q1342.95 1536.63 1339 1536.63 Q1334.26 1536.63 1331.52 1539.65 Q1328.78 1542.68 1328.78 1547.9 L1328.78 1568.04 L1322.9 1568.04 L1322.9 1532.4 L1328.78 1532.4 L1328.78 1537.93 Q1330.88 1534.72 1333.72 1533.13 Q1336.58 1531.54 1340.31 1531.54 Q1346.45 1531.54 1349.6 1535.36 Q1352.75 1539.14 1352.75 1546.53 Z" fill="#000000" fill-rule="nonzero" fill-opacity="1" /><path clip-path="url(#clip210)" d="M1387.89 1549.81 Q1387.89 1543.44 1385.25 1539.94 Q1382.64 1536.44 1377.89 1536.44 Q1373.18 1536.44 1370.54 1539.94 Q1367.93 1543.44 1367.93 1549.81 Q1367.93 1556.14 1370.54 1559.64 Q1373.18 1563.14 1377.89 1563.14 Q1382.64 1563.14 1385.25 1559.64 Q1387.89 1556.14 1387.89 1549.81 M1393.75 1563.62 Q1393.75 1572.72 1389.7 1577.15 Q1385.66 1581.6 1377.32 1581.6 Q1374.23 1581.6 1371.5 1581.13 Q1368.76 1580.68 1366.18 1579.72 L1366.18 1574.03 Q1368.76 1575.43 1371.27 1576.1 Q1373.79 1576.76 1376.4 1576.76 Q1382.16 1576.76 1385.02 1573.74 Q1387.89 1570.75 1387.89 1564.67 L1387.89 1561.77 Q1386.07 1564.92 1383.24 1566.48 Q1380.41 1568.04 1376.46 1568.04 Q1369.91 1568.04 1365.9 1563.05 Q1361.89 1558.05 1361.89 1549.81 Q1361.89 1541.53 1365.9 1536.53 Q1369.91 1531.54 1376.46 1531.54 Q1380.41 1531.54 1383.24 1533.1 Q1386.07 1534.66 1387.89 1537.81 L1387.89 1532.4 L1393.75 1532.4 L1393.75 1563.62 Z" fill="#000000" fill-rule="nonzero" fill-opacity="1" /><path clip-path="url(#clip210)" d="M1411.6 1522.27 L1411.6 1532.4 L1423.66 1532.4 L1423.66 1536.95 L1411.6 1536.95 L1411.6 1556.3 Q1411.6 1560.66 1412.78 1561.9 Q1413.99 1563.14 1417.65 1563.14 L1423.66 1563.14 L1423.66 1568.04 L1417.65 1568.04 Q1410.87 1568.04 1408.29 1565.53 Q1405.71 1562.98 1405.71 1556.3 L1405.71 1536.95 L1401.42 1536.95 L1401.42 1532.4 L1405.71 1532.4 L1405.71 1522.27 L1411.6 1522.27 Z" fill="#000000" fill-rule="nonzero" fill-opacity="1" /><path clip-path="url(#clip210)" d="M1461 1546.53 L1461 1568.04 L1455.14 1568.04 L1455.14 1546.72 Q1455.14 1541.66 1453.17 1539.14 Q1451.2 1536.63 1447.25 1536.63 Q1442.51 1536.63 1439.77 1539.65 Q1437.03 1542.68 1437.03 1547.9 L1437.03 1568.04 L1431.14 1568.04 L1431.14 1518.52 L1437.03 1518.52 L1437.03 1537.93 Q1439.13 1534.72 1441.97 1533.13 Q1444.83 1531.54 1448.55 1531.54 Q1454.7 1531.54 1457.85 1535.36 Q1461 1539.14 1461 1546.53 Z" fill="#000000" fill-rule="nonzero" fill-opacity="1" /><path clip-path="url(#clip210)" d="M1507.44 1524.09 L1523.89 1568.04 L1517.69 1568.04 L1507.69 1541.69 L1495.41 1568.04 L1489.2 1568.04 L1504.83 1533.86 L1502.47 1527.56 Q1500.98 1523.55 1497.57 1523.55 L1494.51 1523.55 L1494.51 1518.52 L1498.24 1518.58 Q1505.43 1518.68 1507.44 1524.09 Z" fill="#000000" fill-rule="nonzero" fill-opacity="1" /><polyline clip-path="url(#clip210)" style="stroke:#000000; stroke-linecap:round; stroke-linejoin:round; stroke-width:4; stroke-opacity:1; fill:none" points="210.376,1423.18 210.376,47.2441 "/>
<polyline clip-path="url(#clip210)" style="stroke:#000000; stroke-linecap:round; stroke-linejoin:round; stroke-width:4; stroke-opacity:1; fill:none" points="210.376,1213.06 229.273,1213.06 "/>
<polyline clip-path="url(#clip210)" style="stroke:#000000; stroke-linecap:round; stroke-linejoin:round; stroke-width:4; stroke-opacity:1; fill:none" points="210.376,827.093 229.273,827.093 "/>
<polyline clip-path="url(#clip210)" style="stroke:#000000; stroke-linecap:round; stroke-linejoin:round; stroke-width:4; stroke-opacity:1; fill:none" points="210.376,441.129 229.273,441.129 "/>
<polyline clip-path="url(#clip210)" style="stroke:#000000; stroke-linecap:round; stroke-linejoin:round; stroke-width:4; stroke-opacity:1; fill:none" points="210.376,55.1657 229.273,55.1657 "/>
<path clip-path="url(#clip210)" d="M114.26 1213.51 L143.936 1213.51 L143.936 1217.44 L114.26 1217.44 L114.26 1213.51 Z" fill="#000000" fill-rule="nonzero" fill-opacity="1" /><path clip-path="url(#clip210)" d="M158.056 1226.4 L174.376 1226.4 L174.376 1230.34 L152.431 1230.34 L152.431 1226.4 Q155.093 1223.65 159.677 1219.02 Q164.283 1214.36 165.464 1213.02 Q167.709 1210.5 168.589 1208.76 Q169.491 1207 169.491 1205.31 Q169.491 1202.56 167.547 1200.82 Q165.626 1199.09 162.524 1199.09 Q160.325 1199.09 157.871 1199.85 Q155.44 1200.62 152.663 1202.17 L152.663 1197.44 Q155.487 1196.31 157.94 1195.73 Q160.394 1195.15 162.431 1195.15 Q167.802 1195.15 170.996 1197.84 Q174.19 1200.52 174.19 1205.01 Q174.19 1207.14 173.38 1209.06 Q172.593 1210.96 170.487 1213.55 Q169.908 1214.23 166.806 1217.44 Q163.704 1220.64 158.056 1226.4 Z" fill="#000000" fill-rule="nonzero" fill-opacity="1" /><path clip-path="url(#clip210)" d="M162.431 812.892 Q158.82 812.892 156.991 816.457 Q155.186 819.998 155.186 827.128 Q155.186 834.234 156.991 837.799 Q158.82 841.341 162.431 841.341 Q166.065 841.341 167.871 837.799 Q169.7 834.234 169.7 827.128 Q169.7 819.998 167.871 816.457 Q166.065 812.892 162.431 812.892 M162.431 809.188 Q168.241 809.188 171.297 813.795 Q174.376 818.378 174.376 827.128 Q174.376 835.855 171.297 840.461 Q168.241 845.045 162.431 845.045 Q156.621 845.045 153.542 840.461 Q150.487 835.855 150.487 827.128 Q150.487 818.378 153.542 813.795 Q156.621 809.188 162.431 809.188 Z" fill="#000000" fill-rule="nonzero" fill-opacity="1" /><path clip-path="url(#clip210)" d="M158.056 454.474 L174.376 454.474 L174.376 458.409 L152.431 458.409 L152.431 454.474 Q155.093 451.72 159.677 447.09 Q164.283 442.437 165.464 441.095 Q167.709 438.572 168.589 436.836 Q169.491 435.076 169.491 433.386 Q169.491 430.632 167.547 428.896 Q165.626 427.16 162.524 427.16 Q160.325 427.16 157.871 427.924 Q155.44 428.687 152.663 430.238 L152.663 425.516 Q155.487 424.382 157.94 423.803 Q160.394 423.224 162.431 423.224 Q167.802 423.224 170.996 425.91 Q174.19 428.595 174.19 433.086 Q174.19 435.215 173.38 437.136 Q172.593 439.035 170.487 441.627 Q169.908 442.298 166.806 445.516 Q163.704 448.71 158.056 454.474 Z" fill="#000000" fill-rule="nonzero" fill-opacity="1" /><path clip-path="url(#clip210)" d="M164.792 41.9597 L152.987 60.4087 L164.792 60.4087 L164.792 41.9597 M163.565 37.8857 L169.445 37.8857 L169.445 60.4087 L174.376 60.4087 L174.376 64.2976 L169.445 64.2976 L169.445 72.4457 L164.792 72.4457 L164.792 64.2976 L149.191 64.2976 L149.191 59.7837 L163.565 37.8857 Z" fill="#000000" fill-rule="nonzero" fill-opacity="1" /><path clip-path="url(#clip210)" d="M44.7161 1038.7 L47.5806 1038.7 L47.5806 1065.62 Q53.6281 1065.24 56.8109 1062 Q59.9619 1058.72 59.9619 1052.89 Q59.9619 1049.52 59.1344 1046.37 Q58.3069 1043.18 56.6518 1040.07 L62.1899 1040.07 Q63.5267 1043.22 64.227 1046.53 Q64.9272 1049.84 64.9272 1053.24 Q64.9272 1061.77 59.9619 1066.77 Q54.9967 1071.74 46.5303 1071.74 Q37.7774 1071.74 32.6531 1067.02 Q27.4968 1062.28 27.4968 1054.26 Q27.4968 1047.07 32.1438 1042.9 Q36.7589 1038.7 44.7161 1038.7 M42.9973 1044.55 Q38.1912 1044.62 35.3266 1047.26 Q32.4621 1049.87 32.4621 1054.2 Q32.4621 1059.1 35.2312 1062.06 Q38.0002 1064.99 43.0292 1065.43 L42.9973 1044.55 Z" fill="#000000" fill-rule="nonzero" fill-opacity="1" /><path clip-path="url(#clip210)" d="M29.4065 1006.36 L34.9447 1006.36 Q33.6716 1008.84 33.035 1011.52 Q32.3984 1014.19 32.3984 1017.05 Q32.3984 1021.41 33.7352 1023.61 Q35.072 1025.77 37.7456 1025.77 Q39.7826 1025.77 40.9603 1024.22 Q42.1061 1022.66 43.1565 1017.94 L43.6021 1015.94 Q44.9389 1009.7 47.3897 1007.09 Q49.8086 1004.45 54.1691 1004.45 Q59.1344 1004.45 62.0308 1008.4 Q64.9272 1012.31 64.9272 1019.19 Q64.9272 1022.05 64.3543 1025.17 Q63.8132 1028.26 62.6992 1031.69 L56.6518 1031.69 Q58.3387 1028.45 59.198 1025.3 Q60.0256 1022.15 60.0256 1019.06 Q60.0256 1014.92 58.6251 1012.69 Q57.1929 1010.47 54.6147 1010.47 Q52.2276 1010.47 50.9545 1012.09 Q49.6813 1013.68 48.5037 1019.12 L48.0262 1021.16 Q46.8804 1026.6 44.5251 1029.02 Q42.138 1031.44 38.0002 1031.44 Q32.9713 1031.44 30.2341 1027.88 Q27.4968 1024.31 27.4968 1017.75 Q27.4968 1014.51 27.9743 1011.64 Q28.4517 1008.78 29.4065 1006.36 Z" fill="#000000" fill-rule="nonzero" fill-opacity="1" /><path clip-path="url(#clip210)" d="M18.2347 989.331 L28.3562 989.331 L28.3562 977.268 L32.9077 977.268 L32.9077 989.331 L52.2594 989.331 Q56.6199 989.331 57.8613 988.153 Q59.1026 986.944 59.1026 983.284 L59.1026 977.268 L64.0042 977.268 L64.0042 983.284 Q64.0042 990.063 61.4897 992.641 Q58.9434 995.219 52.2594 995.219 L32.9077 995.219 L32.9077 999.516 L28.3562 999.516 L28.3562 995.219 L18.2347 995.219 L18.2347 989.331 Z" fill="#000000" fill-rule="nonzero" fill-opacity="1" /><path clip-path="url(#clip210)" d="M28.3562 969.565 L28.3562 963.709 L64.0042 963.709 L64.0042 969.565 L28.3562 969.565 M14.479 969.565 L14.479 963.709 L21.895 963.709 L21.895 969.565 L14.479 969.565 Z" fill="#000000" fill-rule="nonzero" fill-opacity="1" /><path clip-path="url(#clip210)" d="M35.1993 923.701 Q31.2526 921.504 29.3747 918.449 Q27.4968 915.393 27.4968 911.256 Q27.4968 905.686 31.4117 902.662 Q35.2948 899.638 42.4881 899.638 L64.0042 899.638 L64.0042 905.526 L42.679 905.526 Q37.5546 905.526 35.072 907.341 Q32.5894 909.155 32.5894 912.879 Q32.5894 917.43 35.6131 920.072 Q38.6368 922.714 43.8567 922.714 L64.0042 922.714 L64.0042 928.602 L42.679 928.602 Q37.5228 928.602 35.072 930.416 Q32.5894 932.231 32.5894 936.018 Q32.5894 940.506 35.6449 943.148 Q38.6686 945.79 43.8567 945.79 L64.0042 945.79 L64.0042 951.678 L28.3562 951.678 L28.3562 945.79 L33.8944 945.79 Q30.616 943.784 29.0564 940.983 Q27.4968 938.183 27.4968 934.331 Q27.4968 930.448 29.4702 927.743 Q31.4436 925.006 35.1993 923.701 Z" fill="#000000" fill-rule="nonzero" fill-opacity="1" /><path clip-path="url(#clip210)" d="M46.0847 871.756 Q46.0847 878.854 47.7079 881.591 Q49.3312 884.329 53.2461 884.329 Q56.3653 884.329 58.2114 882.292 Q60.0256 880.223 60.0256 876.69 Q60.0256 871.82 56.5881 868.892 Q53.1188 865.932 47.3897 865.932 L46.0847 865.932 L46.0847 871.756 M43.6657 860.075 L64.0042 860.075 L64.0042 865.932 L58.5933 865.932 Q61.8398 867.937 63.3994 870.929 Q64.9272 873.921 64.9272 878.249 Q64.9272 883.724 61.8716 886.97 Q58.7843 890.185 53.6281 890.185 Q47.6125 890.185 44.5569 886.175 Q41.5014 882.132 41.5014 874.144 L41.5014 865.932 L40.9285 865.932 Q36.8862 865.932 34.6901 868.605 Q32.4621 871.247 32.4621 876.053 Q32.4621 879.109 33.1941 882.005 Q33.9262 884.902 35.3903 887.575 L29.9795 887.575 Q28.7381 884.36 28.1334 881.337 Q27.4968 878.313 27.4968 875.448 Q27.4968 867.714 31.5072 863.895 Q35.5176 860.075 43.6657 860.075 Z" fill="#000000" fill-rule="nonzero" fill-opacity="1" /><path clip-path="url(#clip210)" d="M18.2347 842.219 L28.3562 842.219 L28.3562 830.156 L32.9077 830.156 L32.9077 842.219 L52.2594 842.219 Q56.6199 842.219 57.8613 841.042 Q59.1026 839.832 59.1026 836.172 L59.1026 830.156 L64.0042 830.156 L64.0042 836.172 Q64.0042 842.952 61.4897 845.53 Q58.9434 848.108 52.2594 848.108 L32.9077 848.108 L32.9077 852.405 L28.3562 852.405 L28.3562 848.108 L18.2347 848.108 L18.2347 842.219 Z" fill="#000000" fill-rule="nonzero" fill-opacity="1" /><path clip-path="url(#clip210)" d="M44.7161 791.962 L47.5806 791.962 L47.5806 818.889 Q53.6281 818.507 56.8109 815.261 Q59.9619 811.982 59.9619 806.158 Q59.9619 802.784 59.1344 799.633 Q58.3069 796.45 56.6518 793.331 L62.1899 793.331 Q63.5267 796.482 64.227 799.792 Q64.9272 803.102 64.9272 806.508 Q64.9272 815.038 59.9619 820.035 Q54.9967 825 46.5303 825 Q37.7774 825 32.6531 820.29 Q27.4968 815.547 27.4968 807.526 Q27.4968 800.333 32.1438 796.164 Q36.7589 791.962 44.7161 791.962 M42.9973 797.819 Q38.1912 797.882 35.3266 800.524 Q32.4621 803.134 32.4621 807.463 Q32.4621 812.364 35.2312 815.324 Q38.0002 818.253 43.0292 818.698 L42.9973 797.819 Z" fill="#000000" fill-rule="nonzero" fill-opacity="1" /><path clip-path="url(#clip210)" d="M33.7671 758.892 L14.479 758.892 L14.479 753.036 L64.0042 753.036 L64.0042 758.892 L58.657 758.892 Q61.8398 760.738 63.3994 763.571 Q64.9272 766.372 64.9272 770.319 Q64.9272 776.78 59.771 780.854 Q54.6147 784.896 46.212 784.896 Q37.8093 784.896 32.6531 780.854 Q27.4968 776.78 27.4968 770.319 Q27.4968 766.372 29.0564 763.571 Q30.5842 760.738 33.7671 758.892 M46.212 778.849 Q52.6732 778.849 56.3653 776.207 Q60.0256 773.534 60.0256 768.887 Q60.0256 764.24 56.3653 761.566 Q52.6732 758.892 46.212 758.892 Q39.7508 758.892 36.0905 761.566 Q32.3984 764.24 32.3984 768.887 Q32.3984 773.534 36.0905 776.207 Q39.7508 778.849 46.212 778.849 Z" fill="#000000" fill-rule="nonzero" fill-opacity="1" /><path clip-path="url(#clip210)" d="M29.4065 697.527 L34.9447 697.527 Q33.6716 700.01 33.035 702.683 Q32.3984 705.357 32.3984 708.221 Q32.3984 712.582 33.7352 714.778 Q35.072 716.942 37.7456 716.942 Q39.7826 716.942 40.9603 715.383 Q42.1061 713.823 43.1565 709.113 L43.6021 707.107 Q44.9389 700.869 47.3897 698.259 Q49.8086 695.617 54.1691 695.617 Q59.1344 695.617 62.0308 699.564 Q64.9272 703.479 64.9272 710.354 Q64.9272 713.218 64.3543 716.338 Q63.8132 719.425 62.6992 722.862 L56.6518 722.862 Q58.3387 719.616 59.198 716.465 Q60.0256 713.314 60.0256 710.227 Q60.0256 706.089 58.6251 703.861 Q57.1929 701.633 54.6147 701.633 Q52.2276 701.633 50.9545 703.256 Q49.6813 704.848 48.5037 710.29 L48.0262 712.327 Q46.8804 717.77 44.5251 720.189 Q42.138 722.608 38.0002 722.608 Q32.9713 722.608 30.2341 719.043 Q27.4968 715.478 27.4968 708.922 Q27.4968 705.675 27.9743 702.811 Q28.4517 699.946 29.4065 697.527 Z" fill="#000000" fill-rule="nonzero" fill-opacity="1" /><path clip-path="url(#clip210)" d="M18.2347 680.499 L28.3562 680.499 L28.3562 668.436 L32.9077 668.436 L32.9077 680.499 L52.2594 680.499 Q56.6199 680.499 57.8613 679.321 Q59.1026 678.112 59.1026 674.451 L59.1026 668.436 L64.0042 668.436 L64.0042 674.451 Q64.0042 681.231 61.4897 683.809 Q58.9434 686.387 52.2594 686.387 L32.9077 686.387 L32.9077 690.684 L28.3562 690.684 L28.3562 686.387 L18.2347 686.387 L18.2347 680.499 Z" fill="#000000" fill-rule="nonzero" fill-opacity="1" /><path clip-path="url(#clip210)" d="M33.8307 640.076 Q33.2578 641.063 33.0032 642.241 Q32.7167 643.387 32.7167 644.787 Q32.7167 649.752 35.9632 652.426 Q39.1779 655.068 45.2253 655.068 L64.0042 655.068 L64.0042 660.956 L28.3562 660.956 L28.3562 655.068 L33.8944 655.068 Q30.6479 653.222 29.0883 650.262 Q27.4968 647.302 27.4968 643.068 Q27.4968 642.464 27.5923 641.732 Q27.656 641 27.8151 640.108 L33.8307 640.076 Z" fill="#000000" fill-rule="nonzero" fill-opacity="1" /><path clip-path="url(#clip210)" d="M44.7161 604.874 L47.5806 604.874 L47.5806 631.801 Q53.6281 631.419 56.8109 628.173 Q59.9619 624.894 59.9619 619.07 Q59.9619 615.696 59.1344 612.545 Q58.3069 609.362 56.6518 606.243 L62.1899 606.243 Q63.5267 609.394 64.227 612.704 Q64.9272 616.014 64.9272 619.42 Q64.9272 627.95 59.9619 632.947 Q54.9967 637.912 46.5303 637.912 Q37.7774 637.912 32.6531 633.202 Q27.4968 628.459 27.4968 620.438 Q27.4968 613.245 32.1438 609.075 Q36.7589 604.874 44.7161 604.874 M42.9973 610.731 Q38.1912 610.794 35.3266 613.436 Q32.4621 616.046 32.4621 620.375 Q32.4621 625.276 35.2312 628.236 Q38.0002 631.164 43.0292 631.61 L42.9973 610.731 Z" fill="#000000" fill-rule="nonzero" fill-opacity="1" /><path clip-path="url(#clip210)" d="M42.4881 565.63 L64.0042 565.63 L64.0042 571.486 L42.679 571.486 Q37.6183 571.486 35.1038 573.459 Q32.5894 575.433 32.5894 579.379 Q32.5894 584.122 35.6131 586.859 Q38.6368 589.596 43.8567 589.596 L64.0042 589.596 L64.0042 595.485 L28.3562 595.485 L28.3562 589.596 L33.8944 589.596 Q30.6797 587.496 29.0883 584.663 Q27.4968 581.798 27.4968 578.075 Q27.4968 571.932 31.3163 568.781 Q35.1038 565.63 42.4881 565.63 Z" fill="#000000" fill-rule="nonzero" fill-opacity="1" /><path clip-path="url(#clip210)" d="M45.7664 530.491 Q39.4007 530.491 35.8996 533.133 Q32.3984 535.743 32.3984 540.485 Q32.3984 545.196 35.8996 547.837 Q39.4007 550.447 45.7664 550.447 Q52.1003 550.447 55.6014 547.837 Q59.1026 545.196 59.1026 540.485 Q59.1026 535.743 55.6014 533.133 Q52.1003 530.491 45.7664 530.491 M59.58 524.634 Q68.683 524.634 73.1071 528.677 Q77.5631 532.719 77.5631 541.058 Q77.5631 544.145 77.0857 546.883 Q76.6401 549.62 75.6852 552.198 L69.9879 552.198 Q71.3884 549.62 72.0568 547.105 Q72.7252 544.591 72.7252 541.981 Q72.7252 536.22 69.7015 533.355 Q66.7096 530.491 60.6303 530.491 L57.7339 530.491 Q60.885 532.305 62.4446 535.138 Q64.0042 537.971 64.0042 541.917 Q64.0042 548.474 59.0071 552.484 Q54.01 556.495 45.7664 556.495 Q37.491 556.495 32.4939 552.484 Q27.4968 548.474 27.4968 541.917 Q27.4968 537.971 29.0564 535.138 Q30.616 532.305 33.7671 530.491 L28.3562 530.491 L28.3562 524.634 L59.58 524.634 Z" fill="#000000" fill-rule="nonzero" fill-opacity="1" /><path clip-path="url(#clip210)" d="M18.2347 506.779 L28.3562 506.779 L28.3562 494.716 L32.9077 494.716 L32.9077 506.779 L52.2594 506.779 Q56.6199 506.779 57.8613 505.601 Q59.1026 504.391 59.1026 500.731 L59.1026 494.716 L64.0042 494.716 L64.0042 500.731 Q64.0042 507.511 61.4897 510.089 Q58.9434 512.667 52.2594 512.667 L32.9077 512.667 L32.9077 516.964 L28.3562 516.964 L28.3562 512.667 L18.2347 512.667 L18.2347 506.779 Z" fill="#000000" fill-rule="nonzero" fill-opacity="1" /><path clip-path="url(#clip210)" d="M42.4881 457.381 L64.0042 457.381 L64.0042 463.237 L42.679 463.237 Q37.6183 463.237 35.1038 465.211 Q32.5894 467.184 32.5894 471.131 Q32.5894 475.873 35.6131 478.61 Q38.6368 481.348 43.8567 481.348 L64.0042 481.348 L64.0042 487.236 L14.479 487.236 L14.479 481.348 L33.8944 481.348 Q30.6797 479.247 29.0883 476.414 Q27.4968 473.55 27.4968 469.826 Q27.4968 463.683 31.3163 460.532 Q35.1038 457.381 42.4881 457.381 Z" fill="#000000" fill-rule="nonzero" fill-opacity="1" /><path clip-path="url(#clip210)" d="M20.049 410.943 L64.0042 394.488 L64.0042 400.694 L37.6501 410.688 L64.0042 422.974 L64.0042 429.181 L29.8203 413.553 L23.5183 415.908 Q19.5079 417.404 19.5079 420.81 L19.5079 423.865 L14.479 423.865 L14.5426 420.141 Q14.6381 412.948 20.049 410.943 Z" fill="#000000" fill-rule="nonzero" fill-opacity="1" /><path clip-path="url(#clip210)" d="M11.869 411.198 L11.869 406.487 L23.8365 398.689 L23.8365 403.113 L16.0386 408.842 L23.8365 414.571 L23.8365 418.995 L11.869 411.198 M27.4968 408.842 L27.4968 408.842 Z" fill="#000000" fill-rule="nonzero" fill-opacity="1" /><circle clip-path="url(#clip211)" cx="855.556" cy="1011.3" r="10.8" fill="#009af9" fill-rule="evenodd" fill-opacity="1" stroke="#000000" stroke-opacity="1" stroke-width="3.2"/>
<circle clip-path="url(#clip211)" cx="321.723" cy="1345.76" r="10.8" fill="#009af9" fill-rule="evenodd" fill-opacity="1" stroke="#000000" stroke-opacity="1" stroke-width="3.2"/>
<circle clip-path="url(#clip211)" cx="1669.38" cy="482.827" r="10.8" fill="#009af9" fill-rule="evenodd" fill-opacity="1" stroke="#000000" stroke-opacity="1" stroke-width="3.2"/>
<circle clip-path="url(#clip211)" cx="871.78" cy="994.184" r="10.8" fill="#009af9" fill-rule="evenodd" fill-opacity="1" stroke="#000000" stroke-opacity="1" stroke-width="3.2"/>
<circle clip-path="url(#clip211)" cx="370.038" cy="1320.09" r="10.8" fill="#009af9" fill-rule="evenodd" fill-opacity="1" stroke="#000000" stroke-opacity="1" stroke-width="3.2"/>
<circle clip-path="url(#clip211)" cx="1673.06" cy="482.078" r="10.8" fill="#009af9" fill-rule="evenodd" fill-opacity="1" stroke="#000000" stroke-opacity="1" stroke-width="3.2"/>
<circle clip-path="url(#clip211)" cx="1183.32" cy="791.342" r="10.8" fill="#009af9" fill-rule="evenodd" fill-opacity="1" stroke="#000000" stroke-opacity="1" stroke-width="3.2"/>
<circle clip-path="url(#clip211)" cx="1371.63" cy="677.411" r="10.8" fill="#009af9" fill-rule="evenodd" fill-opacity="1" stroke="#000000" stroke-opacity="1" stroke-width="3.2"/>
<circle clip-path="url(#clip211)" cx="1333.77" cy="696.488" r="10.8" fill="#009af9" fill-rule="evenodd" fill-opacity="1" stroke="#000000" stroke-opacity="1" stroke-width="3.2"/>
<circle clip-path="url(#clip211)" cx="765.465" cy="1053.92" r="10.8" fill="#009af9" fill-rule="evenodd" fill-opacity="1" stroke="#000000" stroke-opacity="1" stroke-width="3.2"/>
<circle clip-path="url(#clip211)" cx="1947.05" cy="304.283" r="10.8" fill="#009af9" fill-rule="evenodd" fill-opacity="1" stroke="#000000" stroke-opacity="1" stroke-width="3.2"/>
<circle clip-path="url(#clip211)" cx="1890.43" cy="334.377" r="10.8" fill="#009af9" fill-rule="evenodd" fill-opacity="1" stroke="#000000" stroke-opacity="1" stroke-width="3.2"/>
<circle clip-path="url(#clip211)" cx="1971.62" cy="293.183" r="10.8" fill="#009af9" fill-rule="evenodd" fill-opacity="1" stroke="#000000" stroke-opacity="1" stroke-width="3.2"/>
<circle clip-path="url(#clip211)" cx="1487.36" cy="602.777" r="10.8" fill="#009af9" fill-rule="evenodd" fill-opacity="1" stroke="#000000" stroke-opacity="1" stroke-width="3.2"/>
<circle clip-path="url(#clip211)" cx="916.472" cy="969.098" r="10.8" fill="#009af9" fill-rule="evenodd" fill-opacity="1" stroke="#000000" stroke-opacity="1" stroke-width="3.2"/>
<circle clip-path="url(#clip211)" cx="1000.16" cy="903.329" r="10.8" fill="#009af9" fill-rule="evenodd" fill-opacity="1" stroke="#000000" stroke-opacity="1" stroke-width="3.2"/>
<circle clip-path="url(#clip211)" cx="498.623" cy="1237.59" r="10.8" fill="#009af9" fill-rule="evenodd" fill-opacity="1" stroke="#000000" stroke-opacity="1" stroke-width="3.2"/>
<circle clip-path="url(#clip211)" cx="1519.42" cy="576.474" r="10.8" fill="#009af9" fill-rule="evenodd" fill-opacity="1" stroke="#000000" stroke-opacity="1" stroke-width="3.2"/>
<circle clip-path="url(#clip211)" cx="291.602" cy="1360.6" r="10.8" fill="#009af9" fill-rule="evenodd" fill-opacity="1" stroke="#000000" stroke-opacity="1" stroke-width="3.2"/>
<circle clip-path="url(#clip211)" cx="790.69" cy="1048.38" r="10.8" fill="#009af9" fill-rule="evenodd" fill-opacity="1" stroke="#000000" stroke-opacity="1" stroke-width="3.2"/>
<circle clip-path="url(#clip211)" cx="1535.29" cy="570.214" r="10.8" fill="#009af9" fill-rule="evenodd" fill-opacity="1" stroke="#000000" stroke-opacity="1" stroke-width="3.2"/>
<circle clip-path="url(#clip211)" cx="1750.69" cy="436.321" r="10.8" fill="#009af9" fill-rule="evenodd" fill-opacity="1" stroke="#000000" stroke-opacity="1" stroke-width="3.2"/>
<circle clip-path="url(#clip211)" cx="1314.04" cy="718.04" r="10.8" fill="#009af9" fill-rule="evenodd" fill-opacity="1" stroke="#000000" stroke-opacity="1" stroke-width="3.2"/>
<circle clip-path="url(#clip211)" cx="1948.17" cy="300.735" r="10.8" fill="#009af9" fill-rule="evenodd" fill-opacity="1" stroke="#000000" stroke-opacity="1" stroke-width="3.2"/>
<circle clip-path="url(#clip211)" cx="706.074" cy="1096.41" r="10.8" fill="#009af9" fill-rule="evenodd" fill-opacity="1" stroke="#000000" stroke-opacity="1" stroke-width="3.2"/>
<circle clip-path="url(#clip211)" cx="800.856" cy="1042.96" r="10.8" fill="#009af9" fill-rule="evenodd" fill-opacity="1" stroke="#000000" stroke-opacity="1" stroke-width="3.2"/>
<circle clip-path="url(#clip211)" cx="1541.71" cy="562.804" r="10.8" fill="#009af9" fill-rule="evenodd" fill-opacity="1" stroke="#000000" stroke-opacity="1" stroke-width="3.2"/>
<circle clip-path="url(#clip211)" cx="1261" cy="752.819" r="10.8" fill="#009af9" fill-rule="evenodd" fill-opacity="1" stroke="#000000" stroke-opacity="1" stroke-width="3.2"/>
<circle clip-path="url(#clip211)" cx="1477.54" cy="608.743" r="10.8" fill="#009af9" fill-rule="evenodd" fill-opacity="1" stroke="#000000" stroke-opacity="1" stroke-width="3.2"/>
<circle clip-path="url(#clip211)" cx="1203.9" cy="789.317" r="10.8" fill="#009af9" fill-rule="evenodd" fill-opacity="1" stroke="#000000" stroke-opacity="1" stroke-width="3.2"/>
<circle clip-path="url(#clip211)" cx="1280.92" cy="732.5" r="10.8" fill="#009af9" fill-rule="evenodd" fill-opacity="1" stroke="#000000" stroke-opacity="1" stroke-width="3.2"/>
<circle clip-path="url(#clip211)" cx="604.009" cy="1163.34" r="10.8" fill="#009af9" fill-rule="evenodd" fill-opacity="1" stroke="#000000" stroke-opacity="1" stroke-width="3.2"/>
<circle clip-path="url(#clip211)" cx="648.908" cy="1125.85" r="10.8" fill="#009af9" fill-rule="evenodd" fill-opacity="1" stroke="#000000" stroke-opacity="1" stroke-width="3.2"/>
<circle clip-path="url(#clip211)" cx="2007.93" cy="264.548" r="10.8" fill="#009af9" fill-rule="evenodd" fill-opacity="1" stroke="#000000" stroke-opacity="1" stroke-width="3.2"/>
<circle clip-path="url(#clip211)" cx="443.914" cy="1272.51" r="10.8" fill="#009af9" fill-rule="evenodd" fill-opacity="1" stroke="#000000" stroke-opacity="1" stroke-width="3.2"/>
<circle clip-path="url(#clip211)" cx="271.009" cy="1384.24" r="10.8" fill="#009af9" fill-rule="evenodd" fill-opacity="1" stroke="#000000" stroke-opacity="1" stroke-width="3.2"/>
<circle clip-path="url(#clip211)" cx="1237.3" cy="765.467" r="10.8" fill="#009af9" fill-rule="evenodd" fill-opacity="1" stroke="#000000" stroke-opacity="1" stroke-width="3.2"/>
<circle clip-path="url(#clip211)" cx="1467.67" cy="612.884" r="10.8" fill="#009af9" fill-rule="evenodd" fill-opacity="1" stroke="#000000" stroke-opacity="1" stroke-width="3.2"/>
<circle clip-path="url(#clip211)" cx="630.203" cy="1148.02" r="10.8" fill="#009af9" fill-rule="evenodd" fill-opacity="1" stroke="#000000" stroke-opacity="1" stroke-width="3.2"/>
<circle clip-path="url(#clip211)" cx="302.871" cy="1364.53" r="10.8" fill="#009af9" fill-rule="evenodd" fill-opacity="1" stroke="#000000" stroke-opacity="1" stroke-width="3.2"/>
<circle clip-path="url(#clip211)" cx="1500.46" cy="596.855" r="10.8" fill="#009af9" fill-rule="evenodd" fill-opacity="1" stroke="#000000" stroke-opacity="1" stroke-width="3.2"/>
<circle clip-path="url(#clip211)" cx="762.932" cy="1067.39" r="10.8" fill="#009af9" fill-rule="evenodd" fill-opacity="1" stroke="#000000" stroke-opacity="1" stroke-width="3.2"/>
<circle clip-path="url(#clip211)" cx="1720.17" cy="445.755" r="10.8" fill="#009af9" fill-rule="evenodd" fill-opacity="1" stroke="#000000" stroke-opacity="1" stroke-width="3.2"/>
<circle clip-path="url(#clip211)" cx="1136.2" cy="826.605" r="10.8" fill="#009af9" fill-rule="evenodd" fill-opacity="1" stroke="#000000" stroke-opacity="1" stroke-width="3.2"/>
<circle clip-path="url(#clip211)" cx="802.256" cy="1039.17" r="10.8" fill="#009af9" fill-rule="evenodd" fill-opacity="1" stroke="#000000" stroke-opacity="1" stroke-width="3.2"/>
<circle clip-path="url(#clip211)" cx="2292.12" cy="86.1857" r="10.8" fill="#009af9" fill-rule="evenodd" fill-opacity="1" stroke="#000000" stroke-opacity="1" stroke-width="3.2"/>
<circle clip-path="url(#clip211)" cx="1010.59" cy="904.169" r="10.8" fill="#009af9" fill-rule="evenodd" fill-opacity="1" stroke="#000000" stroke-opacity="1" stroke-width="3.2"/>
<circle clip-path="url(#clip211)" cx="1660.67" cy="486.834" r="10.8" fill="#009af9" fill-rule="evenodd" fill-opacity="1" stroke="#000000" stroke-opacity="1" stroke-width="3.2"/>
<circle clip-path="url(#clip211)" cx="661.549" cy="1133.36" r="10.8" fill="#009af9" fill-rule="evenodd" fill-opacity="1" stroke="#000000" stroke-opacity="1" stroke-width="3.2"/>
<circle clip-path="url(#clip211)" cx="833.34" cy="1023.94" r="10.8" fill="#009af9" fill-rule="evenodd" fill-opacity="1" stroke="#000000" stroke-opacity="1" stroke-width="3.2"/>
<circle clip-path="url(#clip211)" cx="1265.28" cy="738.548" r="10.8" fill="#009af9" fill-rule="evenodd" fill-opacity="1" stroke="#000000" stroke-opacity="1" stroke-width="3.2"/>
<circle clip-path="url(#clip211)" cx="1367.06" cy="681.122" r="10.8" fill="#009af9" fill-rule="evenodd" fill-opacity="1" stroke="#000000" stroke-opacity="1" stroke-width="3.2"/>
<circle clip-path="url(#clip211)" cx="1085.87" cy="855.253" r="10.8" fill="#009af9" fill-rule="evenodd" fill-opacity="1" stroke="#000000" stroke-opacity="1" stroke-width="3.2"/>
<circle clip-path="url(#clip211)" cx="588.493" cy="1179.15" r="10.8" fill="#009af9" fill-rule="evenodd" fill-opacity="1" stroke="#000000" stroke-opacity="1" stroke-width="3.2"/>
<circle clip-path="url(#clip211)" cx="541.327" cy="1213.83" r="10.8" fill="#009af9" fill-rule="evenodd" fill-opacity="1" stroke="#000000" stroke-opacity="1" stroke-width="3.2"/>
<circle clip-path="url(#clip211)" cx="1335.21" cy="699.586" r="10.8" fill="#009af9" fill-rule="evenodd" fill-opacity="1" stroke="#000000" stroke-opacity="1" stroke-width="3.2"/>
<circle clip-path="url(#clip211)" cx="1211.75" cy="772.977" r="10.8" fill="#009af9" fill-rule="evenodd" fill-opacity="1" stroke="#000000" stroke-opacity="1" stroke-width="3.2"/>
<circle clip-path="url(#clip211)" cx="504.448" cy="1224.53" r="10.8" fill="#009af9" fill-rule="evenodd" fill-opacity="1" stroke="#000000" stroke-opacity="1" stroke-width="3.2"/>
<circle clip-path="url(#clip211)" cx="1711.03" cy="456.052" r="10.8" fill="#009af9" fill-rule="evenodd" fill-opacity="1" stroke="#000000" stroke-opacity="1" stroke-width="3.2"/>
<circle clip-path="url(#clip211)" cx="857.15" cy="996.528" r="10.8" fill="#009af9" fill-rule="evenodd" fill-opacity="1" stroke="#000000" stroke-opacity="1" stroke-width="3.2"/>
<polyline clip-path="url(#clip211)" style="stroke:#000000; stroke-linecap:round; stroke-linejoin:round; stroke-width:4; stroke-opacity:1; fill:none" stroke-dasharray="16, 10" points="271.009,1374.91 291.874,1361.66 414.081,1284.04 470.932,1247.93 547.132,1199.53 610.098,1159.54 668.649,1122.35 742.152,1075.67 808.084,1033.79 883.552,985.857 939.964,950.027 1012.12,904.2 1077.97,862.373 1152.92,814.77 1212.34,777.033 1286.15,730.15 1342.68,694.245 1422.38,643.625 1481.94,605.797 1549.67,562.778 1616.75,520.175 1690.54,473.303 1746.91,437.502 1818.04,392.323 1883.83,350.537 1951.68,307.443 2020.46,263.761 2092.27,218.15 2148.84,182.22 2277.67,100.395 2292.12,91.2141 "/>
<path clip-path="url(#clip210)" d="M281.788 248.629 L882.089 248.629 L882.089 93.1086 L281.788 93.1086  Z" fill="#ffffff" fill-rule="evenodd" fill-opacity="1"/>
<polyline clip-path="url(#clip210)" style="stroke:#000000; stroke-linecap:round; stroke-linejoin:round; stroke-width:4; stroke-opacity:1; fill:none" points="281.788,248.629 882.089,248.629 882.089,93.1086 281.788,93.1086 281.788,248.629 "/>
<circle clip-path="url(#clip210)" cx="377.005" cy="144.949" r="19.7486" fill="#009af9" fill-rule="evenodd" fill-opacity="1" stroke="#000000" stroke-opacity="1" stroke-width="5.85143"/>
<path clip-path="url(#clip210)" d="M472.222 136.303 L476.481 136.303 L476.481 162.229 L472.222 162.229 L472.222 136.303 M472.222 126.21 L476.481 126.21 L476.481 131.604 L472.222 131.604 L472.222 126.21 Z" fill="#000000" fill-rule="nonzero" fill-opacity="1" /><path clip-path="url(#clip210)" d="M489.606 128.942 L489.606 136.303 L498.379 136.303 L498.379 139.613 L489.606 139.613 L489.606 153.687 Q489.606 156.858 490.463 157.761 Q491.342 158.664 494.004 158.664 L498.379 158.664 L498.379 162.229 L494.004 162.229 Q489.074 162.229 487.199 160.4 Q485.324 158.548 485.324 153.687 L485.324 139.613 L482.199 139.613 L482.199 136.303 L485.324 136.303 L485.324 128.942 L489.606 128.942 Z" fill="#000000" fill-rule="nonzero" fill-opacity="1" /><path clip-path="url(#clip210)" d="M526.157 148.201 L526.157 150.284 L506.574 150.284 Q506.852 154.682 509.213 156.997 Q511.597 159.289 515.833 159.289 Q518.287 159.289 520.578 158.687 Q522.893 158.085 525.162 156.881 L525.162 160.909 Q522.87 161.881 520.463 162.391 Q518.055 162.9 515.578 162.9 Q509.375 162.9 505.74 159.289 Q502.129 155.678 502.129 149.52 Q502.129 143.155 505.555 139.428 Q509.004 135.678 514.838 135.678 Q520.069 135.678 523.101 139.057 Q526.157 142.414 526.157 148.201 M521.898 146.951 Q521.851 143.456 519.93 141.372 Q518.032 139.289 514.884 139.289 Q511.319 139.289 509.166 141.303 Q507.037 143.317 506.713 146.974 L521.898 146.951 Z" fill="#000000" fill-rule="nonzero" fill-opacity="1" /><path clip-path="url(#clip210)" d="M553.333 141.28 Q554.93 138.409 557.152 137.044 Q559.374 135.678 562.384 135.678 Q566.435 135.678 568.634 138.525 Q570.833 141.349 570.833 146.581 L570.833 162.229 L566.55 162.229 L566.55 146.719 Q566.55 142.993 565.231 141.187 Q563.911 139.382 561.203 139.382 Q557.893 139.382 555.972 141.581 Q554.05 143.78 554.05 147.576 L554.05 162.229 L549.768 162.229 L549.768 146.719 Q549.768 142.969 548.449 141.187 Q547.129 139.382 544.374 139.382 Q541.111 139.382 539.189 141.604 Q537.268 143.803 537.268 147.576 L537.268 162.229 L532.986 162.229 L532.986 136.303 L537.268 136.303 L537.268 140.331 Q538.726 137.946 540.763 136.812 Q542.8 135.678 545.601 135.678 Q548.425 135.678 550.393 137.113 Q552.384 138.548 553.333 141.28 Z" fill="#000000" fill-rule="nonzero" fill-opacity="1" /><path clip-path="url(#clip210)" d="M595.856 137.067 L595.856 141.094 Q594.05 140.169 592.106 139.706 Q590.161 139.243 588.078 139.243 Q584.907 139.243 583.309 140.215 Q581.735 141.187 581.735 143.131 Q581.735 144.613 582.87 145.469 Q584.004 146.303 587.43 147.067 L588.888 147.391 Q593.425 148.363 595.323 150.145 Q597.245 151.905 597.245 155.076 Q597.245 158.687 594.374 160.793 Q591.527 162.9 586.527 162.9 Q584.444 162.9 582.175 162.483 Q579.93 162.09 577.43 161.28 L577.43 156.881 Q579.791 158.108 582.083 158.733 Q584.374 159.335 586.62 159.335 Q589.629 159.335 591.249 158.317 Q592.87 157.275 592.87 155.4 Q592.87 153.664 591.689 152.738 Q590.532 151.812 586.573 150.956 L585.092 150.608 Q581.134 149.775 579.374 148.062 Q577.615 146.326 577.615 143.317 Q577.615 139.659 580.208 137.669 Q582.8 135.678 587.569 135.678 Q589.93 135.678 592.013 136.025 Q594.096 136.372 595.856 137.067 Z" fill="#000000" fill-rule="nonzero" fill-opacity="1" /><polyline clip-path="url(#clip210)" style="stroke:#000000; stroke-linecap:round; stroke-linejoin:round; stroke-width:4; stroke-opacity:1; fill:none" stroke-dasharray="16, 10" points="305.592,196.789 448.418,196.789 "/>
<path clip-path="url(#clip210)" d="M476.504 210.18 L476.504 223.93 L472.222 223.93 L472.222 188.143 L476.504 188.143 L476.504 192.078 Q477.847 189.763 479.884 188.652 Q481.944 187.518 484.791 187.518 Q489.514 187.518 492.453 191.268 Q495.416 195.018 495.416 201.129 Q495.416 207.24 492.453 210.99 Q489.514 214.74 484.791 214.74 Q481.944 214.74 479.884 213.629 Q477.847 212.495 476.504 210.18 M490.995 201.129 Q490.995 196.43 489.051 193.768 Q487.129 191.083 483.75 191.083 Q480.37 191.083 478.426 193.768 Q476.504 196.43 476.504 201.129 Q476.504 205.828 478.426 208.513 Q480.37 211.175 483.75 211.175 Q487.129 211.175 489.051 208.513 Q490.995 205.828 490.995 201.129 Z" fill="#000000" fill-rule="nonzero" fill-opacity="1" /><path clip-path="url(#clip210)" d="M524.652 200.041 L524.652 202.124 L505.069 202.124 Q505.347 206.522 507.708 208.837 Q510.092 211.129 514.328 211.129 Q516.782 211.129 519.074 210.527 Q521.388 209.925 523.657 208.721 L523.657 212.749 Q521.365 213.721 518.958 214.231 Q516.551 214.74 514.074 214.74 Q507.87 214.74 504.236 211.129 Q500.625 207.518 500.625 201.36 Q500.625 194.995 504.051 191.268 Q507.5 187.518 513.333 187.518 Q518.564 187.518 521.597 190.897 Q524.652 194.254 524.652 200.041 M520.393 198.791 Q520.347 195.296 518.426 193.212 Q516.527 191.129 513.379 191.129 Q509.814 191.129 507.662 193.143 Q505.532 195.157 505.208 198.814 L520.393 198.791 Z" fill="#000000" fill-rule="nonzero" fill-opacity="1" /><path clip-path="url(#clip210)" d="M546.666 192.124 Q545.949 191.708 545.092 191.522 Q544.259 191.314 543.24 191.314 Q539.629 191.314 537.685 193.675 Q535.763 196.013 535.763 200.411 L535.763 214.069 L531.481 214.069 L531.481 188.143 L535.763 188.143 L535.763 192.171 Q537.106 189.809 539.259 188.675 Q541.412 187.518 544.49 187.518 Q544.93 187.518 545.462 187.587 Q545.995 187.634 546.643 187.749 L546.666 192.124 Z" fill="#000000" fill-rule="nonzero" fill-opacity="1" /><path clip-path="url(#clip210)" d="M564.259 178.05 L564.259 181.592 L560.185 181.592 Q557.893 181.592 556.99 182.518 Q556.111 183.444 556.111 185.851 L556.111 188.143 L563.124 188.143 L563.124 191.453 L556.111 191.453 L556.111 214.069 L551.828 214.069 L551.828 191.453 L547.754 191.453 L547.754 188.143 L551.828 188.143 L551.828 186.337 Q551.828 182.009 553.842 180.041 Q555.856 178.05 560.231 178.05 L564.259 178.05 Z" fill="#000000" fill-rule="nonzero" fill-opacity="1" /><path clip-path="url(#clip210)" d="M589.999 200.041 L589.999 202.124 L570.416 202.124 Q570.694 206.522 573.055 208.837 Q575.439 211.129 579.675 211.129 Q582.129 211.129 584.421 210.527 Q586.735 209.925 589.004 208.721 L589.004 212.749 Q586.712 213.721 584.305 214.231 Q581.897 214.74 579.421 214.74 Q573.217 214.74 569.583 211.129 Q565.972 207.518 565.972 201.36 Q565.972 194.995 569.397 191.268 Q572.847 187.518 578.68 187.518 Q583.911 187.518 586.944 190.897 Q589.999 194.254 589.999 200.041 M585.74 198.791 Q585.694 195.296 583.772 193.212 Q581.874 191.129 578.726 191.129 Q575.161 191.129 573.009 193.143 Q570.879 195.157 570.555 198.814 L585.74 198.791 Z" fill="#000000" fill-rule="nonzero" fill-opacity="1" /><path clip-path="url(#clip210)" d="M615.647 189.138 L615.647 193.12 Q613.842 192.124 612.013 191.638 Q610.207 191.129 608.356 191.129 Q604.212 191.129 601.92 193.768 Q599.629 196.384 599.629 201.129 Q599.629 205.874 601.92 208.513 Q604.212 211.129 608.356 211.129 Q610.207 211.129 612.013 210.643 Q613.842 210.133 615.647 209.138 L615.647 213.073 Q613.865 213.907 611.944 214.323 Q610.045 214.74 607.893 214.74 Q602.036 214.74 598.587 211.059 Q595.138 207.379 595.138 201.129 Q595.138 194.786 598.61 191.152 Q602.106 187.518 608.17 187.518 Q610.138 187.518 612.013 187.935 Q613.888 188.328 615.647 189.138 Z" fill="#000000" fill-rule="nonzero" fill-opacity="1" /><path clip-path="url(#clip210)" d="M627.268 180.782 L627.268 188.143 L636.041 188.143 L636.041 191.453 L627.268 191.453 L627.268 205.527 Q627.268 208.698 628.124 209.601 Q629.004 210.504 631.666 210.504 L636.041 210.504 L636.041 214.069 L631.666 214.069 Q626.735 214.069 624.86 212.24 Q622.985 210.388 622.985 205.527 L622.985 191.453 L619.86 191.453 L619.86 188.143 L622.985 188.143 L622.985 180.782 L627.268 180.782 Z" fill="#000000" fill-rule="nonzero" fill-opacity="1" /><path clip-path="url(#clip210)" d="M671.735 192.124 Q671.017 191.708 670.161 191.522 Q669.327 191.314 668.309 191.314 Q664.698 191.314 662.753 193.675 Q660.832 196.013 660.832 200.411 L660.832 214.069 L656.55 214.069 L656.55 188.143 L660.832 188.143 L660.832 192.171 Q662.175 189.809 664.328 188.675 Q666.48 187.518 669.559 187.518 Q669.999 187.518 670.531 187.587 Q671.064 187.634 671.712 187.749 L671.735 192.124 Z" fill="#000000" fill-rule="nonzero" fill-opacity="1" /><path clip-path="url(#clip210)" d="M697.337 200.041 L697.337 202.124 L677.753 202.124 Q678.031 206.522 680.392 208.837 Q682.776 211.129 687.013 211.129 Q689.466 211.129 691.758 210.527 Q694.073 209.925 696.341 208.721 L696.341 212.749 Q694.05 213.721 691.642 214.231 Q689.235 214.74 686.758 214.74 Q680.554 214.74 676.92 211.129 Q673.309 207.518 673.309 201.36 Q673.309 194.995 676.735 191.268 Q680.184 187.518 686.017 187.518 Q691.249 187.518 694.281 190.897 Q697.337 194.254 697.337 200.041 M693.077 198.791 Q693.031 195.296 691.11 193.212 Q689.212 191.129 686.064 191.129 Q682.499 191.129 680.346 193.143 Q678.216 195.157 677.892 198.814 L693.077 198.791 Z" fill="#000000" fill-rule="nonzero" fill-opacity="1" /><path clip-path="url(#clip210)" d="M722.985 189.138 L722.985 193.12 Q721.179 192.124 719.35 191.638 Q717.545 191.129 715.693 191.129 Q711.549 191.129 709.258 193.768 Q706.966 196.384 706.966 201.129 Q706.966 205.874 709.258 208.513 Q711.549 211.129 715.693 211.129 Q717.545 211.129 719.35 210.643 Q721.179 210.133 722.985 209.138 L722.985 213.073 Q721.202 213.907 719.281 214.323 Q717.383 214.74 715.23 214.74 Q709.374 214.74 705.925 211.059 Q702.475 207.379 702.475 201.129 Q702.475 194.786 705.948 191.152 Q709.443 187.518 715.508 187.518 Q717.475 187.518 719.35 187.935 Q721.225 188.328 722.985 189.138 Z" fill="#000000" fill-rule="nonzero" fill-opacity="1" /><path clip-path="url(#clip210)" d="M740.438 191.129 Q737.012 191.129 735.022 193.814 Q733.031 196.476 733.031 201.129 Q733.031 205.782 734.998 208.467 Q736.989 211.129 740.438 211.129 Q743.841 211.129 745.832 208.444 Q747.822 205.758 747.822 201.129 Q747.822 196.522 745.832 193.837 Q743.841 191.129 740.438 191.129 M740.438 187.518 Q745.994 187.518 749.165 191.129 Q752.336 194.74 752.336 201.129 Q752.336 207.495 749.165 211.129 Q745.994 214.74 740.438 214.74 Q734.86 214.74 731.688 211.129 Q728.54 207.495 728.54 201.129 Q728.54 194.74 731.688 191.129 Q734.86 187.518 740.438 187.518 Z" fill="#000000" fill-rule="nonzero" fill-opacity="1" /><path clip-path="url(#clip210)" d="M756.341 188.143 L760.855 188.143 L768.957 209.902 L777.058 188.143 L781.572 188.143 L771.85 214.069 L766.063 214.069 L756.341 188.143 Z" fill="#000000" fill-rule="nonzero" fill-opacity="1" /><path clip-path="url(#clip210)" d="M809.628 200.041 L809.628 202.124 L790.044 202.124 Q790.322 206.522 792.683 208.837 Q795.068 211.129 799.304 211.129 Q801.757 211.129 804.049 210.527 Q806.364 209.925 808.632 208.721 L808.632 212.749 Q806.341 213.721 803.933 214.231 Q801.526 214.74 799.049 214.74 Q792.845 214.74 789.211 211.129 Q785.6 207.518 785.6 201.36 Q785.6 194.995 789.026 191.268 Q792.475 187.518 798.308 187.518 Q803.54 187.518 806.572 190.897 Q809.628 194.254 809.628 200.041 M805.368 198.791 Q805.322 195.296 803.401 193.212 Q801.503 191.129 798.355 191.129 Q794.79 191.129 792.637 193.143 Q790.507 195.157 790.183 198.814 L805.368 198.791 Z" fill="#000000" fill-rule="nonzero" fill-opacity="1" /><path clip-path="url(#clip210)" d="M831.641 192.124 Q830.924 191.708 830.067 191.522 Q829.234 191.314 828.216 191.314 Q824.604 191.314 822.66 193.675 Q820.739 196.013 820.739 200.411 L820.739 214.069 L816.456 214.069 L816.456 188.143 L820.739 188.143 L820.739 192.171 Q822.081 189.809 824.234 188.675 Q826.387 187.518 829.466 187.518 Q829.905 187.518 830.438 187.587 Q830.97 187.634 831.618 187.749 L831.641 192.124 Z" fill="#000000" fill-rule="nonzero" fill-opacity="1" /><path clip-path="url(#clip210)" d="M846.896 216.476 Q845.09 221.106 843.377 222.518 Q841.665 223.93 838.794 223.93 L835.391 223.93 L835.391 220.365 L837.891 220.365 Q839.651 220.365 840.623 219.532 Q841.595 218.698 842.776 215.596 L843.54 213.652 L833.053 188.143 L837.567 188.143 L845.669 208.421 L853.771 188.143 L858.285 188.143 L846.896 216.476 Z" fill="#000000" fill-rule="nonzero" fill-opacity="1" /></svg>
