<?xml version="1.0" encoding="utf-8"?>
<svg xmlns="http://www.w3.org/2000/svg" xmlns:xlink="http://www.w3.org/1999/xlink" width="600" height="400" viewBox="0 0 2400 1600">
<defs>
  <clipPath id="clip940">
    <rect x="0" y="0" width="2400" height="1600"/>
  </clipPath>
</defs>
<path clip-path="url(#clip940)" d="M0 1600 L2400 1600 L2400 0 L0 0  Z" fill="#ffffff" fill-rule="evenodd" fill-opacity="1"/>
<defs>
  <clipPath id="clip941">
    <rect x="257" y="47" width="2097" height="1377"/>
  </clipPath>
</defs>
<path clip-path="url(#clip940)" d="M257.204 1423.18 L2352.76 1423.18 L2352.76 47.2441 L257.204 47.2441  Z" fill="#ffffff" fill-rule="evenodd" fill-opacity="1"/>
<polyline clip-path="url(#clip941)" style="stroke:#000000; stroke-linecap:round; stroke-linejoin:round; stroke-width:2; stroke-opacity:0.1; fill:none" points="316.512,1423.18 316.512,47.2441 "/>
<polyline clip-path="url(#clip941)" style="stroke:#000000; stroke-linecap:round; stroke-linejoin:round; stroke-width:2; stroke-opacity:0.1; fill:none" points="810.746,1423.18 810.746,47.2441 "/>
<polyline clip-path="url(#clip941)" style="stroke:#000000; stroke-linecap:round; stroke-linejoin:round; stroke-width:2; stroke-opacity:0.1; fill:none" points="1304.98,1423.18 1304.98,47.2441 "/>
<polyline clip-path="url(#clip941)" style="stroke:#000000; stroke-linecap:round; stroke-linejoin:round; stroke-width:2; stroke-opacity:0.1; fill:none" points="1799.21,1423.18 1799.21,47.2441 "/>
<polyline clip-path="url(#clip941)" style="stroke:#000000; stroke-linecap:round; stroke-linejoin:round; stroke-width:2; stroke-opacity:0.1; fill:none" points="2293.45,1423.18 2293.45,47.2441 "/>
<polyline clip-path="url(#clip941)" style="stroke:#000000; stroke-linecap:round; stroke-linejoin:round; stroke-width:2; stroke-opacity:0.1; fill:none" points="257.204,1361.64 2352.76,1361.64 "/>
<polyline clip-path="url(#clip941)" style="stroke:#000000; stroke-linecap:round; stroke-linejoin:round; stroke-width:2; stroke-opacity:0.1; fill:none" points="257.204,1112.8 2352.76,1112.8 "/>
<polyline clip-path="url(#clip941)" style="stroke:#000000; stroke-linecap:round; stroke-linejoin:round; stroke-width:2; stroke-opacity:0.1; fill:none" points="257.204,863.961 2352.76,863.961 "/>
<polyline clip-path="url(#clip941)" style="stroke:#000000; stroke-linecap:round; stroke-linejoin:round; stroke-width:2; stroke-opacity:0.1; fill:none" points="257.204,615.121 2352.76,615.121 "/>
<polyline clip-path="url(#clip941)" style="stroke:#000000; stroke-linecap:round; stroke-linejoin:round; stroke-width:2; stroke-opacity:0.1; fill:none" points="257.204,366.281 2352.76,366.281 "/>
<polyline clip-path="url(#clip941)" style="stroke:#000000; stroke-linecap:round; stroke-linejoin:round; stroke-width:2; stroke-opacity:0.1; fill:none" points="257.204,117.441 2352.76,117.441 "/>
<polyline clip-path="url(#clip940)" style="stroke:#000000; stroke-linecap:round; stroke-linejoin:round; stroke-width:4; stroke-opacity:1; fill:none" points="257.204,1423.18 2352.76,1423.18 "/>
<polyline clip-path="url(#clip940)" style="stroke:#000000; stroke-linecap:round; stroke-linejoin:round; stroke-width:4; stroke-opacity:1; fill:none" points="316.512,1423.18 316.512,1404.28 "/>
<polyline clip-path="url(#clip940)" style="stroke:#000000; stroke-linecap:round; stroke-linejoin:round; stroke-width:4; stroke-opacity:1; fill:none" points="810.746,1423.18 810.746,1404.28 "/>
<polyline clip-path="url(#clip940)" style="stroke:#000000; stroke-linecap:round; stroke-linejoin:round; stroke-width:4; stroke-opacity:1; fill:none" points="1304.98,1423.18 1304.98,1404.28 "/>
<polyline clip-path="url(#clip940)" style="stroke:#000000; stroke-linecap:round; stroke-linejoin:round; stroke-width:4; stroke-opacity:1; fill:none" points="1799.21,1423.18 1799.21,1404.28 "/>
<polyline clip-path="url(#clip940)" style="stroke:#000000; stroke-linecap:round; stroke-linejoin:round; stroke-width:4; stroke-opacity:1; fill:none" points="2293.45,1423.18 2293.45,1404.28 "/>
<path clip-path="url(#clip940)" d="M314.926 1459.65 L305.552 1472.27 L315.413 1485.58 L310.389 1485.58 L302.843 1475.39 L295.297 1485.58 L290.274 1485.58 L300.343 1472.02 L291.13 1459.65 L296.153 1459.65 L303.028 1468.89 L309.903 1459.65 L314.926 1459.65 Z" fill="#000000" fill-rule="nonzero" fill-opacity="1" /><path clip-path="url(#clip940)" d="M322.843 1481.64 L330.482 1481.64 L330.482 1455.28 L322.172 1456.95 L322.172 1452.69 L330.436 1451.02 L335.112 1451.02 L335.112 1481.64 L342.75 1481.64 L342.75 1485.58 L322.843 1485.58 L322.843 1481.64 Z" fill="#000000" fill-rule="nonzero" fill-opacity="1" /><path clip-path="url(#clip940)" d="M809.346 1459.65 L799.971 1472.27 L809.832 1485.58 L804.809 1485.58 L797.262 1475.39 L789.716 1485.58 L784.693 1485.58 L794.762 1472.02 L785.549 1459.65 L790.573 1459.65 L797.447 1468.89 L804.322 1459.65 L809.346 1459.65 Z" fill="#000000" fill-rule="nonzero" fill-opacity="1" /><path clip-path="url(#clip940)" d="M820.48 1481.64 L836.799 1481.64 L836.799 1485.58 L814.855 1485.58 L814.855 1481.64 Q817.517 1478.89 822.1 1474.26 Q826.707 1469.61 827.887 1468.27 Q830.133 1465.74 831.012 1464.01 Q831.915 1462.25 831.915 1460.56 Q831.915 1457.8 829.97 1456.07 Q828.049 1454.33 824.947 1454.33 Q822.748 1454.33 820.295 1455.09 Q817.864 1455.86 815.086 1457.41 L815.086 1452.69 Q817.91 1451.55 820.364 1450.97 Q822.818 1450.39 824.855 1450.39 Q830.225 1450.39 833.42 1453.08 Q836.614 1455.77 836.614 1460.26 Q836.614 1462.39 835.804 1464.31 Q835.017 1466.2 832.91 1468.8 Q832.332 1469.47 829.23 1472.69 Q826.128 1475.88 820.48 1481.64 Z" fill="#000000" fill-rule="nonzero" fill-opacity="1" /><path clip-path="url(#clip940)" d="M1303.1 1459.65 L1293.73 1472.27 L1303.59 1485.58 L1298.57 1485.58 L1291.02 1475.39 L1283.48 1485.58 L1278.45 1485.58 L1288.52 1472.02 L1279.31 1459.65 L1284.33 1459.65 L1291.21 1468.89 L1298.08 1459.65 L1303.1 1459.65 Z" fill="#000000" fill-rule="nonzero" fill-opacity="1" /><path clip-path="url(#clip940)" d="M1324.38 1466.95 Q1327.73 1467.66 1329.61 1469.93 Q1331.51 1472.2 1331.51 1475.53 Q1331.51 1480.65 1327.99 1483.45 Q1324.47 1486.25 1317.99 1486.25 Q1315.81 1486.25 1313.5 1485.81 Q1311.21 1485.39 1308.75 1484.54 L1308.75 1480.02 Q1310.7 1481.16 1313.01 1481.74 Q1315.33 1482.32 1317.85 1482.32 Q1322.25 1482.32 1324.54 1480.58 Q1326.85 1478.84 1326.85 1475.53 Q1326.85 1472.48 1324.7 1470.77 Q1322.57 1469.03 1318.75 1469.03 L1314.73 1469.03 L1314.73 1465.19 L1318.94 1465.19 Q1322.39 1465.19 1324.22 1463.82 Q1326.04 1462.43 1326.04 1459.84 Q1326.04 1457.18 1324.15 1455.77 Q1322.27 1454.33 1318.75 1454.33 Q1316.83 1454.33 1314.63 1454.75 Q1312.43 1455.16 1309.79 1456.04 L1309.79 1451.88 Q1312.46 1451.14 1314.77 1450.77 Q1317.11 1450.39 1319.17 1450.39 Q1324.49 1450.39 1327.6 1452.83 Q1330.7 1455.23 1330.7 1459.35 Q1330.7 1462.22 1329.05 1464.21 Q1327.41 1466.18 1324.38 1466.95 Z" fill="#000000" fill-rule="nonzero" fill-opacity="1" /><path clip-path="url(#clip940)" d="M1796.77 1459.65 L1787.4 1472.27 L1797.26 1485.58 L1792.23 1485.58 L1784.69 1475.39 L1777.14 1485.58 L1772.12 1485.58 L1782.19 1472.02 L1772.98 1459.65 L1778 1459.65 L1784.87 1468.89 L1791.75 1459.65 L1796.77 1459.65 Z" fill="#000000" fill-rule="nonzero" fill-opacity="1" /><path clip-path="url(#clip940)" d="M1816.73 1455.09 L1804.92 1473.54 L1816.73 1473.54 L1816.73 1455.09 M1815.5 1451.02 L1821.38 1451.02 L1821.38 1473.54 L1826.31 1473.54 L1826.31 1477.43 L1821.38 1477.43 L1821.38 1485.58 L1816.73 1485.58 L1816.73 1477.43 L1801.12 1477.43 L1801.12 1472.92 L1815.5 1451.02 Z" fill="#000000" fill-rule="nonzero" fill-opacity="1" /><path clip-path="url(#clip940)" d="M2291.75 1459.65 L2282.37 1472.27 L2292.23 1485.58 L2287.21 1485.58 L2279.66 1475.39 L2272.12 1485.58 L2267.09 1485.58 L2277.16 1472.02 L2267.95 1459.65 L2272.97 1459.65 L2279.85 1468.89 L2286.72 1459.65 L2291.75 1459.65 Z" fill="#000000" fill-rule="nonzero" fill-opacity="1" /><path clip-path="url(#clip940)" d="M2298.9 1451.02 L2317.26 1451.02 L2317.26 1454.96 L2303.18 1454.96 L2303.18 1463.43 Q2304.2 1463.08 2305.22 1462.92 Q2306.24 1462.73 2307.26 1462.73 Q2313.04 1462.73 2316.42 1465.9 Q2319.8 1469.08 2319.8 1474.49 Q2319.8 1480.07 2316.33 1483.17 Q2312.86 1486.25 2306.54 1486.25 Q2304.36 1486.25 2302.09 1485.88 Q2299.85 1485.51 2297.44 1484.77 L2297.44 1480.07 Q2299.52 1481.2 2301.75 1481.76 Q2303.97 1482.32 2306.45 1482.32 Q2310.45 1482.32 2312.79 1480.21 Q2315.13 1478.1 2315.13 1474.49 Q2315.13 1470.88 2312.79 1468.77 Q2310.45 1466.67 2306.45 1466.67 Q2304.57 1466.67 2302.7 1467.08 Q2300.84 1467.5 2298.9 1468.38 L2298.9 1451.02 Z" fill="#000000" fill-rule="nonzero" fill-opacity="1" /><path clip-path="url(#clip940)" d="M1184.33 1533.76 L1184.33 1539.24 Q1181.85 1537.87 1179.34 1537.2 Q1176.85 1536.5 1174.31 1536.5 Q1168.61 1536.5 1165.46 1540.13 Q1162.31 1543.73 1162.31 1550.25 Q1162.31 1556.78 1165.46 1560.4 Q1168.61 1564 1174.31 1564 Q1176.85 1564 1179.34 1563.33 Q1181.85 1562.63 1184.33 1561.26 L1184.33 1566.68 Q1181.88 1567.82 1179.24 1568.39 Q1176.63 1568.97 1173.67 1568.97 Q1165.62 1568.97 1160.88 1563.91 Q1156.13 1558.85 1156.13 1550.25 Q1156.13 1541.53 1160.91 1536.53 Q1165.71 1531.54 1174.05 1531.54 Q1176.76 1531.54 1179.34 1532.11 Q1181.91 1532.65 1184.33 1533.76 Z" fill="#000000" fill-rule="nonzero" fill-opacity="1" /><path clip-path="url(#clip940)" d="M1208.33 1536.5 Q1203.62 1536.5 1200.88 1540.19 Q1198.15 1543.85 1198.15 1550.25 Q1198.15 1556.65 1200.85 1560.34 Q1203.59 1564 1208.33 1564 Q1213.01 1564 1215.75 1560.31 Q1218.49 1556.62 1218.49 1550.25 Q1218.49 1543.92 1215.75 1540.23 Q1213.01 1536.5 1208.33 1536.5 M1208.33 1531.54 Q1215.97 1531.54 1220.33 1536.5 Q1224.69 1541.47 1224.69 1550.25 Q1224.69 1559 1220.33 1564 Q1215.97 1568.97 1208.33 1568.97 Q1200.66 1568.97 1196.3 1564 Q1191.97 1559 1191.97 1550.25 Q1191.97 1541.47 1196.3 1536.5 Q1200.66 1531.54 1208.33 1531.54 Z" fill="#000000" fill-rule="nonzero" fill-opacity="1" /><path clip-path="url(#clip940)" d="M1230.2 1532.4 L1236.41 1532.4 L1247.55 1562.31 L1258.69 1532.4 L1264.89 1532.4 L1251.52 1568.04 L1243.57 1568.04 L1230.2 1532.4 Z" fill="#000000" fill-rule="nonzero" fill-opacity="1" /><path clip-path="url(#clip940)" d="M1289.18 1550.12 Q1282.08 1550.12 1279.34 1551.75 Q1276.6 1553.37 1276.6 1557.29 Q1276.6 1560.4 1278.64 1562.25 Q1280.71 1564.07 1284.24 1564.07 Q1289.11 1564.07 1292.04 1560.63 Q1295 1557.16 1295 1551.43 L1295 1550.12 L1289.18 1550.12 M1300.86 1547.71 L1300.86 1568.04 L1295 1568.04 L1295 1562.63 Q1293 1565.88 1290 1567.44 Q1287.01 1568.97 1282.68 1568.97 Q1277.21 1568.97 1273.96 1565.91 Q1270.75 1562.82 1270.75 1557.67 Q1270.75 1551.65 1274.76 1548.6 Q1278.8 1545.54 1286.79 1545.54 L1295 1545.54 L1295 1544.97 Q1295 1540.93 1292.33 1538.73 Q1289.69 1536.5 1284.88 1536.5 Q1281.82 1536.5 1278.93 1537.23 Q1276.03 1537.97 1273.36 1539.43 L1273.36 1534.02 Q1276.57 1532.78 1279.6 1532.17 Q1282.62 1531.54 1285.48 1531.54 Q1293.22 1531.54 1297.04 1535.55 Q1300.86 1539.56 1300.86 1547.71 Z" fill="#000000" fill-rule="nonzero" fill-opacity="1" /><path clip-path="url(#clip940)" d="M1333.58 1537.87 Q1332.59 1537.3 1331.41 1537.04 Q1330.27 1536.76 1328.87 1536.76 Q1323.9 1536.76 1321.23 1540 Q1318.59 1543.22 1318.59 1549.27 L1318.59 1568.04 L1312.7 1568.04 L1312.7 1532.4 L1318.59 1532.4 L1318.59 1537.93 Q1320.43 1534.69 1323.39 1533.13 Q1326.35 1531.54 1330.59 1531.54 Q1331.19 1531.54 1331.92 1531.63 Q1332.65 1531.7 1333.55 1531.85 L1333.58 1537.87 Z" fill="#000000" fill-rule="nonzero" fill-opacity="1" /><path clip-path="url(#clip940)" d="M1339.72 1532.4 L1345.58 1532.4 L1345.58 1568.04 L1339.72 1568.04 L1339.72 1532.4 M1339.72 1518.52 L1345.58 1518.52 L1345.58 1525.93 L1339.72 1525.93 L1339.72 1518.52 Z" fill="#000000" fill-rule="nonzero" fill-opacity="1" /><path clip-path="url(#clip940)" d="M1374.03 1550.12 Q1366.93 1550.12 1364.2 1551.75 Q1361.46 1553.37 1361.46 1557.29 Q1361.46 1560.4 1363.5 1562.25 Q1365.57 1564.07 1369.1 1564.07 Q1373.97 1564.07 1376.9 1560.63 Q1379.86 1557.16 1379.86 1551.43 L1379.86 1550.12 L1374.03 1550.12 M1385.71 1547.71 L1385.71 1568.04 L1379.86 1568.04 L1379.86 1562.63 Q1377.85 1565.88 1374.86 1567.44 Q1371.87 1568.97 1367.54 1568.97 Q1362.06 1568.97 1358.82 1565.91 Q1355.6 1562.82 1355.6 1557.67 Q1355.6 1551.65 1359.61 1548.6 Q1363.66 1545.54 1371.64 1545.54 L1379.86 1545.54 L1379.86 1544.97 Q1379.86 1540.93 1377.18 1538.73 Q1374.54 1536.5 1369.74 1536.5 Q1366.68 1536.5 1363.78 1537.23 Q1360.89 1537.97 1358.21 1539.43 L1358.21 1534.02 Q1361.43 1532.78 1364.45 1532.17 Q1367.48 1531.54 1370.34 1531.54 Q1378.07 1531.54 1381.89 1535.55 Q1385.71 1539.56 1385.71 1547.71 Z" fill="#000000" fill-rule="nonzero" fill-opacity="1" /><path clip-path="url(#clip940)" d="M1403.57 1522.27 L1403.57 1532.4 L1415.63 1532.4 L1415.63 1536.95 L1403.57 1536.95 L1403.57 1556.3 Q1403.57 1560.66 1404.75 1561.9 Q1405.96 1563.14 1409.62 1563.14 L1415.63 1563.14 L1415.63 1568.04 L1409.62 1568.04 Q1402.84 1568.04 1400.26 1565.53 Q1397.68 1562.98 1397.68 1556.3 L1397.68 1536.95 L1393.38 1536.95 L1393.38 1532.4 L1397.68 1532.4 L1397.68 1522.27 L1403.57 1522.27 Z" fill="#000000" fill-rule="nonzero" fill-opacity="1" /><path clip-path="url(#clip940)" d="M1453.83 1548.76 L1453.83 1551.62 L1426.9 1551.62 Q1427.28 1557.67 1430.53 1560.85 Q1433.81 1564 1439.63 1564 Q1443 1564 1446.16 1563.17 Q1449.34 1562.35 1452.46 1560.69 L1452.46 1566.23 Q1449.31 1567.57 1446 1568.27 Q1442.69 1568.97 1439.28 1568.97 Q1430.75 1568.97 1425.75 1564 Q1420.79 1559.04 1420.79 1550.57 Q1420.79 1541.82 1425.5 1536.69 Q1430.24 1531.54 1438.26 1531.54 Q1445.46 1531.54 1449.62 1536.18 Q1453.83 1540.8 1453.83 1548.76 M1447.97 1547.04 Q1447.91 1542.23 1445.26 1539.37 Q1442.65 1536.5 1438.33 1536.5 Q1433.42 1536.5 1430.46 1539.27 Q1427.54 1542.04 1427.09 1547.07 L1447.97 1547.04 Z" fill="#000000" fill-rule="nonzero" fill-opacity="1" /><polyline clip-path="url(#clip940)" style="stroke:#000000; stroke-linecap:round; stroke-linejoin:round; stroke-width:4; stroke-opacity:1; fill:none" points="257.204,1423.18 257.204,47.2441 "/>
<polyline clip-path="url(#clip940)" style="stroke:#000000; stroke-linecap:round; stroke-linejoin:round; stroke-width:4; stroke-opacity:1; fill:none" points="257.204,1361.64 276.102,1361.64 "/>
<polyline clip-path="url(#clip940)" style="stroke:#000000; stroke-linecap:round; stroke-linejoin:round; stroke-width:4; stroke-opacity:1; fill:none" points="257.204,1112.8 276.102,1112.8 "/>
<polyline clip-path="url(#clip940)" style="stroke:#000000; stroke-linecap:round; stroke-linejoin:round; stroke-width:4; stroke-opacity:1; fill:none" points="257.204,863.961 276.102,863.961 "/>
<polyline clip-path="url(#clip940)" style="stroke:#000000; stroke-linecap:round; stroke-linejoin:round; stroke-width:4; stroke-opacity:1; fill:none" points="257.204,615.121 276.102,615.121 "/>
<polyline clip-path="url(#clip940)" style="stroke:#000000; stroke-linecap:round; stroke-linejoin:round; stroke-width:4; stroke-opacity:1; fill:none" points="257.204,366.281 276.102,366.281 "/>
<polyline clip-path="url(#clip940)" style="stroke:#000000; stroke-linecap:round; stroke-linejoin:round; stroke-width:4; stroke-opacity:1; fill:none" points="257.204,117.441 276.102,117.441 "/>
<path clip-path="url(#clip940)" d="M114.26 1362.09 L143.936 1362.09 L143.936 1366.03 L114.26 1366.03 L114.26 1362.09 Z" fill="#000000" fill-rule="nonzero" fill-opacity="1" /><path clip-path="url(#clip940)" d="M154.839 1374.99 L162.477 1374.99 L162.477 1348.62 L154.167 1350.29 L154.167 1346.03 L162.431 1344.36 L167.107 1344.36 L167.107 1374.99 L174.746 1374.99 L174.746 1378.92 L154.839 1378.92 L154.839 1374.99 Z" fill="#000000" fill-rule="nonzero" fill-opacity="1" /><path clip-path="url(#clip940)" d="M184.19 1373.04 L189.075 1373.04 L189.075 1378.92 L184.19 1378.92 L184.19 1373.04 Z" fill="#000000" fill-rule="nonzero" fill-opacity="1" /><path clip-path="url(#clip940)" d="M209.26 1347.44 Q205.649 1347.44 203.82 1351 Q202.014 1354.55 202.014 1361.68 Q202.014 1368.78 203.82 1372.35 Q205.649 1375.89 209.26 1375.89 Q212.894 1375.89 214.699 1372.35 Q216.528 1368.78 216.528 1361.68 Q216.528 1354.55 214.699 1351 Q212.894 1347.44 209.26 1347.44 M209.26 1343.74 Q215.07 1343.74 218.125 1348.34 Q221.204 1352.93 221.204 1361.68 Q221.204 1370.4 218.125 1375.01 Q215.07 1379.59 209.26 1379.59 Q203.449 1379.59 200.371 1375.01 Q197.315 1370.4 197.315 1361.68 Q197.315 1352.93 200.371 1348.34 Q203.449 1343.74 209.26 1343.74 Z" fill="#000000" fill-rule="nonzero" fill-opacity="1" /><path clip-path="url(#clip940)" d="M115.256 1113.25 L144.931 1113.25 L144.931 1117.19 L115.256 1117.19 L115.256 1113.25 Z" fill="#000000" fill-rule="nonzero" fill-opacity="1" /><path clip-path="url(#clip940)" d="M165.024 1098.6 Q161.413 1098.6 159.584 1102.16 Q157.778 1105.71 157.778 1112.84 Q157.778 1119.94 159.584 1123.51 Q161.413 1127.05 165.024 1127.05 Q168.658 1127.05 170.464 1123.51 Q172.292 1119.94 172.292 1112.84 Q172.292 1105.71 170.464 1102.16 Q168.658 1098.6 165.024 1098.6 M165.024 1094.9 Q170.834 1094.9 173.889 1099.5 Q176.968 1104.09 176.968 1112.84 Q176.968 1121.56 173.889 1126.17 Q170.834 1130.75 165.024 1130.75 Q159.214 1130.75 156.135 1126.17 Q153.079 1121.56 153.079 1112.84 Q153.079 1104.09 156.135 1099.5 Q159.214 1094.9 165.024 1094.9 Z" fill="#000000" fill-rule="nonzero" fill-opacity="1" /><path clip-path="url(#clip940)" d="M185.186 1124.2 L190.07 1124.2 L190.07 1130.08 L185.186 1130.08 L185.186 1124.2 Z" fill="#000000" fill-rule="nonzero" fill-opacity="1" /><path clip-path="url(#clip940)" d="M200.301 1095.52 L218.658 1095.52 L218.658 1099.46 L204.584 1099.46 L204.584 1107.93 Q205.602 1107.58 206.621 1107.42 Q207.639 1107.23 208.658 1107.23 Q214.445 1107.23 217.824 1110.41 Q221.204 1113.58 221.204 1118.99 Q221.204 1124.57 217.732 1127.67 Q214.26 1130.75 207.94 1130.75 Q205.764 1130.75 203.496 1130.38 Q201.25 1130.01 198.843 1129.27 L198.843 1124.57 Q200.926 1125.71 203.149 1126.26 Q205.371 1126.82 207.848 1126.82 Q211.852 1126.82 214.19 1124.71 Q216.528 1122.6 216.528 1118.99 Q216.528 1115.38 214.19 1113.28 Q211.852 1111.17 207.848 1111.17 Q205.973 1111.17 204.098 1111.59 Q202.246 1112 200.301 1112.88 L200.301 1095.52 Z" fill="#000000" fill-rule="nonzero" fill-opacity="1" /><path clip-path="url(#clip940)" d="M164.028 849.76 Q160.417 849.76 158.589 853.325 Q156.783 856.866 156.783 863.996 Q156.783 871.102 158.589 874.667 Q160.417 878.209 164.028 878.209 Q167.663 878.209 169.468 874.667 Q171.297 871.102 171.297 863.996 Q171.297 856.866 169.468 853.325 Q167.663 849.76 164.028 849.76 M164.028 846.056 Q169.839 846.056 172.894 850.663 Q175.973 855.246 175.973 863.996 Q175.973 872.723 172.894 877.329 Q169.839 881.913 164.028 881.913 Q158.218 881.913 155.14 877.329 Q152.084 872.723 152.084 863.996 Q152.084 855.246 155.14 850.663 Q158.218 846.056 164.028 846.056 Z" fill="#000000" fill-rule="nonzero" fill-opacity="1" /><path clip-path="url(#clip940)" d="M184.19 875.362 L189.075 875.362 L189.075 881.241 L184.19 881.241 L184.19 875.362 Z" fill="#000000" fill-rule="nonzero" fill-opacity="1" /><path clip-path="url(#clip940)" d="M209.26 849.76 Q205.649 849.76 203.82 853.325 Q202.014 856.866 202.014 863.996 Q202.014 871.102 203.82 874.667 Q205.649 878.209 209.26 878.209 Q212.894 878.209 214.699 874.667 Q216.528 871.102 216.528 863.996 Q216.528 856.866 214.699 853.325 Q212.894 849.76 209.26 849.76 M209.26 846.056 Q215.07 846.056 218.125 850.663 Q221.204 855.246 221.204 863.996 Q221.204 872.723 218.125 877.329 Q215.07 881.913 209.26 881.913 Q203.449 881.913 200.371 877.329 Q197.315 872.723 197.315 863.996 Q197.315 855.246 200.371 850.663 Q203.449 846.056 209.26 846.056 Z" fill="#000000" fill-rule="nonzero" fill-opacity="1" /><path clip-path="url(#clip940)" d="M165.024 600.92 Q161.413 600.92 159.584 604.485 Q157.778 608.026 157.778 615.156 Q157.778 622.262 159.584 625.827 Q161.413 629.369 165.024 629.369 Q168.658 629.369 170.464 625.827 Q172.292 622.262 172.292 615.156 Q172.292 608.026 170.464 604.485 Q168.658 600.92 165.024 600.92 M165.024 597.216 Q170.834 597.216 173.889 601.823 Q176.968 606.406 176.968 615.156 Q176.968 623.883 173.889 628.489 Q170.834 633.073 165.024 633.073 Q159.214 633.073 156.135 628.489 Q153.079 623.883 153.079 615.156 Q153.079 606.406 156.135 601.823 Q159.214 597.216 165.024 597.216 Z" fill="#000000" fill-rule="nonzero" fill-opacity="1" /><path clip-path="url(#clip940)" d="M185.186 626.522 L190.07 626.522 L190.07 632.401 L185.186 632.401 L185.186 626.522 Z" fill="#000000" fill-rule="nonzero" fill-opacity="1" /><path clip-path="url(#clip940)" d="M200.301 597.841 L218.658 597.841 L218.658 601.776 L204.584 601.776 L204.584 610.249 Q205.602 609.901 206.621 609.739 Q207.639 609.554 208.658 609.554 Q214.445 609.554 217.824 612.725 Q221.204 615.897 221.204 621.313 Q221.204 626.892 217.732 629.994 Q214.26 633.073 207.94 633.073 Q205.764 633.073 203.496 632.702 Q201.25 632.332 198.843 631.591 L198.843 626.892 Q200.926 628.026 203.149 628.582 Q205.371 629.137 207.848 629.137 Q211.852 629.137 214.19 627.031 Q216.528 624.924 216.528 621.313 Q216.528 617.702 214.19 615.596 Q211.852 613.489 207.848 613.489 Q205.973 613.489 204.098 613.906 Q202.246 614.323 200.301 615.202 L200.301 597.841 Z" fill="#000000" fill-rule="nonzero" fill-opacity="1" /><path clip-path="url(#clip940)" d="M154.839 379.626 L162.477 379.626 L162.477 353.261 L154.167 354.927 L154.167 350.668 L162.431 349.001 L167.107 349.001 L167.107 379.626 L174.746 379.626 L174.746 383.561 L154.839 383.561 L154.839 379.626 Z" fill="#000000" fill-rule="nonzero" fill-opacity="1" /><path clip-path="url(#clip940)" d="M184.19 377.682 L189.075 377.682 L189.075 383.561 L184.19 383.561 L184.19 377.682 Z" fill="#000000" fill-rule="nonzero" fill-opacity="1" /><path clip-path="url(#clip940)" d="M209.26 352.08 Q205.649 352.08 203.82 355.645 Q202.014 359.186 202.014 366.316 Q202.014 373.422 203.82 376.987 Q205.649 380.529 209.26 380.529 Q212.894 380.529 214.699 376.987 Q216.528 373.422 216.528 366.316 Q216.528 359.186 214.699 355.645 Q212.894 352.08 209.26 352.08 M209.26 348.376 Q215.07 348.376 218.125 352.983 Q221.204 357.566 221.204 366.316 Q221.204 375.043 218.125 379.649 Q215.07 384.233 209.26 384.233 Q203.449 384.233 200.371 379.649 Q197.315 375.043 197.315 366.316 Q197.315 357.566 200.371 352.983 Q203.449 348.376 209.26 348.376 Z" fill="#000000" fill-rule="nonzero" fill-opacity="1" /><path clip-path="url(#clip940)" d="M155.834 130.786 L163.473 130.786 L163.473 104.42 L155.163 106.087 L155.163 101.828 L163.427 100.161 L168.102 100.161 L168.102 130.786 L175.741 130.786 L175.741 134.721 L155.834 134.721 L155.834 130.786 Z" fill="#000000" fill-rule="nonzero" fill-opacity="1" /><path clip-path="url(#clip940)" d="M185.186 128.842 L190.07 128.842 L190.07 134.721 L185.186 134.721 L185.186 128.842 Z" fill="#000000" fill-rule="nonzero" fill-opacity="1" /><path clip-path="url(#clip940)" d="M200.301 100.161 L218.658 100.161 L218.658 104.096 L204.584 104.096 L204.584 112.569 Q205.602 112.221 206.621 112.059 Q207.639 111.874 208.658 111.874 Q214.445 111.874 217.824 115.045 Q221.204 118.217 221.204 123.633 Q221.204 129.212 217.732 132.314 Q214.26 135.393 207.94 135.393 Q205.764 135.393 203.496 135.022 Q201.25 134.652 198.843 133.911 L198.843 129.212 Q200.926 130.346 203.149 130.902 Q205.371 131.457 207.848 131.457 Q211.852 131.457 214.19 129.351 Q216.528 127.244 216.528 123.633 Q216.528 120.022 214.19 117.916 Q211.852 115.809 207.848 115.809 Q205.973 115.809 204.098 116.226 Q202.246 116.643 200.301 117.522 L200.301 100.161 Z" fill="#000000" fill-rule="nonzero" fill-opacity="1" /><path clip-path="url(#clip940)" d="M29.7248 904.412 L35.1993 904.412 Q33.8307 906.895 33.1623 909.41 Q32.4621 911.892 32.4621 914.438 Q32.4621 920.136 36.0905 923.287 Q39.6872 926.438 46.212 926.438 Q52.7369 926.438 56.3653 923.287 Q59.9619 920.136 59.9619 914.438 Q59.9619 911.892 59.2935 909.41 Q58.5933 906.895 57.2247 904.412 L62.6355 904.412 Q63.7814 906.863 64.3543 909.505 Q64.9272 912.115 64.9272 915.075 Q64.9272 923.128 59.8664 927.87 Q54.8057 932.613 46.212 932.613 Q37.491 932.613 32.4939 927.838 Q27.4968 923.032 27.4968 914.693 Q27.4968 911.988 28.0697 909.41 Q28.6108 906.831 29.7248 904.412 Z" fill="#000000" fill-rule="nonzero" fill-opacity="1" /><path clip-path="url(#clip940)" d="M32.4621 880.414 Q32.4621 885.124 36.1542 887.862 Q39.8145 890.599 46.212 890.599 Q52.6095 890.599 56.3017 887.893 Q59.9619 885.156 59.9619 880.414 Q59.9619 875.735 56.2698 872.998 Q52.5777 870.26 46.212 870.26 Q39.8781 870.26 36.186 872.998 Q32.4621 875.735 32.4621 880.414 M27.4968 880.414 Q27.4968 872.775 32.4621 868.414 Q37.4273 864.054 46.212 864.054 Q54.9649 864.054 59.9619 868.414 Q64.9272 872.775 64.9272 880.414 Q64.9272 888.084 59.9619 892.445 Q54.9649 896.774 46.212 896.774 Q37.4273 896.774 32.4621 892.445 Q27.4968 888.084 27.4968 880.414 Z" fill="#000000" fill-rule="nonzero" fill-opacity="1" /><path clip-path="url(#clip940)" d="M44.7161 823.854 L47.5806 823.854 L47.5806 850.781 Q53.6281 850.399 56.8109 847.153 Q59.9619 843.875 59.9619 838.05 Q59.9619 834.676 59.1344 831.525 Q58.3069 828.342 56.6518 825.223 L62.1899 825.223 Q63.5267 828.374 64.227 831.684 Q64.9272 834.994 64.9272 838.4 Q64.9272 846.93 59.9619 851.927 Q54.9967 856.892 46.5303 856.892 Q37.7774 856.892 32.6531 852.182 Q27.4968 847.439 27.4968 839.419 Q27.4968 832.225 32.1438 828.056 Q36.7589 823.854 44.7161 823.854 M42.9973 829.711 Q38.1912 829.775 35.3266 832.416 Q32.4621 835.026 32.4621 839.355 Q32.4621 844.257 35.2312 847.217 Q38.0002 850.145 43.0292 850.59 L42.9973 829.711 Z" fill="#000000" fill-rule="nonzero" fill-opacity="1" /><path clip-path="url(#clip940)" d="M14.479 796.195 L19.3487 796.195 L19.3487 801.797 Q19.3487 804.948 20.6219 806.19 Q21.895 807.399 25.2052 807.399 L28.3562 807.399 L28.3562 797.755 L32.9077 797.755 L32.9077 807.399 L64.0042 807.399 L64.0042 813.287 L32.9077 813.287 L32.9077 818.889 L28.3562 818.889 L28.3562 813.287 L25.8736 813.287 Q19.9216 813.287 17.2162 810.518 Q14.479 807.749 14.479 801.734 L14.479 796.195 Z" fill="#000000" fill-rule="nonzero" fill-opacity="1" /><path clip-path="url(#clip940)" d="M14.479 773.247 L19.3487 773.247 L19.3487 778.849 Q19.3487 782 20.6219 783.241 Q21.895 784.451 25.2052 784.451 L28.3562 784.451 L28.3562 774.807 L32.9077 774.807 L32.9077 784.451 L64.0042 784.451 L64.0042 790.339 L32.9077 790.339 L32.9077 795.941 L28.3562 795.941 L28.3562 790.339 L25.8736 790.339 Q19.9216 790.339 17.2162 787.57 Q14.479 784.801 14.479 778.785 L14.479 773.247 Z" fill="#000000" fill-rule="nonzero" fill-opacity="1" /><path clip-path="url(#clip940)" d="M28.3562 768.345 L28.3562 762.489 L64.0042 762.489 L64.0042 768.345 L28.3562 768.345 M14.479 768.345 L14.479 762.489 L21.895 762.489 L21.895 768.345 L14.479 768.345 Z" fill="#000000" fill-rule="nonzero" fill-opacity="1" /><path clip-path="url(#clip940)" d="M29.7248 724.581 L35.1993 724.581 Q33.8307 727.064 33.1623 729.578 Q32.4621 732.061 32.4621 734.607 Q32.4621 740.305 36.0905 743.456 Q39.6872 746.607 46.212 746.607 Q52.7369 746.607 56.3653 743.456 Q59.9619 740.305 59.9619 734.607 Q59.9619 732.061 59.2935 729.578 Q58.5933 727.064 57.2247 724.581 L62.6355 724.581 Q63.7814 727.032 64.3543 729.674 Q64.9272 732.284 64.9272 735.244 Q64.9272 743.296 59.8664 748.039 Q54.8057 752.781 46.212 752.781 Q37.491 752.781 32.4939 748.007 Q27.4968 743.201 27.4968 734.862 Q27.4968 732.156 28.0697 729.578 Q28.6108 727 29.7248 724.581 Z" fill="#000000" fill-rule="nonzero" fill-opacity="1" /><path clip-path="url(#clip940)" d="M28.3562 714.396 L28.3562 708.54 L64.0042 708.54 L64.0042 714.396 L28.3562 714.396 M14.479 714.396 L14.479 708.54 L21.895 708.54 L21.895 714.396 L14.479 714.396 Z" fill="#000000" fill-rule="nonzero" fill-opacity="1" /><path clip-path="url(#clip940)" d="M44.7161 665.794 L47.5806 665.794 L47.5806 692.721 Q53.6281 692.339 56.8109 689.092 Q59.9619 685.814 59.9619 679.989 Q59.9619 676.616 59.1344 673.465 Q58.3069 670.282 56.6518 667.163 L62.1899 667.163 Q63.5267 670.314 64.227 673.624 Q64.9272 676.934 64.9272 680.34 Q64.9272 688.87 59.9619 693.867 Q54.9967 698.832 46.5303 698.832 Q37.7774 698.832 32.6531 694.121 Q27.4968 689.379 27.4968 681.358 Q27.4968 674.165 32.1438 669.995 Q36.7589 665.794 44.7161 665.794 M42.9973 671.65 Q38.1912 671.714 35.3266 674.356 Q32.4621 676.966 32.4621 681.294 Q32.4621 686.196 35.2312 689.156 Q38.0002 692.084 43.0292 692.53 L42.9973 671.65 Z" fill="#000000" fill-rule="nonzero" fill-opacity="1" /><path clip-path="url(#clip940)" d="M42.4881 626.549 L64.0042 626.549 L64.0042 632.406 L42.679 632.406 Q37.6183 632.406 35.1038 634.379 Q32.5894 636.353 32.5894 640.299 Q32.5894 645.042 35.6131 647.779 Q38.6368 650.516 43.8567 650.516 L64.0042 650.516 L64.0042 656.405 L28.3562 656.405 L28.3562 650.516 L33.8944 650.516 Q30.6797 648.416 29.0883 645.583 Q27.4968 642.718 27.4968 638.994 Q27.4968 632.851 31.3163 629.7 Q35.1038 626.549 42.4881 626.549 Z" fill="#000000" fill-rule="nonzero" fill-opacity="1" /><path clip-path="url(#clip940)" d="M18.2347 609.075 L28.3562 609.075 L28.3562 597.012 L32.9077 597.012 L32.9077 609.075 L52.2594 609.075 Q56.6199 609.075 57.8613 607.898 Q59.1026 606.688 59.1026 603.028 L59.1026 597.012 L64.0042 597.012 L64.0042 603.028 Q64.0042 609.808 61.4897 612.386 Q58.9434 614.964 52.2594 614.964 L32.9077 614.964 L32.9077 619.261 L28.3562 619.261 L28.3562 614.964 L18.2347 614.964 L18.2347 609.075 Z" fill="#000000" fill-rule="nonzero" fill-opacity="1" /><path clip-path="url(#clip940)" d="M61.808 562.733 L77.5631 562.733 L77.5631 568.621 L28.579 568.621 Q14.0652 568.621 14.0652 555.062 Q14.0652 541.249 26.3192 541.249 Q35.0402 541.249 38.223 546.723 Q41.0876 537.811 49.5858 537.811 Q64.6726 537.811 64.6726 553.153 Q64.6726 559.9 61.808 562.733 M54.1691 562.733 Q59.6755 559.2 59.6755 552.93 Q59.6755 543.763 49.6813 543.763 Q40.7057 543.763 41.4059 558.532 L35.995 558.532 Q35.995 546.978 25.8099 546.978 Q18.8395 546.978 18.8395 554.426 Q18.8395 562.733 28.77 562.733 L54.1691 562.733 Z" fill="#000000" fill-rule="nonzero" fill-opacity="1" /><polyline clip-path="url(#clip941)" style="stroke:#000000; stroke-linecap:round; stroke-linejoin:round; stroke-width:4; stroke-opacity:1; fill:none" points="316.512,135.673 316.512,86.1857 "/>
<polyline clip-path="url(#clip941)" style="stroke:#000000; stroke-linecap:round; stroke-linejoin:round; stroke-width:4; stroke-opacity:1; fill:none" points="810.746,1384.24 810.746,1347.69 "/>
<polyline clip-path="url(#clip941)" style="stroke:#000000; stroke-linecap:round; stroke-linejoin:round; stroke-width:4; stroke-opacity:1; fill:none" points="1304.98,876.787 1304.98,856.198 "/>
<polyline clip-path="url(#clip941)" style="stroke:#000000; stroke-linecap:round; stroke-linejoin:round; stroke-width:4; stroke-opacity:1; fill:none" points="1799.21,870.024 1799.21,852.037 "/>
<polyline clip-path="url(#clip941)" style="stroke:#000000; stroke-linecap:round; stroke-linejoin:round; stroke-width:4; stroke-opacity:1; fill:none" points="2293.45,876.034 2293.45,854.409 "/>
<line clip-path="url(#clip941)" x1="332.512" y1="135.673" x2="300.512" y2="135.673" style="stroke:#000000; stroke-width:4; stroke-opacity:1"/>
<line clip-path="url(#clip941)" x1="332.512" y1="86.1857" x2="300.512" y2="86.1857" style="stroke:#000000; stroke-width:4; stroke-opacity:1"/>
<line clip-path="url(#clip941)" x1="826.746" y1="1384.24" x2="794.746" y2="1384.24" style="stroke:#000000; stroke-width:4; stroke-opacity:1"/>
<line clip-path="url(#clip941)" x1="826.746" y1="1347.69" x2="794.746" y2="1347.69" style="stroke:#000000; stroke-width:4; stroke-opacity:1"/>
<line clip-path="url(#clip941)" x1="1320.98" y1="876.787" x2="1288.98" y2="876.787" style="stroke:#000000; stroke-width:4; stroke-opacity:1"/>
<line clip-path="url(#clip941)" x1="1320.98" y1="856.198" x2="1288.98" y2="856.198" style="stroke:#000000; stroke-width:4; stroke-opacity:1"/>
<line clip-path="url(#clip941)" x1="1815.21" y1="870.024" x2="1783.21" y2="870.024" style="stroke:#000000; stroke-width:4; stroke-opacity:1"/>
<line clip-path="url(#clip941)" x1="1815.21" y1="852.037" x2="1783.21" y2="852.037" style="stroke:#000000; stroke-width:4; stroke-opacity:1"/>
<line clip-path="url(#clip941)" x1="2309.45" y1="876.034" x2="2277.45" y2="876.034" style="stroke:#000000; stroke-width:4; stroke-opacity:1"/>
<line clip-path="url(#clip941)" x1="2309.45" y1="854.409" x2="2277.45" y2="854.409" style="stroke:#000000; stroke-width:4; stroke-opacity:1"/>
<circle clip-path="url(#clip941)" cx="316.512" cy="110.929" r="14.4" fill="#009af9" fill-rule="evenodd" fill-opacity="1" stroke="#000000" stroke-opacity="1" stroke-width="3.2"/>
<circle clip-path="url(#clip941)" cx="810.746" cy="1365.97" r="14.4" fill="#009af9" fill-rule="evenodd" fill-opacity="1" stroke="#000000" stroke-opacity="1" stroke-width="3.2"/>
<circle clip-path="url(#clip941)" cx="1304.98" cy="866.493" r="14.4" fill="#009af9" fill-rule="evenodd" fill-opacity="1" stroke="#000000" stroke-opacity="1" stroke-width="3.2"/>
<circle clip-path="url(#clip941)" cx="1799.21" cy="861.03" r="14.4" fill="#009af9" fill-rule="evenodd" fill-opacity="1" stroke="#000000" stroke-opacity="1" stroke-width="3.2"/>
<circle clip-path="url(#clip941)" cx="2293.45" cy="865.222" r="14.4" fill="#009af9" fill-rule="evenodd" fill-opacity="1" stroke="#000000" stroke-opacity="1" stroke-width="3.2"/>
<line clip-path="url(#clip941)" x1="316.512" y1="117.441" x2="288.512" y2="89.4413" style="stroke:#ff0000; stroke-width:3.2; stroke-opacity:1"/>
<line clip-path="url(#clip941)" x1="316.512" y1="117.441" x2="288.512" y2="145.441" style="stroke:#ff0000; stroke-width:3.2; stroke-opacity:1"/>
<line clip-path="url(#clip941)" x1="316.512" y1="117.441" x2="344.512" y2="145.441" style="stroke:#ff0000; stroke-width:3.2; stroke-opacity:1"/>
<line clip-path="url(#clip941)" x1="316.512" y1="117.441" x2="344.512" y2="89.4413" style="stroke:#ff0000; stroke-width:3.2; stroke-opacity:1"/>
<line clip-path="url(#clip941)" x1="810.746" y1="1361.64" x2="782.746" y2="1333.64" style="stroke:#ff0000; stroke-width:3.2; stroke-opacity:1"/>
<line clip-path="url(#clip941)" x1="810.746" y1="1361.64" x2="782.746" y2="1389.64" style="stroke:#ff0000; stroke-width:3.2; stroke-opacity:1"/>
<line clip-path="url(#clip941)" x1="810.746" y1="1361.64" x2="838.746" y2="1389.64" style="stroke:#ff0000; stroke-width:3.2; stroke-opacity:1"/>
<line clip-path="url(#clip941)" x1="810.746" y1="1361.64" x2="838.746" y2="1333.64" style="stroke:#ff0000; stroke-width:3.2; stroke-opacity:1"/>
<line clip-path="url(#clip941)" x1="1304.98" y1="863.961" x2="1276.98" y2="835.961" style="stroke:#ff0000; stroke-width:3.2; stroke-opacity:1"/>
<line clip-path="url(#clip941)" x1="1304.98" y1="863.961" x2="1276.98" y2="891.961" style="stroke:#ff0000; stroke-width:3.2; stroke-opacity:1"/>
<line clip-path="url(#clip941)" x1="1304.98" y1="863.961" x2="1332.98" y2="891.961" style="stroke:#ff0000; stroke-width:3.2; stroke-opacity:1"/>
<line clip-path="url(#clip941)" x1="1304.98" y1="863.961" x2="1332.98" y2="835.961" style="stroke:#ff0000; stroke-width:3.2; stroke-opacity:1"/>
<line clip-path="url(#clip941)" x1="1799.21" y1="863.961" x2="1771.21" y2="835.961" style="stroke:#ff0000; stroke-width:3.2; stroke-opacity:1"/>
<line clip-path="url(#clip941)" x1="1799.21" y1="863.961" x2="1771.21" y2="891.961" style="stroke:#ff0000; stroke-width:3.2; stroke-opacity:1"/>
<line clip-path="url(#clip941)" x1="1799.21" y1="863.961" x2="1827.21" y2="891.961" style="stroke:#ff0000; stroke-width:3.2; stroke-opacity:1"/>
<line clip-path="url(#clip941)" x1="1799.21" y1="863.961" x2="1827.21" y2="835.961" style="stroke:#ff0000; stroke-width:3.2; stroke-opacity:1"/>
<line clip-path="url(#clip941)" x1="2293.45" y1="863.961" x2="2265.45" y2="835.961" style="stroke:#ff0000; stroke-width:3.2; stroke-opacity:1"/>
<line clip-path="url(#clip941)" x1="2293.45" y1="863.961" x2="2265.45" y2="891.961" style="stroke:#ff0000; stroke-width:3.2; stroke-opacity:1"/>
<line clip-path="url(#clip941)" x1="2293.45" y1="863.961" x2="2321.45" y2="891.961" style="stroke:#ff0000; stroke-width:3.2; stroke-opacity:1"/>
<line clip-path="url(#clip941)" x1="2293.45" y1="863.961" x2="2321.45" y2="835.961" style="stroke:#ff0000; stroke-width:3.2; stroke-opacity:1"/>
<polyline clip-path="url(#clip941)" style="stroke:#000000; stroke-linecap:round; stroke-linejoin:round; stroke-width:4; stroke-opacity:1; fill:none" stroke-dasharray="16, 10" points="-1838.35,863.961 4448.31,863.961 "/>
<path clip-path="url(#clip940)" d="M1787.73 248.629 L2282.9 248.629 L2282.9 93.1086 L1787.73 93.1086  Z" fill="#ffffff" fill-rule="evenodd" fill-opacity="1"/>
<polyline clip-path="url(#clip940)" style="stroke:#000000; stroke-linecap:round; stroke-linejoin:round; stroke-width:4; stroke-opacity:1; fill:none" points="1787.73,248.629 2282.9,248.629 2282.9,93.1086 1787.73,93.1086 1787.73,248.629 "/>
<circle clip-path="url(#clip940)" cx="1880.86" cy="144.949" r="20.48" fill="#009af9" fill-rule="evenodd" fill-opacity="1" stroke="#000000" stroke-opacity="1" stroke-width="4.55111"/>
<path clip-path="url(#clip940)" d="M1974 127.669 L1980.96 127.669 L1989.78 151.187 L1998.65 127.669 L2005.62 127.669 L2005.62 162.229 L2001.06 162.229 L2001.06 131.882 L1992.14 155.585 L1987.45 155.585 L1978.53 131.882 L1978.53 162.229 L1974 162.229 L1974 127.669 Z" fill="#000000" fill-rule="nonzero" fill-opacity="1" /><path clip-path="url(#clip940)" d="M2014.9 127.669 L2019.58 127.669 L2019.58 158.293 L2036.4 158.293 L2036.4 162.229 L2014.9 162.229 L2014.9 127.669 Z" fill="#000000" fill-rule="nonzero" fill-opacity="1" /><path clip-path="url(#clip940)" d="M2041.31 127.669 L2063.16 127.669 L2063.16 131.604 L2045.99 131.604 L2045.99 141.835 L2062.45 141.835 L2062.45 145.77 L2045.99 145.77 L2045.99 158.293 L2063.58 158.293 L2063.58 162.229 L2041.31 162.229 L2041.31 127.669 Z" fill="#000000" fill-rule="nonzero" fill-opacity="1" /><path clip-path="url(#clip940)" d="M2072.17 156.349 L2077.05 156.349 L2077.05 160.33 L2073.26 167.738 L2070.27 167.738 L2072.17 160.33 L2072.17 156.349 Z" fill="#000000" fill-rule="nonzero" fill-opacity="1" /><path clip-path="url(#clip940)" d="M2101.96 161.511 L2101.96 157.252 Q2103.72 158.085 2105.52 158.525 Q2107.33 158.965 2109.07 158.965 Q2113.7 158.965 2116.13 155.863 Q2118.58 152.738 2118.93 146.395 Q2117.58 148.386 2115.52 149.451 Q2113.46 150.516 2110.96 150.516 Q2105.78 150.516 2102.75 147.391 Q2099.74 144.243 2099.74 138.803 Q2099.74 133.479 2102.88 130.261 Q2106.03 127.044 2111.26 127.044 Q2117.26 127.044 2120.41 131.65 Q2123.58 136.233 2123.58 144.983 Q2123.58 153.155 2119.69 158.039 Q2115.82 162.9 2109.27 162.9 Q2107.51 162.9 2105.71 162.553 Q2103.9 162.205 2101.96 161.511 M2111.26 146.858 Q2114.41 146.858 2116.24 144.706 Q2118.09 142.553 2118.09 138.803 Q2118.09 135.076 2116.24 132.923 Q2114.41 130.747 2111.26 130.747 Q2108.12 130.747 2106.26 132.923 Q2104.44 135.076 2104.44 138.803 Q2104.44 142.553 2106.26 144.706 Q2108.12 146.858 2111.26 146.858 Z" fill="#000000" fill-rule="nonzero" fill-opacity="1" /><path clip-path="url(#clip940)" d="M2132.03 127.669 L2150.38 127.669 L2150.38 131.604 L2136.31 131.604 L2136.31 140.076 Q2137.33 139.729 2138.35 139.567 Q2139.37 139.382 2140.38 139.382 Q2146.17 139.382 2149.55 142.553 Q2152.93 145.724 2152.93 151.141 Q2152.93 156.719 2149.46 159.821 Q2145.99 162.9 2139.67 162.9 Q2137.49 162.9 2135.22 162.53 Q2132.98 162.159 2130.57 161.418 L2130.57 156.719 Q2132.65 157.854 2134.88 158.409 Q2137.1 158.965 2139.57 158.965 Q2143.58 158.965 2145.92 156.858 Q2148.26 154.752 2148.26 151.141 Q2148.26 147.53 2145.92 145.423 Q2143.58 143.317 2139.57 143.317 Q2137.7 143.317 2135.82 143.733 Q2133.97 144.15 2132.03 145.03 L2132.03 127.669 Z" fill="#000000" fill-rule="nonzero" fill-opacity="1" /><path clip-path="url(#clip940)" d="M2191.54 147.02 Q2189.53 147.02 2188.37 148.733 Q2187.24 150.446 2187.24 153.502 Q2187.24 156.511 2188.37 158.247 Q2189.53 159.96 2191.54 159.96 Q2193.51 159.96 2194.64 158.247 Q2195.8 156.511 2195.8 153.502 Q2195.8 150.469 2194.64 148.756 Q2193.51 147.02 2191.54 147.02 M2191.54 144.081 Q2195.2 144.081 2197.35 146.627 Q2199.5 149.173 2199.5 153.502 Q2199.5 157.83 2197.33 160.377 Q2195.18 162.9 2191.54 162.9 Q2187.84 162.9 2185.69 160.377 Q2183.53 157.83 2183.53 153.502 Q2183.53 149.15 2185.69 146.627 Q2187.86 144.081 2191.54 144.081 M2167.65 129.983 Q2165.66 129.983 2164.51 131.72 Q2163.37 133.432 2163.37 136.442 Q2163.37 139.497 2164.51 141.21 Q2165.64 142.923 2167.65 142.923 Q2169.67 142.923 2170.8 141.21 Q2171.96 139.497 2171.96 136.442 Q2171.96 133.456 2170.8 131.72 Q2169.64 129.983 2167.65 129.983 M2188.56 127.044 L2192.26 127.044 L2170.64 162.9 L2166.94 162.9 L2188.56 127.044 M2167.65 127.044 Q2171.31 127.044 2173.49 129.59 Q2175.66 132.113 2175.66 136.442 Q2175.66 140.817 2173.49 143.34 Q2171.33 145.863 2167.65 145.863 Q2163.97 145.863 2161.82 143.34 Q2159.69 140.794 2159.69 136.442 Q2159.69 132.136 2161.84 129.59 Q2164 127.044 2167.65 127.044 Z" fill="#000000" fill-rule="nonzero" fill-opacity="1" /><path clip-path="url(#clip940)" d="M2247.72 130.331 L2247.72 135.261 Q2245.36 133.062 2242.68 131.974 Q2240.01 130.886 2237 130.886 Q2231.08 130.886 2227.93 134.52 Q2224.78 138.132 2224.78 144.983 Q2224.78 151.812 2227.93 155.446 Q2231.08 159.057 2237 159.057 Q2240.01 159.057 2242.68 157.969 Q2245.36 156.881 2247.72 154.682 L2247.72 159.567 Q2245.27 161.233 2242.51 162.067 Q2239.78 162.9 2236.73 162.9 Q2228.88 162.9 2224.37 158.108 Q2219.85 153.293 2219.85 144.983 Q2219.85 136.65 2224.37 131.858 Q2228.88 127.044 2236.73 127.044 Q2239.83 127.044 2242.56 127.877 Q2245.31 128.687 2247.72 130.331 Z" fill="#000000" fill-rule="nonzero" fill-opacity="1" /><path clip-path="url(#clip940)" d="M2254.94 127.669 L2259.62 127.669 L2259.62 162.229 L2254.94 162.229 L2254.94 127.669 Z" fill="#000000" fill-rule="nonzero" fill-opacity="1" /><line clip-path="url(#clip940)" x1="1880.86" y1="196.789" x2="1856.97" y2="172.895" style="stroke:#ff0000; stroke-width:2.73067; stroke-opacity:1"/>
<line clip-path="url(#clip940)" x1="1880.86" y1="196.789" x2="1856.97" y2="220.682" style="stroke:#ff0000; stroke-width:2.73067; stroke-opacity:1"/>
<line clip-path="url(#clip940)" x1="1880.86" y1="196.789" x2="1904.75" y2="220.682" style="stroke:#ff0000; stroke-width:2.73067; stroke-opacity:1"/>
<line clip-path="url(#clip940)" x1="1880.86" y1="196.789" x2="1904.75" y2="172.895" style="stroke:#ff0000; stroke-width:2.73067; stroke-opacity:1"/>
<path clip-path="url(#clip940)" d="M1981.4 180.782 L1981.4 188.143 L1990.18 188.143 L1990.18 191.453 L1981.4 191.453 L1981.4 205.527 Q1981.4 208.698 1982.26 209.601 Q1983.14 210.504 1985.8 210.504 L1990.18 210.504 L1990.18 214.069 L1985.8 214.069 Q1980.87 214.069 1979 212.24 Q1977.12 210.388 1977.12 205.527 L1977.12 191.453 L1974 191.453 L1974 188.143 L1977.12 188.143 L1977.12 180.782 L1981.4 180.782 Z" fill="#000000" fill-rule="nonzero" fill-opacity="1" /><path clip-path="url(#clip940)" d="M2010.8 192.124 Q2010.08 191.708 2009.23 191.522 Q2008.39 191.314 2007.38 191.314 Q2003.77 191.314 2001.82 193.675 Q1999.9 196.013 1999.9 200.411 L1999.9 214.069 L1995.62 214.069 L1995.62 188.143 L1999.9 188.143 L1999.9 192.171 Q2001.24 189.809 2003.39 188.675 Q2005.55 187.518 2008.63 187.518 Q2009.07 187.518 2009.6 187.587 Q2010.13 187.634 2010.78 187.749 L2010.8 192.124 Z" fill="#000000" fill-rule="nonzero" fill-opacity="1" /><path clip-path="url(#clip940)" d="M2014.83 203.837 L2014.83 188.143 L2019.09 188.143 L2019.09 203.675 Q2019.09 207.356 2020.52 209.208 Q2021.96 211.036 2024.83 211.036 Q2028.28 211.036 2030.27 208.837 Q2032.28 206.638 2032.28 202.842 L2032.28 188.143 L2036.54 188.143 L2036.54 214.069 L2032.28 214.069 L2032.28 210.087 Q2030.73 212.448 2028.67 213.606 Q2026.64 214.74 2023.93 214.74 Q2019.46 214.74 2017.14 211.962 Q2014.83 209.184 2014.83 203.837 M2025.55 187.518 L2025.55 187.518 Z" fill="#000000" fill-rule="nonzero" fill-opacity="1" /><path clip-path="url(#clip940)" d="M2049.53 180.782 L2049.53 188.143 L2058.3 188.143 L2058.3 191.453 L2049.53 191.453 L2049.53 205.527 Q2049.53 208.698 2050.39 209.601 Q2051.26 210.504 2053.93 210.504 L2058.3 210.504 L2058.3 214.069 L2053.93 214.069 Q2049 214.069 2047.12 212.24 Q2045.25 210.388 2045.25 205.527 L2045.25 191.453 L2042.12 191.453 L2042.12 188.143 L2045.25 188.143 L2045.25 180.782 L2049.53 180.782 Z" fill="#000000" fill-rule="nonzero" fill-opacity="1" /><path clip-path="url(#clip940)" d="M2085.45 198.421 L2085.45 214.069 L2081.2 214.069 L2081.2 198.559 Q2081.2 194.879 2079.76 193.05 Q2078.32 191.222 2075.45 191.222 Q2072.01 191.222 2070.01 193.421 Q2068.02 195.62 2068.02 199.416 L2068.02 214.069 L2063.74 214.069 L2063.74 178.05 L2068.02 178.05 L2068.02 192.171 Q2069.55 189.833 2071.61 188.675 Q2073.7 187.518 2076.4 187.518 Q2080.87 187.518 2083.16 190.296 Q2085.45 193.05 2085.45 198.421 Z" fill="#000000" fill-rule="nonzero" fill-opacity="1" /></svg>
